<?xml version="1.0" encoding="UTF-8"?>
<svg id="Layer_1" data-name="Layer 1" xmlns="http://www.w3.org/2000/svg" width="679.67" height="909.91" viewBox="0 0 679.67 909.91">
  <defs>
    <style>
      .cls-1 {
        fill: #ffb612;
        stroke-width: 0px;
      }
    </style>
  </defs>
  <path class="cls-1" d="M193.44,289.5c-20.43-11.73-40.35-23.15-60.5-34.72.9-1.71,1.51-2.98,2.22-4.19,40.02-67.69,79.93-135.45,120.14-203.03C272.2,19.16,298.18,3.58,330.44.55c42-3.93,74.87,13.15,96.8,49.24,22.15,36.47,43.26,73.57,64.84,110.39,2.34,4,4.74,7.97,7.16,11.92.56.92,1.35,1.69,2.24,2.79,13.79-7.58,27.43-15.08,42.08-23.13-10.19,38.29-20.07,75.41-30.13,113.21-19.64-4.67-38.81-9.89-58.06-14.79-19.27-4.91-38.51-9.95-57.84-15.88,13.64-7.88,27.29-15.76,41.19-23.79-.64-1.46-1.02-2.64-1.63-3.69-23.48-40.33-47-80.65-70.49-120.98-4.25-7.29-9.79-12.94-18.18-15.36-11.69-3.36-23.9.53-31.21,10.24-1.92,2.54-3.56,5.31-5.18,8.06-38.52,65.24-77.02,130.49-115.52,195.73-.88,1.49-1.81,2.95-3.07,5Z"/>
  <path class="cls-1" d="M84.81,338.1c-13.62-8.26-26.94-16.34-40.27-24.42.05-.33.1-.65.14-.98,37.2-10.03,74.41-20.06,112-30.2,10.76,38.67,21.36,76.77,32.14,115.52-4.55-1.09-7.55-3.72-10.93-5.53-3.52-1.89-6.92-3.98-10.38-5.98-3.46-2-6.93-3.98-10.38-5.99-3.42-1.98-6.83-3.97-10.55-6.13-1.14,1.78-2.04,3.05-2.81,4.4-23,40.24-46,80.49-68.97,120.75-3.64,6.37-6,13.09-4.66,20.6,2.7,15.13,14.09,24.76,29.99,25.03,15.18.26,30.37.2,45.55.34,39.96.37,79.91.77,119.87,1.16,22.06.22,44.11.45,66.17.67,1.72.02,3.44,0,5.78,0,.45,23.52.54,46.45.53,69.9-2.3.14-4.14.37-5.98.35-21.58-.22-43.15-.52-64.73-.73-40.76-.41-81.51-.75-122.27-1.18-17.26-.18-34.53-.2-51.77-.9-19.56-.79-37.14-7.73-52.61-19.58-6.05-4.64-11.74-9.95-16.79-15.68-26.29-29.83-31.95-76.35-11.57-112.95,10.73-19.27,21.7-38.41,32.59-57.59,11.84-20.85,23.73-41.67,35.57-62.52,1.48-2.61,2.77-5.33,4.35-8.37Z"/>
  <path class="cls-1" d="M434.27,616.66c-.41,16.17-.79,31.61-1.19,47.18-3.19-1.72-77.62-75.53-82.64-81.92,27.77-28.33,55.57-56.69,83.38-85.06l.98.34v48.14c2.49,0,4.37,0,6.25,0,36.92-.12,73.85-.22,110.77-.39,10.07-.04,20.13-.31,30.2-.43,20.59-.26,35-22.96,24.86-42.2-5.89-11.17-12.28-22.07-18.48-33.06-32.27-57.22-64.55-114.43-96.82-171.65-.78-1.38-1.49-2.81-2.5-4.72,20.04-11.69,39.98-23.31,60.22-35.12,1.1,1.73,2,3,2.76,4.35,38.35,68.1,76.64,136.24,115.06,204.3,9.57,16.96,13.55,35.17,12.33,54.4-1.02,16.12-5.04,31.8-13.7,45.5-16.52,26.13-39.82,42.94-70.86,47.64-7.55,1.14-15.28,1.41-22.93,1.47-40.6.32-81.2.43-121.8.66-5.09.03-10.18.35-15.9.55Z"/>
  <path class="cls-1" d="M318.36,829v49.71c2.2.14,4.21.39,6.22.39,31.49.02,62.98.02,94.47.02,2.04,0,4.07,0,6.45,0v29.65c-3.53,1.11-127.82,1.63-139.78.6-.12-.11-.24-.21-.35-.33-.1-.11-.27-.24-.28-.37-.12-1.27-.3-2.54-.3-3.81.02-60.46.05-120.91.1-181.37,0-.44.28-.88.41-1.27,4.01-1.15,135.21-1.26,140.44.03.22,9.62.12,19.41.06,29.76h-106.7c-1.16,4.05-1.35,40.8-.25,46.5,10.49.03,21.13.06,31.78.07,10.87.01,21.74,0,32.61,0h32.28v30.28c-6.38.29-12.71.1-19.02.13-6.55.03-13.11,0-19.66,0h-38.84c-6.36,0-12.72,0-19.62,0Z"/>
  <path class="cls-1" d="M102.2,721.45c1.8-.12,3.35-.3,4.9-.3,24.93-.02,49.87-.09,74.8.02,12.9.06,25.52,1.93,37.18,7.84,23.52,11.93,35.7,31.06,34.66,57.55-1,25.33-14.31,42.74-37.05,53.14-9.86,4.51-20.35,6.52-31.19,6.55-14.7.05-29.41.01-44.11.01-1.73,0-3.46,0-5.87,0v63.29c-11.44.07-22.21.13-33.31-.08v-188.04ZM135.74,814.87c1.09.22,1.55.4,2.02.4,16.29-.08,32.59-.01,48.87-.36,6.27-.14,12.26-2.14,17.75-5.27,9.97-5.7,15.32-14.27,15.3-25.85-.02-11.57-5.34-20.16-15.36-25.81-7.27-4.1-15.23-5.66-23.48-5.73-13.58-.1-27.16-.04-40.74-.02-1.37,0-2.74.23-4.37.37v62.27Z"/>
  <path class="cls-1" d="M546.42,909.35h-33.02c-.42-13.12-.13-26.16-.19-39.2-.05-13.11-.01-26.22-.01-39.33v-38.85c0-13.07,0-26.13,0-39.78h-60.19c-.55-10.37-.25-20.17-.23-29.82,4.22-1.31,148.69-1.48,153.78-.24v29.9h-60.12c-.07,13.61-.02,26.66-.03,39.71,0,12.95,0,25.9,0,38.85v39.33c0,12.94,0,25.89,0,39.43Z"/>
  <path class="cls-1" d="M369.63,452.97h-32.77v-148.84c-2.13,1.09-3.49,1.65-4.73,2.43-7.83,4.94-15.64,9.93-23.46,14.89-1.34.85-2.71,1.68-4.5,2.78-2.69-3.59-4.64-7.57-6.87-11.34-2.27-3.84-4.46-7.72-6.82-11.83,1.1-.91,1.99-1.77,3-2.46,15.44-10.53,30.91-21,46.32-31.57,2.07-1.42,4.15-2.1,6.66-2.05,6.23.12,12.46.03,18.69.05,1.4,0,2.8.15,4.47.25v187.68Z"/>
</svg>