<?xml version="1.0" encoding="UTF-8"?>
<svg id="Layer_1" data-name="Layer 1" xmlns="http://www.w3.org/2000/svg" width="743.96" height="910.01" viewBox="0 0 743.96 910.01">
  <defs>
    <style>
      .cls-1 {
        fill: #ffb612;
        stroke-width: 0px;
      }
    </style>
  </defs>
  <path class="cls-1" d="M417.24,234.61c13.64-7.87,27.28-15.75,41.18-23.78-.83-1.69-1.36-2.99-2.06-4.18-23.24-39.92-46.51-79.82-69.74-119.74-4.31-7.41-9.72-13.4-18.29-15.94-11.88-3.52-24.27.32-31.59,10.29-2.83,3.85-5.19,8.06-7.63,12.18-37.7,63.86-75.38,127.73-113.07,191.6-.88,1.48-1.78,2.95-2.93,4.87-20.29-11.63-40.19-23.04-60.4-34.62.64-1.42,1.03-2.58,1.64-3.62,40.43-68.37,80.79-136.79,121.38-205.07,11.27-18.96,27.92-31.67,48.47-39.54C335.69,2.66,347.55,0,359.73,0c12.32,0,24.43,2.27,36.05,6.75,22.17,8.54,39.23,23.09,51.25,43.52,22.6,38.44,45.09,76.95,67.64,115.41,1.85,3.15,3.84,6.22,6.06,9.79,13.94-7.66,27.59-15.17,42.36-23.29-10.06,38.29-20.02,75.45-30.11,113.25-38.81-9.81-77.17-19.85-115.58-29.7-.05-.37-.11-.74-.16-1.12Z"/>
  <path class="cls-1" d="M104.46,338.51c-13.62-8.27-26.95-16.35-40.27-24.44.04-.33.08-.66.12-.99,37.19-10.03,74.39-20.06,112-30.2,10.75,38.64,21.35,76.74,32.14,115.49-4.54-1.04-7.52-3.69-10.89-5.49-3.52-1.88-6.92-3.98-10.38-5.98-3.46-2-6.93-3.99-10.38-5.99-3.42-1.98-6.83-3.97-10.57-6.14-1.13,1.74-2.03,3.01-2.8,4.36-23,40.24-45.97,80.5-68.99,120.73-6.03,10.54-7.08,21.11-.48,31.75,6.01,9.7,15.11,13.85,26.26,13.95,15.02.13,30.05.18,45.07.32,39.96.37,79.91.77,119.87,1.16,22.06.22,44.11.45,66.16.67,1.72.02,3.43,0,5.81,0,.46,23.49.52,46.42.52,69.89-2.25.15-4.09.39-5.93.37-21.73-.23-43.47-.53-65.2-.74-40.59-.41-81.19-.74-121.78-1.17-17.26-.18-34.53-.21-51.77-.89-19.39-.77-36.81-7.68-52.28-19.22-9.26-6.91-17.41-15.03-23.95-24.67-8.78-12.94-13.9-27.24-16.07-42.65-3.32-23.56,1.8-45.35,13.54-65.87,21.98-38.43,43.79-76.96,65.66-115.46,1.56-2.75,2.96-5.6,4.64-8.79Z"/>
  <path class="cls-1" d="M370.05,582.3c27.77-28.32,55.57-56.69,83.38-85.05.33.11.65.23.98.34v48.13c2.49,0,4.37,0,6.26,0,36.92-.12,73.85-.22,110.77-.39,10.07-.04,20.13-.3,30.2-.43,20.59-.26,35-22.96,24.85-42.2-5.89-11.16-12.28-22.07-18.48-33.06-32.27-57.22-64.55-114.43-96.82-171.64-.78-1.38-1.49-2.81-2.5-4.71,20.04-11.69,39.98-23.31,60.22-35.11,1.1,1.73,2,3.01,2.76,4.36,38.35,68.1,76.64,136.24,115.06,204.3,9.57,16.96,13.55,35.17,12.33,54.39-1.02,16.12-5.04,31.79-13.71,45.5-16.52,26.12-39.82,42.94-70.86,47.63-7.55,1.14-15.28,1.41-22.93,1.47-40.6.32-81.2.43-121.8.66-5.09.03-10.18.35-15.87.55-.2,8.15-.39,15.91-.59,23.68-.2,7.79-.42,15.58-.63,23.5-3.18-1.73-77.68-75.62-82.63-81.92Z"/>
  <path class="cls-1" d="M572.41,721.97c2.2-.1,3.93-.25,5.66-.26,20.61-.02,41.22-.14,61.83.03,20.78.16,40.62,4.45,58.73,15,25.67,14.96,41.1,37.2,44.58,66.77,5.51,46.86-19.62,85.47-64.47,100.3-11.9,3.94-24.16,6.06-36.7,6.13-21.73.11-43.46.04-65.18.02-1.4,0-2.79-.16-4.45-.26v-187.74ZM606.15,752.4c-1.16,6.05-.86,123.41.39,127.3h5.04c9.11,0,18.22.11,27.33-.04,5.1-.09,10.24-.29,15.28-.99,13.28-1.83,25.25-6.88,35.3-15.9,13.5-12.12,19.93-27.55,20.23-45.51.36-21.92-7.72-39.93-25.84-52.81-10.13-7.2-21.61-11.24-33.96-11.85-13.4-.66-26.84-.49-40.26-.64-1.08-.01-2.17.26-3.5.44Z"/>
  <path class="cls-1" d="M323.57,879.47c.08,10.63.19,20.31-.06,30.24h-140.01c-.1-.1-.23-.2-.33-.32-.11-.11-.27-.23-.28-.36-.12-1.11-.3-2.22-.3-3.33.02-60.61.05-121.23.09-181.84,0-.44.28-.89.4-1.27,3.96-1.16,135.12-1.29,140.44,0,.27,9.62.11,19.42.07,29.76h-106.68c-1.17,4.02-1.38,40.66-.28,46.49,10.49.23,21.14.07,31.78.1,10.87.03,21.74,0,32.61,0h32.29v30.31c-5.4.22-10.77.07-16.13.1-5.27.03-10.55,0-15.82,0h-48.43c-5.4,0-10.8,0-16.04,0-1.11,3.91-1.39,43.13-.42,49.72,1.89.12,3.9.37,5.91.37,31.49.02,62.98.02,94.47.02h6.75Z"/>
  <path class="cls-1" d="M540.43,909.8h-36.93c-2.06-4.85-4.13-9.66-6.16-14.49-2.29-5.45-4.61-10.88-6.81-16.37-.81-2.03-2.02-3.17-4.29-2.96-.63.06-1.28-.02-1.92-.02-27.32,0-54.64.06-81.96-.07-3.6-.02-5.38,1.18-6.7,4.53-3.85,9.8-8.07,19.46-12.21,29.32h-37.19c.6-1.72,1.06-3.29,1.68-4.79,20.29-48.64,40.59-97.27,60.89-145.9,4.55-10.91,9.19-21.78,13.56-32.75,1.29-3.25,2.96-4.75,6.64-4.66,9.58.23,19.17.22,28.75,0,3.48-.08,5.02,1.33,6.29,4.4,22.41,53.98,44.93,107.91,67.42,161.86,2.34,5.6,4.68,11.2,6.99,16.81.6,1.45,1.11,2.93,1.92,5.1ZM476.2,846.75c-.71-4.89-30.47-75.71-32.87-78.49-2.76,3.76-32.22,74.66-32.53,78.49h65.39Z"/>
  <path class="cls-1" d="M0,721.82c1.82-.12,3.37-.3,4.91-.3,24.93-.02,49.87-.09,74.8.02,12.9.06,25.52,1.93,37.18,7.85,23.52,11.93,35.69,31.07,34.65,57.56-1,25.33-14.32,42.73-37.06,53.13-9.86,4.51-20.35,6.51-31.19,6.55-14.7.05-29.41.01-44.11.01-1.73,0-3.46,0-5.87,0v62.98H0v-187.8ZM33.97,752.79c-1.16,5.8-.96,58.86.18,62.6.57.1,1.19.29,1.81.29,15.97-.08,31.95-.07,47.92-.34,5.63-.09,11.05-1.72,16.11-4.2,11.16-5.46,17.47-14.26,17.48-26.91,0-12.63-6.21-21.47-17.4-26.95-6.87-3.36-14.24-4.64-21.83-4.68-13.26-.06-26.52-.03-39.78-.01-1.42,0-2.84.12-4.49.19Z"/>
  <path class="cls-1" d="M342.77,422.8h82.79c.38,1.5.87,2.53.88,3.56.07,7.68.1,15.35.02,23.03-.04,3.77-.46,4.09-4.12,4.28-1.28.07-2.56.03-3.84.03-40.92,0-81.83,0-122.75,0h-6.98c-.16-1.99-.37-3.38-.38-4.76-.04-6.08.16-12.16-.09-18.23-.13-3.23.98-5.29,3.48-7.27,16.05-12.69,32.04-25.45,47.94-38.33,10.3-8.35,20.7-16.62,30.48-25.56,5.24-4.79,9.59-10.69,13.73-16.52,3.93-5.53,5.84-12,6.32-18.87.94-13.24-5.7-24.21-18.04-29.22-11.66-4.73-23.2-3.38-34.49,1.32-9.34,3.88-16.76,10.44-23.53,17.79-1.27,1.38-2.55,2.76-4.19,4.54-7.29-6.74-14.28-13.21-21.27-19.68.2-.68.22-1.19.48-1.53,13.05-16.83,29.3-28.94,50.47-33.36,16.44-3.43,32.79-3.03,48.5,3.48,19.01,7.87,31.61,21.57,35.38,42.12,3.02,16.48-.02,32.12-9.03,46.43-6.55,10.4-14.99,19.12-24.39,26.88-14.55,12-29.31,23.75-43.96,35.62-1.3,1.05-2.53,2.2-3.79,3.3.13.32.26.64.39.96Z"/>
</svg>