<?xml version="1.0" encoding="UTF-8"?>
<svg id="Layer_1" data-name="Layer 1" xmlns="http://www.w3.org/2000/svg" width="727.89" height="909.56" viewBox="0 0 727.89 909.56">
  <defs>
    <style>
      .cls-1 {
        fill: #ffb612;
        stroke-width: 0px;
      }
    </style>
  </defs>
  <path class="cls-1" d="M512.78,175.03c14.19-7.81,27.81-15.3,42.45-23.35-10.21,38.36-20.1,75.49-30.17,113.3-38.79-9.82-77.16-19.81-116.78-30.03,14.38-8.88,28.36-16.26,42.14-24.64-.76-1.56-1.28-2.85-1.98-4.04-23.32-40.05-46.67-80.09-70-120.14-4.23-7.27-9.63-13.07-18.01-15.58-11.87-3.55-24.23.31-31.64,10.19-1.91,2.55-3.55,5.31-5.18,8.06-38.52,65.23-77.02,130.48-115.53,195.72-.88,1.48-1.78,2.95-2.97,4.94-20.34-11.67-40.35-23.14-60.55-34.72.85-1.65,1.37-2.79,2.01-3.87,40.18-67.96,80.17-136.05,120.67-203.81C284.58,18.06,311.4,2.69,344.55.32c41.1-2.94,73.07,14.27,94.38,49.5,23,38.01,45.03,76.6,67.51,114.93,1.93,3.29,4,6.5,6.34,10.28Z"/>
  <path class="cls-1" d="M349.13,547.24c.46,23.54.54,46.47.54,69.91-2.17.14-3.86.36-5.54.34-29.89-.28-59.78-.59-89.67-.89-32.61-.33-65.21-.64-97.82-1.02-17.26-.2-34.53-.2-51.78-.9-19.56-.8-37.14-7.75-52.61-19.6-5.93-4.54-11.51-9.73-16.48-15.32-26.55-29.9-32.3-76.57-11.83-113.32,10.81-19.41,21.85-38.69,32.82-58,11.76-20.71,23.58-41.38,35.34-62.09,1.48-2.61,2.77-5.32,4.33-8.34-13.64-8.27-26.96-16.34-40.29-24.41l.17-.98c37.1-10,74.19-20.01,111.93-30.18,10.86,38.47,21.41,76.68,31.64,115.27-7.31-3.24-13.96-7.42-20.77-11.31-6.9-3.93-13.76-7.92-20.84-12-1,1.47-1.78,2.46-2.39,3.53-23.25,40.65-46.5,81.3-69.71,121.97-3.56,6.23-5.73,12.85-4.41,20.18,2.72,15.13,14.11,24.73,30.02,24.99,15.18.25,30.37.2,45.56.34,39.96.37,79.92.77,119.88,1.16,22.06.22,44.11.45,66.17.67,1.72.02,3.43,0,5.74,0Z"/>
  <path class="cls-1" d="M361.97,581.93c28.02-28.57,55.75-56.86,83.49-85.14.31.1.63.2.94.3v48.16c2.33,0,4.04,0,5.75,0,37.25-.12,74.5-.22,111.74-.39,9.75-.04,19.5-.4,29.24-.39,21.16.03,35.92-23.34,25.04-43.04-5.95-10.77-12.02-21.47-18.07-32.19-32.27-57.21-64.56-114.42-96.83-171.63-.78-1.38-1.51-2.8-2.56-4.77,20.03-11.68,39.96-23.3,60.22-35.11,1.08,1.67,2,2.93,2.76,4.28,38.35,68.1,76.65,136.23,115.07,204.28,9.57,16.96,13.57,35.16,12.37,54.38-1.01,16.13-5.02,31.8-13.67,45.5-16.5,26.14-39.8,42.96-70.83,47.68-7.55,1.15-15.28,1.42-22.93,1.48-40.6.32-81.21.43-121.81.66-5.09.03-10.19.34-15.95.54-.2,8.11-.39,15.86-.59,23.61-.2,7.81-.41,15.61-.62,23.33-.33.14-.47.25-.62.26-.15.01-.35,0-.45-.1-1.17-1.07-2.37-2.13-3.49-3.25-25.95-26.03-51.89-52.06-78.2-78.46Z"/>
  <path class="cls-1" d="M363.02,721.31c1.7-.1,3.25-.28,4.8-.28,28.44-.02,56.89-.07,85.33.02,9.97.03,19.76,1.33,28.97,5.5,13.89,6.3,23.76,16.27,26.95,31.52,4.29,20.46-3.08,37-18.63,47.79-1.93,1.34-3.88,2.67-6.27,4.32,1.82,1.1,3.12,1.93,4.46,2.69,6.42,3.67,12.22,8.12,17.23,13.61,19.6,21.47,16.06,57.21-10.71,73.49-10.22,6.21-21.38,9.28-33.24,9.45-15.82.23-31.64.1-47.46.12-15.34.01-30.68,0-46.02,0h-5.42v-188.23ZM396.26,880.24c2.36.1,4.25.26,6.14.26,11.66.02,23.32.04,34.97,0,6.23-.02,12.49.24,18.66-.4,4.35-.46,8.86-1.63,12.79-3.53,9.72-4.69,15.09-12.59,14.93-23.65-.16-11.07-5.88-18.58-15.56-23.32-5.1-2.5-10.58-3.56-16.23-3.57-17.25-.05-34.49-.03-51.74,0-1.23,0-2.46.24-3.96.4v53.83ZM396.23,798.07c.9.3,1.2.48,1.5.48,17.55,0,35.11.1,52.66-.1,5.15-.06,10.02-1.84,14.43-4.61,14.7-9.26,14.8-29.26.17-38.64-5.39-3.45-11.39-4.96-17.72-4.99-15.64-.07-31.28-.03-46.92,0-1.36,0-2.72.27-4.1.42v47.44Z"/>
  <path class="cls-1" d="M555.99,909.48v-6.41c0-58.35,0-116.71,0-175.06,0-.8-.02-1.6.02-2.4.18-3.96.44-4.38,4.53-4.36,24.61.12,49.26-.58,73.8.73,27.02,1.44,51.03,11.35,69.95,31.46,15.45,16.43,22.88,36.26,23.55,58.69.67,22.37-5.31,42.68-19.4,60.27-12.93,16.13-29.86,26.27-49.49,32.07-11.39,3.36-23.07,5.03-34.97,5.02-20.62-.02-41.23,0-61.85,0-1.73,0-3.45,0-6.14,0ZM590.1,751.88c-1.01,6.49-.7,123.37.4,127.31,4.61,0,9.37.09,14.12-.02,10.85-.24,21.78.16,32.53-1,25.66-2.76,52.36-20.41,56.16-55.67,2.1-19.54-3.01-37.15-17.08-51.45-11.61-11.79-26.08-17.88-42.37-18.92-13.38-.85-26.83-.52-40.25-.68-1.09-.01-2.18.25-3.52.42Z"/>
  <path class="cls-1" d="M182.59,721.53h140.33c.87,10.1.22,19.9.41,30.25h-106.65c-1.26,3.8-1.6,39.48-.49,46.5,10.49.37,21.14.11,31.77.16,10.87.05,21.74.01,32.61.01h32.38v30.37h-96.3c-1.22,3.77-1.61,41.62-.57,49.71,1.86.14,3.85.41,5.84.41,31.49.03,62.99.02,94.48.02h6.83c.21,10.31.14,20.1.06,30.2h-140.69v-187.64Z"/>
  <path class="cls-1" d="M33.29,846.41v62.75H.87s-.15-.14-.26-.25c-.11-.11-.28-.23-.3-.35C.19,907.29,0,906.02,0,904.75c.02-60.6.05-121.2.1-181.79,0-.44.28-.87.56-1.69,1.47-.08,3.03-.24,4.59-.24,24.77-.02,49.55-.08,74.32.02,13.23.06,26.13,2,38.07,8.15,22.35,11.52,34.3,29.77,34.11,55.04-.19,25.1-12.45,43.04-34.68,54.21-10.44,5.25-21.67,7.59-33.33,7.66-14.86.09-29.73.02-44.59.03-1.71,0-3.42.15-5.86.26ZM33.56,814.75c1.27.21,2.05.44,2.82.44,15.98-.08,31.97.13,47.93-.49,5.27-.2,10.75-1.9,15.62-4.07,11.35-5.06,17.61-14.09,17.68-26.73.07-12.62-6.09-21.53-17.28-27.06-6.56-3.24-13.62-4.62-20.87-4.68-13.9-.13-27.81-.06-41.72-.03-1.36,0-2.72.27-4.19.43v62.2Z"/>
  <path class="cls-1" d="M400.72,264.96v117.97c8.65,1.23,17.11-.21,25.73.92v28.13c-8.35.11-16.7.22-25.6.34v39.81c-4.44,1.41-28.32,1.5-33.3.15v-39.92c-10.71-.38-20.88-.14-31.04-.18-10.23-.04-20.45,0-30.68,0s-20.42,0-30.91,0c-.44-1.39-1-2.53-1.15-3.72-.79-6.18-1.28-12.4-2.29-18.54-.52-3.19.52-5.46,2.32-7.88,14.87-20,29.66-40.07,44.47-60.12,13.1-17.73,26.27-35.43,39.25-53.25,2.01-2.75,4.09-3.85,7.51-3.77,10.06.23,20.13.08,30.2.08h5.5ZM367.18,383.09v-80.01c-.65.11-1.04.06-1.22.23-.57.55-1.09,1.16-1.56,1.8-18.82,25.62-37.63,51.24-56.43,76.87-.08.11-.06.32-.02.47.04.14.16.25.45.64h58.79Z"/>
</svg>