<?xml version="1.0" encoding="UTF-8"?>
<svg id="Layer_1" data-name="Layer 1" xmlns="http://www.w3.org/2000/svg" width="679.65" height="909.54" viewBox="0 0 679.65 909.54">
  <defs>
    <style>
      .cls-1 {
        fill: #ffb612;
        stroke-width: 0px;
      }
    </style>
  </defs>
  <path class="cls-1" d="M193.41,289.73c-20.33-11.66-40.24-23.08-60.4-34.64.72-1.5,1.18-2.66,1.81-3.72,40.1-67.83,80.14-135.7,120.38-203.45,15.89-26.75,40.11-41.5,70.33-46.61,41.38-7,82.07,14.56,101.78,48.5,21.67,37.32,43.58,74.5,65.41,111.73,2.65,4.52,5.42,8.97,8.35,13.81,14.1-7.76,27.76-15.27,42.49-23.37-10.21,38.35-20.12,75.59-30.18,113.37-38.9-10.02-77.31-19.92-115.72-29.82-.05-.33-.11-.66-.16-.98,13.62-7.87,27.23-15.74,41.41-23.93-.99-1.87-1.79-3.53-2.71-5.11-22.45-38.53-44.9-77.06-67.38-115.57-1.85-3.17-3.69-6.39-5.93-9.28-11.62-15-34.06-14.9-45.6.18-1.93,2.53-3.57,5.3-5.19,8.05-38.6,65.38-77.17,130.77-115.76,196.15-.8,1.36-1.67,2.69-2.92,4.69Z"/>
  <path class="cls-1" d="M84.86,338.38c-13.82-8.38-27.03-16.39-40.24-24.4.02-.34.04-.69.06-1.03,37.17-10.03,74.34-20.05,111.99-30.2,10.76,38.69,21.39,76.9,32.02,115.11l-.87.63c-13.63-7.86-27.25-15.73-41.24-23.8-1.09,1.65-2.01,2.89-2.77,4.23-23,40.24-45.97,80.51-68.99,120.74-5.32,9.3-7.08,18.84-2.19,28.81,5.64,11.51,15.22,16.83,27.82,16.97,14.86.16,29.73.18,44.6.32,40.12.37,80.23.77,120.35,1.16,22.06.22,44.11.45,66.17.67,1.72.02,3.45,0,5.01,0,1.31,4.37,2.04,61.88.95,69.88-1.87.13-3.86.39-5.85.37-17.26-.19-34.52-.48-51.78-.65-45.23-.44-90.46-.8-135.69-1.26-16.94-.17-33.89-.22-50.81-.88-19.4-.76-36.81-7.64-52.3-19.17-9.4-6.99-17.64-15.24-24.25-25.05-8.64-12.84-13.69-26.99-15.84-42.24-3.33-23.56,1.75-45.35,13.48-65.88,21.97-38.44,43.79-76.96,65.65-115.46,1.57-2.76,2.99-5.6,4.72-8.87Z"/>
  <path class="cls-1" d="M434.26,616.94c-.4,16.02-.79,31.49-1.17,46.91-.26.11-.4.21-.55.23-.15.02-.34.03-.45-.04-.51-.38-1.03-.74-1.48-1.18-26.62-26.72-53.23-53.45-80.25-80.59,27.78-28.34,55.58-56.71,83.38-85.07l.98.27c.43,15.81-.55,31.67.29,48.15,2,0,3.7,0,5.39,0,37.4-.12,74.81-.22,112.21-.39,9.75-.04,19.49-.33,29.24-.42,20.77-.18,35.29-23.09,24.89-42.5-5.96-11.13-12.3-22.05-18.5-33.05-32.27-57.22-64.55-114.43-96.83-171.65-.7-1.25-1.36-2.52-2.37-4.39,19.96-11.77,39.92-23.32,60.21-35.13,1.04,1.59,1.97,2.83,2.72,4.17,38.42,68.25,76.79,136.52,115.28,204.73,9.49,16.82,13.37,34.9,12.2,53.95-.99,16.13-4.99,31.81-13.63,45.52-16.47,26.16-39.76,43-70.78,47.76-7.54,1.16-15.27,1.43-22.92,1.49-40.6.32-81.2.43-121.8.67-5.23.03-10.46.37-16.06.58Z"/>
  <path class="cls-1" d="M188.51,721.7c1.82-.12,3.37-.3,4.92-.3,24.93-.02,49.87-.09,74.8.02,12.9.06,25.52,1.93,37.18,7.85,23.52,11.93,35.69,31.07,34.64,57.56-1,25.33-14.32,42.73-37.07,53.13-9.86,4.51-20.35,6.51-31.19,6.55-14.7.05-29.41.01-44.11.01-1.73,0-3.46,0-5.87,0v62.98h-33.3v-187.81ZM221.79,815.04c1.26.26,1.86.5,2.47.5,16.29-.09,32.59,0,48.87-.4,6.42-.15,12.53-2.3,18.14-5.58,6.92-4.05,11.74-9.81,13.76-17.65,3.88-15.02-3-28.85-17.56-35.28-6.67-2.95-13.73-4.13-21-4.15-13.1-.02-26.2,0-39.3,0-1.57,0-3.13,0-5.41,0-.03,21.07-.04,41.64.02,62.57Z"/>
  <path class="cls-1" d="M404.39,846.78v62.76h-33v-187.87c1.8-.1,3.36-.27,4.92-.27,24.77-.02,49.54-.08,74.31.02,13.23.05,26.13,1.99,38.07,8.14,22.35,11.51,34.31,29.76,34.13,55.04-.18,25.1-12.43,43.05-34.65,54.24-10.44,5.25-21.67,7.6-33.33,7.67-14.86.09-29.73.02-44.59.03-1.72,0-3.43.14-5.86.25ZM404.64,815.12c1.27.21,2.04.45,2.82.44,15.98-.08,31.97.13,47.93-.49,5.27-.2,10.75-1.9,15.62-4.07,11.35-5.06,17.61-14.09,17.68-26.73.08-12.62-6.09-21.54-17.27-27.06-6.56-3.24-13.62-4.62-20.87-4.69-13.9-.13-27.81-.06-41.71-.03-1.36,0-2.72.27-4.2.43v62.2Z"/>
  <path class="cls-1" d="M276.8,365.12c.9-33.44,1.79-66.46,2.68-99.65h120.11c.07,9.97.14,19.78-.09,30.3-9.99,0-19.68.01-29.37.01-9.75,0-19.5,0-29.25,0h-29.75c-.86,16.45-1.27,32.35-1.76,49.21,2.09-1.07,3.44-1.73,4.77-2.45,20.33-11,41.29-11.73,62.32-2.76,22.6,9.64,34.7,31.41,33.25,56.97-1.75,30.76-21.2,49.9-44.92,56.25-32.48,8.7-62.69,3.84-89.44-17.55-2.71-2.17-5.12-4.71-7.9-7.29,6.7-8.08,13.11-15.8,19.86-23.94,1.47,1.28,2.75,2.38,4.01,3.5,9.47,8.34,19.88,15.05,32.24,18.22,10.77,2.77,21.51,2.96,31.99-1.33,16.84-6.9,24.97-25.2,18.53-41.91-4.44-11.51-13.55-17.56-25.18-19.85-16.31-3.21-31.47.2-45.22,9.38-3.08,2.06-5.49,2.27-8.74.72-5.75-2.74-11.69-5.07-18.12-7.82Z"/>
</svg>