<?xml version="1.0" encoding="UTF-8"?>
<svg id="Layer_1" data-name="Layer 1" xmlns="http://www.w3.org/2000/svg" width="679.67" height="912.96" viewBox="0 0 679.67 912.96">
  <defs>
    <style>
      .cls-1 {
        fill: #ffb612;
        stroke-width: 0px;
      }
    </style>
  </defs>
  <path class="cls-1" d="M193.42,289.73c-20.34-11.67-40.25-23.09-60.4-34.65.73-1.51,1.2-2.66,1.82-3.73,40.1-67.83,80.14-135.7,120.38-203.45,15.89-26.75,40.12-41.49,70.34-46.6,41.33-6.98,82.04,14.53,101.77,48.52,21.67,37.32,43.58,74.5,65.4,111.73,2.65,4.52,5.42,8.96,8.34,13.8,14.12-7.76,27.77-15.28,42.49-23.37-10.21,38.36-20.13,75.59-30.18,113.38-38.9-10.03-77.32-19.92-115.73-29.82-.05-.33-.1-.65-.15-.98,13.62-7.87,27.24-15.75,41.41-23.94-.99-1.88-1.79-3.54-2.72-5.12-22.45-38.53-44.9-77.06-67.38-115.57-1.85-3.17-3.69-6.39-5.93-9.28-11.63-14.99-34.07-14.88-45.6.21-1.93,2.53-3.57,5.3-5.19,8.05-38.6,65.38-77.17,130.77-115.76,196.15-.8,1.36-1.68,2.69-2.92,4.67Z"/>
  <path class="cls-1" d="M337.5,547.59c.44,23.51.54,46.44.52,69.9-2.29.14-4.13.37-5.97.36-21.74-.23-43.47-.53-65.21-.75-40.6-.41-81.19-.74-121.79-1.17-17.26-.18-34.53-.2-51.77-.9-19.56-.79-37.14-7.73-52.61-19.58-6.05-4.64-11.74-9.95-16.79-15.68-26.29-29.83-31.96-76.35-11.57-112.95,10.73-19.27,21.7-38.41,32.59-57.59,11.84-20.85,23.73-41.67,35.57-62.52,1.48-2.61,2.78-5.33,4.35-8.37-13.62-8.26-26.94-16.34-40.26-24.42.05-.33.09-.66.14-.98,37.2-10.03,74.41-20.06,112-30.2,10.76,38.67,21.36,76.77,32.14,115.51-4.54-1.09-7.55-3.71-10.93-5.52-3.52-1.89-6.92-3.98-10.38-5.98-3.46-2-6.93-3.98-10.38-5.99-3.42-1.98-6.83-3.97-10.55-6.14-1.14,1.77-2.04,3.05-2.81,4.39-23,40.24-46,80.49-68.97,120.75-3.64,6.37-6,13.09-4.66,20.6,2.69,15.13,14.09,24.76,29.99,25.03,15.18.26,30.37.2,45.55.34,39.96.37,79.91.77,119.87,1.16,22.06.22,44.11.45,66.17.67,1.71.02,3.43,0,5.79,0Z"/>
  <path class="cls-1" d="M434.28,616.91c-.41,16.15-.8,31.59-1.19,47.14-3.18-1.65-77.08-74.86-82.66-81.86,27.77-28.33,55.58-56.7,83.39-85.07.32.11.64.21.96.32v48.16c2.33,0,4.05,0,5.76,0,37.24-.12,74.49-.22,111.73-.39,9.75-.04,19.49-.39,29.24-.39,21.14,0,35.89-23.36,24.99-43.08-5.96-10.77-12.03-21.48-18.07-32.19-32.27-57.22-64.55-114.43-96.82-171.65-.78-1.38-1.5-2.8-2.53-4.75,20.03-11.68,39.97-23.31,60.21-35.11,1.09,1.7,2,2.97,2.76,4.32,38.35,68.1,76.64,136.24,115.06,204.3,9.57,16.96,13.56,35.17,12.35,54.39-1.02,16.12-5.03,31.8-13.69,45.5-16.51,26.14-39.81,42.95-70.84,47.66-7.55,1.15-15.28,1.42-22.93,1.48-40.6.32-81.2.43-121.8.66-5.09.03-10.18.34-15.93.55Z"/>
  <path class="cls-1" d="M403.99,282.77c-5.47,8.58-10.69,16.78-16.24,25.48-1.69-1.31-3.15-2.42-4.58-3.57-7.47-5.94-15.59-10.54-25.12-12.29-17.02-3.13-31.3,1.49-42.36,15.03-8.43,10.31-12.63,22.46-14.83,35.39-.58,3.42-.84,6.9-1.38,11.38,1.69-1.16,2.6-1.6,3.29-2.28,21.87-21.78,57.63-23.55,82.16-8.9,17.26,10.32,25.93,26.08,27.03,45.92,2,36.1-22.67,61.62-56.12,66.91-11.65,1.84-23.28,1.53-34.74-1.21-21.3-5.09-36.35-17.94-45.72-37.6-5.77-12.12-8.61-24.99-9.87-38.31-1.57-16.53-.9-32.89,3.17-49.02,3.56-14.11,9.44-27.16,18.64-38.53,15.16-18.74,34.79-28.66,58.92-29.28,19.87-.51,37.8,5.2,53.58,17.42,1.25.97,2.44,2.01,4.18,3.45ZM339.68,428.5c8.31-.02,15.58-1.68,22.06-5.84,11.28-7.26,17.02-17.73,15.99-31.12-1.04-13.58-8.78-22.66-21.29-27.55-9.99-3.9-20.27-4.21-30.49-.87-10.35,3.38-18,10.03-22.95,19.77-1.35,2.65-2.1,5.37-1.15,8.29,1.88,5.74,3.26,11.74,5.86,17.14,6.49,13.53,17.64,20.09,31.98,20.18Z"/>
  <path class="cls-1" d="M192.37,721.7c1.81-.12,3.35-.3,4.9-.3,24.93-.02,49.87-.09,74.8.02,12.9.06,25.52,1.93,37.18,7.85,23.52,11.93,35.7,31.07,34.65,57.56-1,25.33-14.31,42.74-37.06,53.14-9.86,4.51-20.35,6.52-31.19,6.55-14.7.05-29.41.01-44.11.01-1.73,0-3.46,0-5.87,0v63.29c-11.44.07-22.21.13-33.31-.08v-188.04ZM225.63,815.03c1.24.27,1.84.51,2.45.51,16.45-.1,32.91-.01,49.35-.44,6.25-.16,12.2-2.32,17.67-5.52,6.92-4.06,11.75-9.8,13.78-17.64,3.89-15.02-2.97-28.85-17.52-35.3-6.67-2.95-13.73-4.15-20.99-4.16-13.1-.02-26.2,0-39.3,0-1.57,0-3.14,0-5.43,0-.07,21.05-.04,41.61-.01,62.56Z"/>
  <path class="cls-1" d="M363.69,882.82c6.83-8.44,13.03-16.09,19.42-23.99,1.76,1.4,3.12,2.46,4.46,3.55,12.7,10.42,26.87,17.77,43.21,20.49,9.69,1.62,19.38,2,29-.52,5.32-1.4,10.16-3.74,14.29-7.47,9.17-8.29,11.17-25.59-3.59-33.6-8.24-4.47-17.21-6.7-26.15-9.13-11.7-3.19-23.53-5.98-35-9.82-6.73-2.26-13.23-5.68-19.21-9.56-12.43-8.06-18.21-20.07-18.88-34.77-1.26-27.54,16.15-47.73,40.98-55.81,11.91-3.88,24.14-4.59,36.48-3.63,21.1,1.64,40.05,9.02,56.73,22.12,1.36,1.07,2.67,2.21,4.38,3.63-6.13,8.3-12.07,16.34-18.19,24.62-1.69-1.31-3.06-2.38-4.43-3.44-11.05-8.48-23.17-14.69-36.96-17.32-8.24-1.57-16.47-2.03-24.66.42-5.95,1.78-11.13,4.77-15.2,9.55-7.09,8.33-8.39,23.1,5.08,30.8,6.73,3.85,14.05,6.07,21.47,8.03,11.26,2.96,22.61,5.61,33.81,8.8,8.62,2.46,16.8,6.1,24.29,11.16,12.87,8.7,19.25,20.86,19.78,36.35.91,26.68-13.86,49.06-43.85,56.1-37.95,8.91-72.88,1.38-103.51-23.52-1.11-.9-2.22-1.79-3.74-3.02Z"/>
</svg>