<?xml version="1.0" encoding="UTF-8"?>
<svg id="Layer_1" data-name="Layer 1" xmlns="http://www.w3.org/2000/svg" width="679.65" height="913.02" viewBox="0 0 679.65 913.02">
  <defs>
    <style>
      .cls-1 {
        fill: #ffb612;
        stroke-width: 0px;
      }
    </style>
  </defs>
  <path class="cls-1" d="M193.42,289.5c-20.45-11.74-40.36-23.16-60.5-34.72.92-1.73,1.52-3,2.24-4.22,40.02-67.69,79.93-135.45,120.14-203.03C272.2,19.13,298.19,3.56,330.45.55c42-3.92,74.87,13.17,96.78,49.27,22.14,36.47,43.26,73.57,64.83,110.39,2.34,4,4.74,7.97,7.17,11.92.56.91,1.35,1.68,2.23,2.76,13.8-7.58,27.43-15.07,42.07-23.12-10.2,38.3-20.08,75.43-29.93,112.44-3.93.24-111.72-27.36-116.32-29.79,13.88-8.01,27.52-15.89,41.5-23.95-.77-1.6-1.29-2.89-1.99-4.08-23.32-40.06-46.67-80.1-69.99-120.16-4.32-7.43-9.86-13.29-18.44-15.75-11.68-3.35-23.89.55-31.2,10.28-1.91,2.55-3.56,5.31-5.18,8.06-38.52,65.24-77.01,130.49-115.52,195.73-.88,1.49-1.81,2.95-3.06,4.97Z"/>
  <path class="cls-1" d="M84.86,338.13c-13.82-8.38-27.03-16.39-40.23-24.39.02-.35.04-.69.06-1.04,37.17-10.03,74.34-20.05,111.99-30.21,10.76,38.68,21.39,76.9,32.02,115.11-.29.21-.58.42-.87.64-13.62-7.86-27.25-15.72-41.23-23.8-1.08,1.64-2.01,2.89-2.77,4.22-23,40.24-45.97,80.51-68.99,120.74-5.32,9.3-7.09,18.84-2.2,28.81,5.64,11.51,15.22,16.84,27.82,16.98,14.86.17,29.73.18,44.6.32,40.12.37,80.23.77,120.35,1.16,22.06.22,44.11.45,66.17.67,1.72.02,3.45,0,5.02,0,1.31,4.34,2.05,61.77.96,69.88-1.87.13-3.86.4-5.85.38-17.26-.19-34.52-.48-51.78-.65-45.23-.44-90.46-.8-135.69-1.26-16.94-.17-33.89-.22-50.81-.88-19.4-.76-36.82-7.64-52.3-19.17-9.4-6.99-17.64-15.24-24.25-25.05-8.65-12.83-13.69-26.99-15.85-42.24-3.33-23.56,1.75-45.35,13.48-65.88,21.97-38.44,43.79-76.96,65.65-115.46,1.57-2.76,2.99-5.6,4.72-8.87Z"/>
  <path class="cls-1" d="M434.25,616.7c-.4,16.05-.79,31.51-1.17,46.89-.3.13-.45.23-.6.25-.15.02-.35,0-.45-.08-.73-.61-1.48-1.2-2.15-1.88-26.4-26.48-52.8-52.97-79.58-79.84,27.85-28.41,55.65-56.78,83.46-85.15.31.1.63.19.94.29v48.16c2.33,0,4.04,0,5.74,0,37.4-.12,74.81-.22,112.21-.39,9.75-.04,19.49-.32,29.24-.42,20.73-.2,35.25-23.11,24.82-42.55-5.82-10.84-11.97-21.5-18.02-32.22-32.35-57.36-64.72-114.7-97.08-172.06-.78-1.39-1.52-2.8-2.6-4.78,20.04-11.69,39.96-23.31,60.22-35.12,1.07,1.64,2,2.9,2.75,4.24,38.42,68.25,76.79,136.52,115.27,204.73,9.49,16.82,13.35,34.91,12.18,53.95-1,16.13-5.01,31.8-13.65,45.51-16.49,26.15-39.78,42.98-70.81,47.72-7.54,1.15-15.27,1.42-22.92,1.48-40.6.32-81.2.43-121.8.67-5.22.03-10.44.38-16.01.59Z"/>
  <path class="cls-1" d="M350.08,913.02c-55.47-.09-99.1-46.65-98.84-98.06.27-52.62,45.58-97.25,99.33-97,53,.24,98.33,44.83,98.05,97.73-.28,52.84-45.12,97.34-98.54,97.33ZM350.6,882.29c5.57.18,11.52-.83,17.34-2.68,44.53-14.18,63.54-72.89,27.19-111.11-15.46-16.26-34.73-23.21-57.01-18.59-38.62,8.02-61.64,48.69-49.33,86.31,8.95,27.37,33.81,46.06,61.81,46.07Z"/>
  <path class="cls-1" d="M290.31,453c25.61-52.54,50.9-104.41,76.57-157.1-2.69-.16-4.52-.36-6.35-.36-27.96-.02-55.93-.01-83.89-.01-1.87,0-3.74,0-5.86,0v-29.7c3.44-1,125.3-1.44,135.17-.41.04,8.6.86,17.29-.49,25.96-.28,1.82-1.5,3.51-2.33,5.23-24.19,50.58-48.42,101.14-72.49,151.78-1.78,3.74-3.83,5.16-7.96,5.02-8.78-.31-17.57-.08-26.36-.11-1.71,0-3.42-.16-6.02-.3Z"/>
</svg>