<?xml version="1.0" encoding="UTF-8"?><svg id="Layer_1" xmlns="http://www.w3.org/2000/svg" viewBox="0 0 147.72 152.52"><defs><style>.cls-1{fill:#352506;stroke-width:0px;}</style></defs><path class="cls-1" d="m51.16,5.54c.75-.67,1.43-1.36,2.18-1.95C56.35,1.2,59.79-.02,63.67-.02c7.21,0,14.41-.03,21.62,0,6.58.03,11.44,3.05,14.76,8.56,1.63,2.71,2.37,5.7,2.37,8.86,0,39.24-.01,78.49-.03,117.73-.01,7-3.26,12.32-9.55,15.7-2.22,1.19-4.65,1.72-7.19,1.72h-21.79c-4.9,0-8.99-1.82-12.34-5.3-.08-.09-.16-.18-.23-.28-.31.27-.57.5-.83.74-3.28,3.16-7.18,4.83-11.78,4.83-7.15,0-14.29.03-21.44,0-7-.03-12.02-3.32-15.28-9.32-1.36-2.49-1.95-5.2-1.95-8.03C0,95.9,0,56.61.03,17.32.05,9.92,3.65,4.45,10.52,1.25,12.5.33,14.63-.03,16.82-.03h21.7c4.81,0,8.85,1.74,12.2,5.12.14.15.29.3.43.45Zm45.94,70.72c0-19.51,0-39.03-.02-58.54,0-1.19-.15-2.38-.43-3.53-1.2-4.85-5.54-9.08-11.66-9-6.99.09-13.99.03-20.99.02-4.24,0-7.46,1.82-9.84,5.23-.21.3-.32.66-.31,1.03,0,9.04,0,18.07,0,27.11,0,.18,0,.35,0,.53-.09,1.34-1.05,2.34-2.4,2.5-.61.06-1.22-.08-1.73-.41-.51-.33-.88-.83-1.06-1.41-.09-.34-.14-.69-.13-1.04,0-9.11-.01-18.22-.01-27.33,0-.23-.01-.49-.13-.67-2.25-3.46-5.39-5.47-9.62-5.51-7.31-.05-14.62-.02-21.93-.01-2.25,0-4.34.62-6.18,1.91-3.63,2.54-5.37,6.09-5.37,10.43-.02,39.13-.02,78.26,0,117.39,0,.9.09,1.79.26,2.67,1.02,5.28,5.56,9.81,11.84,9.71,6.99-.1,13.99-.03,20.99-.02,4.28,0,7.52-1.85,9.87-5.32.16-.25.25-.55.26-.85.01-20.28.02-40.56.01-60.84,0-.31,0-.62,0-.93.02-.56.22-1.11.58-1.55.36-.44.85-.76,1.4-.9,1.77-.47,3.35.83,3.35,2.77v60.44c0,.4-.01.79,0,1.19,0,.17.05.34.14.49,2.26,3.44,5.41,5.45,9.64,5.47,7.28.05,14.56.02,21.84.01,2.47,0,4.71-.72,6.66-2.21,3.39-2.59,4.95-6.07,4.95-10.25.01-19.52.01-39.05,0-58.57h0Z"/><path class="cls-1" d="m105.22,110.46c0-2.15-.07-4.3.02-6.45.18-4.49,2.05-8.27,5.24-11.42,3.33-3.29,7.4-5.23,12.03-5.97,5.63-.9,10.97-.03,15.9,2.86,4.06,2.38,7.01,5.71,8.52,10.19.53,1.58.8,3.24.8,4.9,0,3.84-.03,7.68,0,11.52.04,3.49-1.16,6.51-3.43,9.14-2.77,3.21-6.32,5.23-10.39,6.33-7.17,1.93-14.07,1.3-20.56-2.43-3-1.72-5.38-4.09-6.89-7.22-.83-1.72-1.26-3.6-1.25-5.51v-5.96h.02Zm9.97,3.5c.27.21.46.37.66.51,4.48,3.15,9.44,4.01,14.75,2.88,3.83-.82,7.05-2.68,9.43-5.81,2.96-3.9,3.14-8.82.52-12.94-.08-.13-.18-.26-.29-.42l-25.08,15.78Zm21.16-19.55c-.21-.14-.38-.24-.54-.34-3.5-2.06-7.3-2.83-11.34-2.42-3.46.35-6.62,1.53-9.29,3.77-3.33,2.8-5.07,6.3-4.55,10.71.15,1.3.56,2.52,1.19,3.72l24.53-15.44Zm-25.77,22.49c.01,1.16.46,2.58,1.17,3.73,1.36,2.2,3.34,3.7,5.66,4.78,3.55,1.67,7.31,2.19,11.2,1.83,3.18-.29,6.18-1.18,8.85-2.94,2-1.31,3.6-2.95,4.42-5.23.24-.67.35-1.37.52-2.06l-.13-.07c-4.45,4.1-9.76,6.1-15.8,6.1-6.07,0-11.38-2-15.9-6.15Z"/><path class="cls-1" d="m43.68,24.14c0,8.51-7.01,15.44-15.62,15.44-8.64,0-15.66-6.9-15.68-15.43-.02-8.5,7.04-15.45,15.67-15.44,8.63.01,15.63,6.93,15.63,15.43Zm-15.66-10.18c-5.68,0-10.3,4.57-10.31,10.18,0,5.63,4.63,10.21,10.33,10.2,5.68,0,10.29-4.56,10.32-10.17.02-5.62-4.64-10.21-10.33-10.2Z"/><path class="cls-1" d="m90.01,24.17c0,2.03-.41,4.04-1.21,5.92-.79,1.88-1.95,3.58-3.42,5.01-1.46,1.43-3.2,2.57-5.1,3.34-1.91.77-3.95,1.16-6.01,1.15-8.58-.03-15.6-7-15.56-15.46.04-8.55,7.06-15.44,15.69-15.41,8.63.03,15.63,6.97,15.6,15.46Zm-25.97-.06c-.04,5.58,4.57,10.17,10.27,10.23,5.68.05,10.35-4.52,10.38-10.15.03-5.59-4.58-10.19-10.26-10.23-5.68-.04-10.35,4.52-10.39,10.15Z"/><path class="cls-1" d="m12.37,92.48c0-8.5,6.98-15.4,15.63-15.44,8.58-.04,15.68,6.91,15.68,15.34s-6.99,15.54-15.66,15.53c-8.62,0-15.63-6.93-15.64-15.43Zm25.98-.01c0-5.59-4.63-10.17-10.31-10.18-5.68-.01-10.34,4.57-10.34,10.15,0,5.65,4.61,10.22,10.3,10.23,5.69,0,10.34-4.57,10.34-10.2Z"/><path class="cls-1" d="m43.68,126.64c0,8.52-7.02,15.42-15.68,15.42-8.61,0-15.63-6.94-15.62-15.44,0-8.5,7.02-15.42,15.64-15.42,8.65,0,15.66,6.91,15.66,15.44Zm-5.32-.01c0-2.7-1.1-5.29-3.04-7.2-1.94-1.91-4.57-2.98-7.31-2.98-5.67,0-10.29,4.58-10.29,10.19s4.66,10.21,10.35,10.19c5.68-.02,10.3-4.6,10.3-10.19Z"/><path class="cls-1" d="m43.68,58.33c0,8.49-7.02,15.41-15.65,15.42-8.62,0-15.63-6.9-15.66-15.41-.02-8.52,7.03-15.47,15.7-15.45,8.62,0,15.61,6.93,15.61,15.45Zm-5.32-.03c-.02-5.64-4.69-10.22-10.36-10.19-5.69.04-10.31,4.62-10.29,10.2,0,1.34.27,2.67.8,3.91.52,1.24,1.29,2.36,2.26,3.31.97.95,2.11,1.69,3.37,2.2,1.26.51,2.61.76,3.97.76,5.65-.02,10.27-4.63,10.25-10.19Z"/><path class="cls-1" d="m90.02,58.36c-.01,8.51-7.07,15.41-15.72,15.38-8.59-.03-15.58-6.96-15.57-15.44.01-8.55,7.05-15.45,15.73-15.42,8.61.03,15.59,6.96,15.57,15.49Zm-25.98-.09c-.02,5.58,4.6,10.19,10.23,10.22,5.75.03,10.41-4.51,10.43-10.15.02-5.62-4.61-10.22-10.31-10.23-5.66-.02-10.33,4.57-10.34,10.16h0Z"/><path class="cls-1" d="m90.01,126.66c0,8.51-7.02,15.41-15.69,15.41-8.59,0-15.58-6.91-15.6-15.41-.02-8.51,7-15.45,15.65-15.45s15.64,6.91,15.65,15.45Zm-25.98-.06c0,5.62,4.62,10.22,10.31,10.23,5.69.02,10.34-4.57,10.34-10.2,0-5.58-4.62-10.17-10.26-10.18-5.71-.02-10.38,4.54-10.39,10.15Z"/><path class="cls-1" d="m90.01,92.48c-.04,8.54-7.02,15.43-15.63,15.43-8.67,0-15.71-6.98-15.66-15.49.05-8.52,7.08-15.42,15.68-15.38,8.65.04,15.66,6.97,15.62,15.45Zm-5.32,0c.02-5.59-4.6-10.18-10.28-10.21-5.69-.03-10.35,4.55-10.37,10.17-.01,5.59,4.62,10.19,10.29,10.21,2.74,0,5.37-1.06,7.31-2.97,1.94-1.91,3.04-4.5,3.05-7.2Z"/><path class="cls-1" d="m53.86,59.53c0,2.94,0,5.88,0,8.82,0,1.11-.52,1.96-1.55,2.43-1,.45-1.96.31-2.81-.37-.67-.53-.96-1.25-.96-2.1v-17.6c0-1.52,1.16-2.69,2.66-2.69,1.49,0,2.65,1.15,2.66,2.69.01,2.34,0,4.68,0,7.01v1.81Z"/></svg>