<svg width="149" height="153" viewBox="0 0 149 153" fill="none" xmlns="http://www.w3.org/2000/svg">
<path d="M52.0766 6.77064C52.813 6.10607 53.4841 5.43192 54.2249 4.84486C57.1969 2.48881 60.5928 1.27986 64.416 1.27986C71.5239 1.27986 78.6317 1.2546 85.7387 1.28683C92.2311 1.31732 97.0256 4.29439 100.296 9.72769C101.907 12.4034 102.631 15.3517 102.631 18.4656C102.631 57.1792 102.621 95.8928 102.602 134.606C102.591 141.507 99.3867 146.763 93.1803 150.093C90.987 151.269 88.5889 151.787 86.0875 151.788C78.9213 151.788 71.7549 151.788 64.5882 151.788C59.7549 151.793 55.7241 149.994 52.4113 146.562C52.3313 146.473 52.2558 146.381 52.1852 146.285C51.8841 146.555 51.6184 146.779 51.3694 147.019C48.1386 150.138 44.2863 151.782 39.7443 151.784C32.6956 151.784 25.6469 151.809 18.5991 151.778C11.6899 151.749 6.74355 148.504 3.52604 142.589C2.18923 140.132 1.60031 137.457 1.59943 134.663C1.59943 95.9064 1.61237 57.1493 1.63827 18.3915C1.65416 11.0864 5.20543 5.69321 11.9839 2.53933C13.9371 1.63087 16.0411 1.27202 18.2044 1.27289C25.3405 1.27289 32.4772 1.27289 39.6145 1.27289C44.3613 1.26593 48.3479 2.99312 51.6484 6.32469C51.7914 6.47276 51.9318 6.62083 52.0766 6.77064ZM97.3938 76.5377C97.3938 57.2898 97.3879 38.0407 97.3762 18.7904C97.3736 17.6166 97.2307 16.4472 96.9506 15.3064C95.77 10.5212 91.4841 6.34472 85.4482 6.42747C78.5479 6.52067 71.6457 6.45621 64.7436 6.44576C60.5593 6.43966 57.3815 8.24437 55.0399 11.6038C54.8302 11.9 54.7225 12.2548 54.7326 12.6159C54.7402 21.5286 54.7423 30.4418 54.7388 39.3556C54.7388 39.5298 54.7458 39.704 54.7388 39.8782C54.6505 41.203 53.7048 42.1855 52.3733 42.3414C51.775 42.4051 51.1729 42.2606 50.6711 41.9328C50.1694 41.605 49.7995 41.1146 49.6255 40.5463C49.5328 40.2109 49.489 39.8643 49.4957 39.5167C49.4893 30.5315 49.4857 21.5463 49.4851 12.561C49.4851 12.3381 49.4728 12.0742 49.3589 11.8982C47.1418 8.48651 44.0381 6.49802 39.8706 6.46405C32.6603 6.41005 25.4491 6.44402 18.238 6.45273C16.0138 6.45273 13.9574 7.06243 12.1455 8.3367C8.566 10.8461 6.84775 14.3466 6.84775 18.6241C6.82892 57.2233 6.82892 95.8219 6.84775 134.42C6.84919 135.305 6.93461 136.189 7.10292 137.058C8.10773 142.266 12.5844 146.736 18.7863 146.639C25.6866 146.536 32.5896 146.61 39.4909 146.617C43.7123 146.623 46.9078 144.788 49.2255 141.371C49.3881 141.12 49.4759 140.828 49.479 140.529C49.4907 120.526 49.4943 100.522 49.4896 80.5173C49.4896 80.2125 49.4816 79.9076 49.4896 79.6028C49.5084 79.0469 49.7082 78.5118 50.0593 78.0766C50.4104 77.6415 50.8942 77.3294 51.4391 77.1866C53.1847 76.725 54.7405 78.0088 54.7405 79.9146C54.7405 99.7873 54.7405 119.66 54.7405 139.533C54.7405 139.925 54.7282 140.317 54.7485 140.709C54.7515 140.88 54.7986 141.048 54.8853 141.197C57.1192 144.594 60.2246 146.574 64.394 146.597C71.5742 146.645 78.7562 146.615 85.9383 146.608C88.3717 146.608 90.5853 145.896 92.5093 144.425C95.8495 141.871 97.3876 138.433 97.3894 134.314C97.4 115.057 97.4015 95.7964 97.3938 76.5334V76.5377Z" fill="#131A22" stroke="#131A22" stroke-width="2"/>
<path d="M105.408 110.27C105.408 108.152 105.339 106.03 105.423 103.911C105.599 99.4833 107.442 95.7546 110.588 92.6468C113.876 89.398 117.886 87.4905 122.452 86.7615C128.005 85.8757 133.277 86.7319 138.138 89.5844C142.143 91.9361 145.053 95.2206 146.539 99.6383C147.063 101.198 147.328 102.83 147.325 104.473C147.325 108.261 147.292 112.051 147.332 115.837C147.37 119.283 146.185 122.262 143.947 124.853C141.218 128.017 137.714 130.011 133.699 131.093C126.63 132.996 119.818 132.372 113.422 128.698C110.462 126.998 108.118 124.668 106.629 121.577C105.807 119.881 105.385 118.024 105.393 116.145C105.393 114.185 105.393 112.226 105.393 110.267L105.408 110.27ZM115.246 113.723C115.511 113.927 115.699 114.087 115.901 114.229C120.316 117.335 125.21 118.187 130.455 117.07C134.229 116.266 137.411 114.431 139.755 111.341C142.674 107.492 142.856 102.642 140.271 98.5714C140.188 98.4399 140.095 98.3144 139.985 98.1542L115.246 113.723ZM136.121 94.4394C135.909 94.3052 135.751 94.2016 135.592 94.1058C132.136 92.0694 128.388 91.3186 124.407 91.7218C120.989 92.0702 117.873 93.2295 115.245 95.4427C111.96 98.2047 110.246 101.657 110.752 106.003C110.901 107.281 111.309 108.484 111.926 109.669L136.121 94.4394ZM110.701 116.627C110.711 117.772 111.156 119.171 111.86 120.306C113.203 122.474 115.158 123.953 117.444 125.026C120.947 126.671 124.655 127.185 128.494 126.833C131.632 126.545 134.587 125.669 137.228 123.935C139.196 122.646 140.781 121.021 141.587 118.78C141.824 118.124 141.935 117.426 142.103 116.747L141.97 116.679C137.576 120.721 132.346 122.694 126.384 122.698C120.398 122.706 115.155 120.729 110.701 116.627Z" fill="#131A22" stroke="#131A22" stroke-width="2"/>
<path d="M44.6933 25.1147C44.6933 33.5051 37.7753 40.3424 29.283 40.3485C20.7562 40.3546 13.8311 33.5399 13.8135 25.1243C13.7949 16.7409 20.7597 9.88182 29.2733 9.89314C37.7868 9.90446 44.6951 16.7305 44.6933 25.1147ZM29.2485 15.0678C23.6488 15.0678 19.0847 19.5743 19.0768 25.1052C19.0689 30.6543 23.6453 35.1748 29.2635 35.1687C34.8677 35.1617 39.4176 30.6735 39.4414 25.1339C39.4653 19.5943 34.8642 15.066 29.2485 15.0678Z" fill="#131A22" stroke="#131A22" stroke-width="2"/>
<path d="M90.4043 25.1409C90.4004 27.1456 89.9955 29.1298 89.2127 30.9799C88.43 32.8299 87.2849 34.5094 85.8429 35.9221C84.401 37.3347 82.6907 38.4528 80.8099 39.2123C78.9291 39.9717 76.9149 40.3575 74.8827 40.3477C66.4195 40.3172 59.4971 33.4398 59.5333 25.0973C59.5704 16.6678 66.4999 9.86182 75.0143 9.89317C83.5287 9.92453 90.4343 16.7662 90.4043 25.1409ZM64.7816 25.0834C64.7436 30.589 69.29 35.1173 74.9119 35.1705C80.5107 35.221 85.1233 30.7127 85.1542 25.1583C85.1851 19.6449 80.6334 15.1087 75.0293 15.0695C69.4251 15.0303 64.8196 19.5282 64.7816 25.0834Z" fill="#131A22" stroke="#131A22" stroke-width="2"/>
<path d="M13.8135 92.5275C13.8073 84.1468 20.7006 77.3347 29.2291 77.2964C37.6897 77.2589 44.6933 84.1128 44.6933 92.4308C44.6933 100.921 37.7974 107.76 29.2415 107.749C20.7385 107.741 13.8205 100.914 13.8135 92.5275ZM39.4406 92.5162C39.4406 86.9984 34.873 82.4814 29.2715 82.4692C23.67 82.457 19.075 86.9793 19.0759 92.4857C19.0759 98.0549 23.6232 102.568 29.2406 102.574C34.858 102.58 39.4361 98.0688 39.4406 92.5162Z" fill="#131A22" stroke="#131A22" stroke-width="2"/>
<path d="M44.6933 126.233C44.6933 134.637 37.7656 141.448 29.2256 141.444C20.7279 141.439 13.8073 134.602 13.8135 126.216C13.8196 117.83 20.7421 111.004 29.2423 111.001C37.7744 111 44.6951 117.821 44.6933 126.233ZM39.4406 126.221C39.4356 123.554 38.3578 120.998 36.4437 119.114C34.5295 117.23 31.9357 116.172 29.2317 116.173C23.6338 116.181 19.0777 120.693 19.0777 126.226C19.0777 131.758 23.6788 136.301 29.2838 136.277C34.8889 136.253 39.4459 131.74 39.4406 126.221Z" fill="#131A22" stroke="#131A22" stroke-width="2"/>
<path d="M44.6933 58.8407C44.6933 67.218 37.7656 74.0431 29.2582 74.0484C20.7509 74.0536 13.8399 67.238 13.8134 58.8451C13.7896 50.4356 20.7465 43.586 29.298 43.6026C37.7965 43.6104 44.6942 50.439 44.6933 58.8407ZM39.4406 58.812C39.4194 53.2532 34.8165 48.7267 29.2247 48.7641C23.6108 48.8016 19.0521 53.3221 19.0706 58.8303C19.0727 60.1546 19.34 61.4655 19.8571 62.6877C20.3743 63.9098 21.1311 65.0191 22.0842 65.9519C23.0372 66.8847 24.1677 67.6225 25.4107 68.123C26.6536 68.6236 27.9846 68.8769 29.3271 68.8685C34.896 68.8459 39.4626 64.3027 39.4406 58.812Z" fill="#131A22" stroke="#131A22" stroke-width="2"/>
<path d="M90.4061 58.8747C90.3919 67.2676 83.4307 74.0727 74.8942 74.0466C66.423 74.0205 59.5218 67.1762 59.5306 58.8111C59.5421 50.3789 66.4822 43.5729 75.0434 43.5991C83.541 43.6243 90.4211 50.4669 90.4061 58.8747ZM64.7807 58.7876C64.7639 64.2932 69.3183 68.8441 74.8686 68.8703C80.5381 68.8964 85.1365 64.4203 85.1542 58.8581C85.1719 53.3142 80.6025 48.7798 74.9842 48.7667C69.4013 48.751 64.7975 53.2733 64.7807 58.7858V58.7876Z" fill="#131A22" stroke="#131A22" stroke-width="2"/>
<path d="M90.4052 126.247C90.4052 134.643 83.4783 141.446 74.926 141.444C66.4548 141.444 59.5536 134.628 59.5333 126.246C59.513 117.848 66.4425 111.003 74.971 111.003C83.4995 111.003 90.4034 117.82 90.4052 126.247ZM64.7807 126.184C64.771 131.732 69.335 136.261 74.9525 136.278C80.5699 136.294 85.1542 131.765 85.1551 126.221C85.1551 120.715 80.5999 116.192 75.0337 116.175C69.4004 116.158 64.7913 120.657 64.7807 126.184Z" fill="#131A22" stroke="#131A22" stroke-width="2"/>
<path d="M90.4043 92.5336C90.3663 100.958 83.4774 107.755 74.9816 107.75C66.4301 107.744 59.482 100.869 59.5297 92.4683C59.5774 84.0675 66.5122 77.2606 74.9992 77.2972C83.5295 77.3329 90.4431 84.1729 90.4043 92.5336ZM85.1542 92.5406C85.1727 87.0237 80.6202 82.5032 75.0116 82.4692C69.403 82.4352 64.7975 86.9618 64.7869 92.504C64.7728 98.0209 69.3456 102.558 74.9348 102.573C77.6378 102.577 80.232 101.523 82.1479 99.6417C84.0639 97.7608 85.1451 95.207 85.1542 92.5406Z" fill="#131A22" stroke="#131A22" stroke-width="2"/>
<path d="M54.7405 60.0271C54.7405 62.9284 54.7485 65.8297 54.7405 68.731C54.7361 69.8302 54.2249 70.6628 53.2068 71.1245C52.2241 71.5695 51.2758 71.4311 50.437 70.7595C49.7792 70.2369 49.4913 69.5227 49.4913 68.6918C49.4913 62.9037 49.4913 57.1159 49.4913 51.3284C49.4913 49.8242 50.6392 48.6718 52.1128 48.671C53.5865 48.6701 54.7317 49.8102 54.7397 51.324C54.752 53.6296 54.7397 55.9403 54.7397 58.2432L54.7405 60.0271Z" fill="#131A22" stroke="#131A22" stroke-width="2"/>
</svg>
