<svg width="152" height="148" viewBox="0 0 152 148" fill="none" xmlns="http://www.w3.org/2000/svg">
<path d="M103.141 50.1766C102.997 48.1289 102.764 46.286 102.753 44.4277C102.716 35.8222 102.753 27.2167 102.753 18.6061C102.753 13.0158 106.569 9.35042 112.364 9.3453C116.91 9.3453 121.458 9.3453 126.008 9.3453C131.803 9.3453 135.614 13.0312 135.619 18.6112C135.619 27.2218 135.646 35.8273 135.619 44.4379C135.619 46.2911 135.37 48.1494 135.226 50.1766C135.757 50.1766 136.495 50.1766 137.248 50.1766C142.253 50.2432 146 53.7601 146.021 58.5671C146.063 69.0582 146.063 79.5459 146.021 90.0301C146.021 91.3714 145.543 92.7126 145.262 94.2023C145.692 94.4941 146.35 94.8832 146.939 95.3542C147.923 96.1182 148.712 97.0894 149.246 98.1933C149.781 99.2972 150.046 100.504 150.022 101.723C150.049 108.782 150.081 115.847 150.022 122.906C149.98 127.821 146.249 131.404 141.17 131.291C139.154 131.245 138.214 131.768 137.243 133.6C132.844 141.858 125.642 146.168 116.015 145.851C106.564 145.538 99.8132 140.854 95.8489 132.541C95.7202 132.141 95.4497 131.798 95.0848 131.571C94.7199 131.345 94.284 131.249 93.8535 131.302C86.8802 131.348 79.9069 131.338 72.9336 131.302C72.5782 131.27 72.2207 131.336 71.9024 131.492C71.5842 131.648 71.318 131.887 71.1345 132.182C68.1588 136.437 64.1458 139.922 59.4477 142.331C54.7497 144.74 49.5103 145.999 44.1898 145.999C38.8692 145.998 33.6301 144.738 28.9326 142.328C24.235 139.918 20.2227 136.432 17.2478 132.177C17.0836 131.893 16.8371 131.66 16.5384 131.508C16.2397 131.357 15.9017 131.292 15.5655 131.322C13.9735 131.384 12.3814 131.358 10.7574 131.322C5.85383 131.266 2.08591 127.739 2.03814 123.003C1.96385 115.901 1.96385 108.797 2.03814 101.692C2.06999 97.5964 4.43158 94.9805 8.8894 93.501C8.8098 90.3885 8.67713 87.3579 8.67182 84.3477C8.65059 69.0957 8.65059 53.8454 8.67182 38.5968C8.67182 36.2368 8.84695 33.8769 8.94247 31.3786C8.65059 31.2865 8.07213 31.1278 7.52021 30.9179C5.89369 30.305 4.49803 29.2308 3.51741 27.8371C2.5368 26.4433 2.01732 24.7955 2.02753 23.111C1.98508 18.8518 1.98508 14.5857 2.02753 10.3128C2.00717 9.20057 2.22016 8.09581 2.65368 7.06496C3.08721 6.03412 3.73232 5.09846 4.55025 4.31424C5.36818 3.53002 6.34204 2.91341 7.41329 2.50149C8.48455 2.08957 9.63108 1.89084 10.784 1.91724C34.0461 1.91724 57.3064 1.91724 80.5649 1.91724C81.7185 1.88623 82.8665 2.08238 83.9389 2.49371C85.0112 2.90503 85.9854 3.5229 86.8019 4.30958C87.6184 5.09625 88.2601 6.03523 88.6879 7.06916C89.1156 8.10309 89.3203 9.21027 89.2896 10.3231C89.3161 14.4595 89.2896 18.5958 89.2896 22.7322C89.2896 27.9487 85.6808 31.435 80.2678 31.5015H79.2382C80.151 37.916 79.3603 44.2997 79.7318 50.5606C85.458 49.7108 91.216 50.2943 96.9528 50.1408C99.0756 50.1254 101.193 50.1766 103.141 50.1766ZM110.316 55.173H83.8181C81.0054 55.173 79.6734 56.458 79.6734 59.1609C79.6734 69.2732 79.6734 79.382 79.6734 89.4875C79.6734 92.1137 81.0001 93.3935 83.7597 93.3935C101.425 93.3935 119.092 93.3935 136.76 93.3935C139.53 93.3935 140.809 92.1546 140.809 89.4772C140.809 79.4128 140.809 69.3449 140.809 59.2736C140.809 56.3658 139.562 55.1781 136.564 55.1781L110.316 55.173ZM74.4938 62.5448C74.4938 53.4325 74.4938 44.3236 74.4938 35.2181C74.4938 32.8991 73.1034 31.5527 70.7153 31.5476H17.6989C15.2153 31.5476 13.862 32.8684 13.862 35.2847C13.862 53.4171 13.862 71.5479 13.862 89.6769C13.862 91.4226 14.6156 92.8201 16.0856 93.1222C17.7414 93.4549 19.4449 93.9771 21.0052 92.4464C24.0001 89.503 27.5683 87.1593 31.505 85.5501C35.4417 83.9408 39.6691 83.0977 43.9446 83.0692C48.22 83.0406 52.4592 83.8272 56.4185 85.3838C60.3779 86.9403 63.9795 89.2361 67.0163 92.1393C67.4265 92.579 67.9348 92.9232 68.5029 93.1458C69.071 93.3684 69.6842 93.4636 70.296 93.4242C73.2414 93.3269 74.4991 92.1853 74.4991 89.3646L74.4938 62.5448ZM44.1063 140.921C49.5322 140.934 54.8401 139.394 59.358 136.495C63.8759 133.597 67.4005 129.47 69.4857 124.638C71.5708 119.806 72.1227 114.485 71.0713 109.351C70.02 104.216 67.4128 99.4972 63.5798 95.7926C59.7468 92.088 54.8605 89.5639 49.5394 88.5397C44.2184 87.5156 38.702 88.0377 33.6887 90.0397C28.6754 92.0417 24.3907 95.4337 21.3771 99.7862C18.3634 104.139 16.7565 109.256 16.7596 114.49C16.7722 121.487 19.6557 128.195 24.7799 133.148C29.9042 138.101 36.8525 140.895 44.1063 140.921ZM45.7461 6.94437H11.3253C8.5073 6.94437 7.21772 8.19858 7.21241 10.9425C7.21241 14.8263 7.21241 18.7102 7.21241 22.594C7.21241 25.2253 8.56568 26.5307 11.2722 26.5307C34.2194 26.5307 57.1666 26.5307 80.1139 26.5307C82.7673 26.5307 84.1206 25.2509 84.1259 22.7066C84.1259 18.8228 84.1259 14.939 84.1259 11.0551C84.1259 8.11668 82.9265 6.95972 79.8803 6.95972L45.7461 6.94437ZM72.2118 98.3797C77.4498 107.492 78.1344 116.717 74.4567 126.259H93.9862C93.4555 119.66 95.2599 113.85 99.8769 109.002C104.494 104.154 110.353 101.738 117.225 101.804C129.707 101.927 141.053 112.632 139.615 126.203C143.075 126.766 144.805 125.415 144.805 122.148C144.805 115.633 144.805 109.115 144.805 102.593C144.805 99.5213 143.585 98.3797 140.379 98.3797H72.2118ZM116.679 140.921C120.179 140.938 123.606 139.953 126.526 138.091C129.446 136.229 131.728 133.573 133.083 130.459C134.438 127.346 134.805 123.914 134.138 120.6C133.47 117.285 131.799 114.235 129.334 111.837C126.87 109.439 123.723 107.8 120.293 107.128C116.862 106.455 113.302 106.779 110.063 108.059C106.824 109.339 104.051 111.517 102.095 114.317C100.139 117.118 99.0882 120.415 99.0756 123.792C99.0698 128.311 100.918 132.648 104.216 135.858C107.514 139.067 111.994 140.887 116.679 140.921ZM130.413 32.3564C130.413 27.7662 130.413 23.1707 130.413 18.5702C130.413 15.7853 128.906 14.3468 125.987 14.3366C121.423 14.34 116.875 14.3417 112.343 14.3417C109.435 14.3417 107.922 15.8058 107.917 18.5805C107.917 27.6894 107.917 36.7982 107.917 45.9071C107.917 48.7279 109.392 50.1715 112.279 50.1766C116.879 50.1766 121.469 50.1766 126.051 50.1766C128.938 50.1766 130.402 48.733 130.408 45.9071C130.418 41.3851 130.42 36.8682 130.413 32.3564ZM16.0644 98.4923C13.9098 98.4923 11.8825 98.3694 9.8818 98.5332C8.41178 98.651 7.26548 100.013 7.22833 101.549C7.17526 108.715 7.17526 115.901 7.22833 123.106C7.22277 123.894 7.52201 124.656 8.06762 125.243C8.61322 125.83 9.36601 126.199 10.179 126.28C11.3624 126.397 12.5724 126.28 13.8938 126.28C10.2055 116.691 10.9113 107.466 16.0644 98.4923Z" fill="#131A22" stroke="#131A22" stroke-width="3"/>
<path d="M50.9723 114.538C50.9578 117.834 48.2869 120.389 44.8579 120.389C41.3713 120.389 38.7292 117.82 38.758 114.461C38.7797 111.179 41.5084 108.526 44.8507 108.54C48.2075 108.554 50.9795 111.27 50.9723 114.538Z" fill="#131A22" stroke="#131A22" stroke-width="2"/>
</svg>
