<svg width="123" height="144" viewBox="0 0 123 144" fill="none" xmlns="http://www.w3.org/2000/svg">
<g clip-path="url(#clip0_428_1630)">
<path d="M0.246292 79.1014C0.246292 79.566 0.246292 80.0306 0.246292 80.4951C0.270319 85.1751 3.26575 88.802 7.99436 89.8319C8.50374 89.9434 8.68155 90.1602 8.73922 90.6418C8.96187 92.4878 9.21977 94.3276 9.47766 96.1689C10.9546 106.884 12.4362 117.599 13.9228 128.312C14.2687 130.761 14.5523 133.249 15.2507 135.613C16.4873 139.794 19.9713 143.886 26.6237 143.766C37.1365 143.576 47.6574 143.715 58.1798 143.715C70.6453 143.715 83.1113 143.715 95.5778 143.715C99.1387 143.715 101.899 142.278 103.973 139.534C105.353 137.715 106.272 135.608 106.655 133.383C109.118 119.238 111.564 105.094 113.991 90.95C114.105 90.2887 114.3 89.9635 115.064 89.821C119.106 89.0684 122.24 85.8689 122.644 81.923C122.849 79.933 122.732 77.9074 122.66 75.9003C122.634 75.1709 122.599 74.4493 122.34 73.7508C121.148 70.4677 118.667 69.2598 118.667 69.2598C116.414 68.0999 114.88 67.7437 112.703 67.7499C105.953 67.7731 99.2044 67.7592 92.4543 67.7592L86.9744 67.7328C85.1691 67.7669 83.3606 67.753 81.5554 67.753L81.4753 67.5578L88.7268 60.733L94.3588 55.4382C96.0231 53.823 97.6971 52.2341 99.411 50.6854L104.327 46.0132C108.501 42.09 112.669 38.1668 116.829 34.2436C119.248 31.9516 119.352 28.0831 117.089 25.8484C114.585 23.3706 110.71 23.2668 108.176 25.6269C105.695 27.936 103.239 30.2728 100.771 32.5881C99.9589 33.3515 99.1419 34.1088 98.1728 35.0117L93.5403 39.3757C91.49 41.3162 89.43 43.252 87.3492 45.2187L83.6153 48.7202C80.0732 52.0787 76.5224 55.4284 72.9631 58.7693C72.0117 59.6644 71.057 60.5564 69.9965 61.5569L66.4725 64.8926C65.5515 65.715 64.6785 66.5868 63.7654 67.4185C63.5798 67.5943 63.3394 67.7059 63.0814 67.7359C61.9377 67.7684 60.7908 67.7499 59.5862 67.7499L54.6205 67.77C53.6594 67.77 52.6567 67.753 51.5947 67.753H46.7892C35.1807 67.753 23.5962 67.739 11.9621 67.753C7.83098 67.7576 -0.00839975 66.336 0.246292 79.1014ZM64.5375 71.9498C69.7541 67.0354 74.9724 62.1237 80.1922 57.2145C88.3146 49.5673 96.437 41.9191 104.559 34.2699L110.118 29.0308C110.366 28.797 110.611 28.5663 110.871 28.3371C111.901 27.4512 113.273 27.4667 114.178 28.368C115.083 29.2693 115.051 30.66 114.039 31.6202C112.001 33.5549 109.958 35.4825 107.909 37.4028C101.834 43.1265 95.7578 48.8508 89.6815 54.5756C81.636 62.1515 73.5889 69.7264 65.5402 77.3003C64.4318 78.3441 63.3617 79.4281 62.2084 80.4239C61.7183 80.8467 61.0583 81.0852 60.7043 81.2819C59.4308 81.1735 58.6956 80.7832 58.2887 79.9191C57.8819 79.0549 58.0469 78.0994 58.8173 77.3623C60.7123 75.5457 62.6265 73.7493 64.5375 71.9498ZM67.3503 90.0487C67.6402 90.0611 67.8757 90.0487 68.1416 90.0487H110.42C110.14 91.7119 109.885 93.259 109.62 94.8046C107.499 107.12 105.377 119.437 103.255 131.753C102.914 133.734 102.312 135.617 101.061 137.26C99.7042 139.04 97.9181 139.957 95.5906 139.955C72.4174 139.943 49.2442 139.947 26.0711 139.967C22.7328 139.967 20.6008 138.436 19.1832 135.687C18.1484 133.674 18.0411 131.459 17.7415 129.293C16.5241 120.547 15.3169 111.801 14.1198 103.054C13.5549 98.9368 12.9915 94.8185 12.4298 90.6991C12.4058 90.5241 12.4026 90.346 12.3818 90.0487H67.3503ZM54.2041 86.2561H10.2369C6.60237 86.2561 4.14996 83.8929 4.14996 80.3898C4.14996 79.2795 4.14035 78.1691 4.14996 77.0603C4.16046 75.6376 4.73192 74.2723 5.74782 73.2429C6.76373 72.2136 8.14754 71.5977 9.61702 71.5208C10.0703 71.4945 10.5253 71.5022 10.9786 71.5022H59.386C58.9054 71.9776 58.5578 72.3416 58.191 72.69C57.4686 73.3792 56.7238 74.0435 56.0125 74.7435C54.8713 75.8561 54.2212 77.3535 54.1991 78.9203C54.177 80.4871 54.7846 82.001 55.894 83.1433C58.1766 85.488 62.0739 85.6862 64.5615 83.4407C67.778 80.5354 70.8904 77.5202 74.046 74.5515C74.983 73.6688 75.8993 72.7643 76.8636 71.9188C77.1309 71.6849 77.4728 71.5461 77.8327 71.5254C89.5795 71.5058 101.326 71.5058 113.073 71.5254C116.419 71.5347 118.84 73.9723 118.877 77.2058C118.889 78.3936 118.901 79.5815 118.877 80.7677C118.804 83.8929 116.293 86.2638 113.055 86.2638C98.1328 86.2638 83.2101 86.2638 68.2874 86.2638C67.9414 86.2638 67.5954 86.2545 67.2558 86.2545L54.0118 86.2638" fill="#131A22"/>
<path d="M54.2041 86.2561H10.2369C6.60237 86.2561 4.14996 83.8929 4.14996 80.3898C4.14996 79.2795 4.14035 78.1691 4.14996 77.0603C4.16046 75.6376 4.73192 74.2723 5.74782 73.2429C6.76373 72.2136 8.14754 71.5977 9.61702 71.5208C10.0703 71.4945 10.5253 71.5022 10.9786 71.5022H59.386C58.9054 71.9776 58.5578 72.3416 58.191 72.69C57.4686 73.3792 56.7238 74.0435 56.0125 74.7435C54.8713 75.8561 54.2212 77.3535 54.1991 78.9203C54.177 80.4871 54.7846 82.001 55.894 83.1433C58.1766 85.488 62.0739 85.6862 64.5615 83.4407C67.778 80.5354 70.8904 77.5202 74.046 74.5515C74.983 73.6688 75.8993 72.7643 76.8636 71.9188C77.1309 71.6849 77.4728 71.5461 77.8327 71.5254C89.5795 71.5058 101.326 71.5058 113.073 71.5254C116.419 71.5347 118.84 73.9723 118.877 77.2058C118.889 78.3936 118.901 79.5815 118.877 80.7677C118.804 83.8929 116.293 86.2638 113.055 86.2638C98.1328 86.2638 83.2101 86.2638 68.2874 86.2638C67.9414 86.2638 67.5954 86.2545 67.2558 86.2545L54.0118 86.2638M0.246292 79.1014C0.246292 79.566 0.246292 80.0306 0.246292 80.4951C0.270319 85.1751 3.26575 88.802 7.99436 89.8319C8.50374 89.9434 8.68155 90.1602 8.73922 90.6418C8.96187 92.4878 9.21977 94.3276 9.47766 96.1689C10.9546 106.884 12.4362 117.599 13.9228 128.312C14.2687 130.761 14.5523 133.249 15.2507 135.613C16.4873 139.794 19.9713 143.886 26.6237 143.766C37.1365 143.576 47.6574 143.715 58.1798 143.715C70.6453 143.715 83.1113 143.715 95.5778 143.715C99.1387 143.715 101.899 142.278 103.973 139.534C105.353 137.715 106.272 135.608 106.655 133.383C109.118 119.238 111.564 105.094 113.991 90.95C114.105 90.2887 114.3 89.9635 115.064 89.821C119.106 89.0684 122.24 85.8689 122.644 81.923C122.849 79.933 122.732 77.9074 122.66 75.9003C122.634 75.1709 122.599 74.4493 122.34 73.7508C121.148 70.4677 118.667 69.2598 118.667 69.2598C116.414 68.0999 114.88 67.7437 112.703 67.7499C105.953 67.7731 99.2044 67.7592 92.4543 67.7592L86.9744 67.7328C85.1691 67.7669 83.3606 67.753 81.5554 67.753L81.4753 67.5578L88.7268 60.733L94.3588 55.4382C96.0231 53.823 97.6971 52.2341 99.411 50.6854L104.327 46.0132C108.501 42.09 112.669 38.1668 116.829 34.2436C119.248 31.9516 119.352 28.0831 117.089 25.8484C114.585 23.3706 110.71 23.2668 108.176 25.6269C105.695 27.936 103.239 30.2728 100.771 32.5881C99.9589 33.3515 99.1419 34.1088 98.1728 35.0117L93.5403 39.3757C91.49 41.3162 89.43 43.252 87.3492 45.2187L83.6153 48.7202C80.0732 52.0787 76.5224 55.4284 72.9631 58.7693C72.0117 59.6644 71.057 60.5564 69.9965 61.5569L66.4725 64.8926C65.5515 65.715 64.6785 66.5868 63.7654 67.4185C63.5798 67.5943 63.3394 67.7059 63.0814 67.7359C61.9377 67.7684 60.7908 67.7499 59.5862 67.7499L54.6205 67.77C53.6594 67.77 52.6567 67.753 51.5947 67.753H46.7892C35.1807 67.753 23.5962 67.739 11.9621 67.753C7.83098 67.7576 -0.00839976 66.336 0.246292 79.1014ZM64.5375 71.9498C69.7541 67.0354 74.9724 62.1237 80.1922 57.2145C88.3146 49.5673 96.437 41.9191 104.559 34.2699L110.118 29.0308C110.366 28.797 110.611 28.5663 110.871 28.3371C111.901 27.4512 113.273 27.4667 114.178 28.368C115.083 29.2693 115.051 30.66 114.039 31.6202C112.001 33.5549 109.958 35.4825 107.909 37.4028C101.834 43.1265 95.7578 48.8508 89.6815 54.5756C81.636 62.1515 73.5889 69.7264 65.5402 77.3003C64.4318 78.3441 63.3617 79.4281 62.2084 80.4239C61.7183 80.8467 61.0583 81.0852 60.7043 81.2819C59.4308 81.1735 58.6956 80.7832 58.2887 79.9191C57.8819 79.0549 58.0469 78.0994 58.8173 77.3623C60.7123 75.5457 62.6265 73.7493 64.5375 71.9498ZM67.3503 90.0487C67.6402 90.0611 67.8757 90.0487 68.1416 90.0487H110.42C110.14 91.7119 109.885 93.259 109.62 94.8046C107.499 107.12 105.377 119.437 103.255 131.753C102.914 133.734 102.312 135.617 101.061 137.26C99.7042 139.04 97.9181 139.957 95.5906 139.955C72.4174 139.943 49.2442 139.947 26.0711 139.967C22.7328 139.967 20.6008 138.436 19.1832 135.687C18.1484 133.674 18.0411 131.459 17.7415 129.293C16.5241 120.547 15.3169 111.801 14.1198 103.054C13.5549 98.9368 12.9915 94.8185 12.4298 90.6991C12.4058 90.5241 12.4026 90.346 12.3818 90.0487H67.3503Z" stroke="#131A22" stroke-width="3" stroke-miterlimit="10"/>
<path d="M30.9487 112.488C30.9487 117.212 30.9487 121.935 30.9487 126.658C30.9587 126.942 30.9485 127.226 30.9183 127.509C30.8589 127.948 30.6383 128.352 30.2967 128.647C29.9551 128.943 29.5151 129.109 29.057 129.118C28.5986 129.133 28.1498 128.988 27.7929 128.71C27.4361 128.431 27.195 128.038 27.1139 127.602C27.0692 127.294 27.0536 126.983 27.0675 126.672C27.0675 117.251 27.0675 107.831 27.0675 98.4112C27.0675 98.2053 27.0563 97.9978 27.0675 97.7918C27.1492 96.7511 27.9597 95.9938 28.9897 95.9845C29.4901 95.9782 29.9731 96.1621 30.3347 96.4966C30.6963 96.8312 30.9076 97.2896 30.9231 97.7732C30.968 98.5971 30.9391 99.4256 30.9391 100.251C30.9455 104.331 30.9487 108.41 30.9487 112.488Z" fill="#131A22" stroke="#131A22" stroke-width="3" stroke-miterlimit="10"/>
<path d="M52.34 112.521C52.34 107.721 52.34 102.92 52.34 98.1185C52.34 97.369 52.5499 96.7449 53.205 96.3128C53.482 96.1304 53.8035 96.0211 54.1377 95.9959C54.4719 95.9707 54.807 96.0303 55.11 96.169C55.4129 96.3077 55.6731 96.5206 55.8646 96.7865C56.0562 97.0524 56.1725 97.3621 56.202 97.6849C56.2229 97.8893 56.2133 98.0968 56.2133 98.3044V126.878C56.2133 127.033 56.2133 127.188 56.2133 127.343C56.1949 127.826 55.9814 128.282 55.6188 128.615C55.2561 128.947 54.7731 129.129 54.2734 129.121C53.7723 129.125 53.2899 128.937 52.9316 128.598C52.5732 128.26 52.368 127.798 52.3608 127.313C52.3288 125.765 52.3512 124.216 52.3512 122.668C52.3427 119.28 52.339 115.898 52.34 112.521Z" fill="#131A22" stroke="#131A22" stroke-width="3" stroke-miterlimit="10"/>
<path d="M68.8582 112.53C68.8582 117.254 68.8582 121.977 68.8582 126.7C68.8703 126.984 68.8591 127.267 68.8246 127.549C68.7506 127.986 68.5186 128.384 68.1698 128.671C67.8211 128.958 67.3782 129.117 66.92 129.118C66.46 129.124 66.013 128.97 65.6603 128.684C65.3076 128.399 65.0725 128 64.9978 127.561C64.9566 127.228 64.9427 126.893 64.9561 126.558C64.9561 117.215 64.9561 107.872 64.9561 98.5275C64.9473 98.2438 64.9553 97.96 64.9802 97.6773C65.0315 97.2103 65.2606 96.7786 65.623 96.466C65.9854 96.1534 66.4552 95.9824 66.9408 95.9861C67.426 95.9981 67.8893 96.1845 68.24 96.509C68.5907 96.8334 68.8037 97.2726 68.8374 97.7407C68.8598 97.9978 68.8502 98.2564 68.8502 98.5151L68.8582 112.53Z" fill="#131A22" stroke="#131A22" stroke-width="3" stroke-miterlimit="10"/>
<path d="M81.4863 112.563C81.4863 117.39 81.4863 122.217 81.4863 127.042C81.4863 128.538 80.2352 129.48 78.9025 129.003C78.5561 128.896 78.2507 128.692 78.0255 128.416C77.8003 128.14 77.6655 127.805 77.6387 127.454C77.6183 127.197 77.6124 126.938 77.621 126.68V98.4174C77.621 98.2115 77.621 98.0039 77.621 97.798C77.6883 96.7526 78.4956 95.9907 79.5336 95.9876C79.7875 95.9854 80.0394 96.0318 80.2746 96.1242C80.5099 96.2166 80.7239 96.3531 80.9042 96.5259C81.0846 96.6987 81.2278 96.9043 81.3255 97.1309C81.4232 97.3575 81.4735 97.6005 81.4734 97.846C81.4975 99.4721 81.4734 101.098 81.4734 102.724L81.4863 112.563Z" fill="#131A22" stroke="#131A22" stroke-width="3" stroke-miterlimit="10"/>
<path d="M39.69 112.541C39.69 107.824 39.69 103.106 39.69 98.3865C39.6784 98.0016 39.7248 97.6171 39.8278 97.2452C39.9544 96.8607 40.2106 96.5283 40.5556 96.3012C40.9006 96.0741 41.3143 95.9653 41.7307 95.9923C42.1474 96.0093 42.5468 96.1576 42.8681 96.4146C43.1894 96.6716 43.415 97.0231 43.5104 97.4155C43.5748 97.7446 43.6016 98.0796 43.5905 98.4144C43.5905 107.825 43.5905 117.236 43.5905 126.648C43.5905 126.725 43.5905 126.802 43.5905 126.88C43.5728 128.274 42.82 129.132 41.6202 129.119C40.4205 129.107 39.6836 128.243 39.6836 126.852C39.6857 122.082 39.6879 117.312 39.69 112.541Z" fill="#131A22" stroke="#131A22" stroke-width="3" stroke-miterlimit="10"/>
<path d="M90.2658 112.507C90.2658 107.732 90.2658 102.957 90.2658 98.1835C90.2658 96.8378 91.009 95.9907 92.1783 95.9876C93.3477 95.9845 94.1342 96.8471 94.1358 98.1649C94.1358 107.766 94.1358 117.368 94.1358 126.97C94.1358 128.02 93.6985 128.698 92.8543 129C92.1063 129.271 91.1932 129.116 90.7575 128.483C90.4577 128.036 90.2914 127.519 90.277 126.987C90.2513 122.16 90.2658 117.332 90.2658 112.507Z" fill="#131A22" stroke="#131A22" stroke-width="3" stroke-miterlimit="10"/>
</g>
<defs>
<clipPath id="clip0_428_1630">
<rect width="123" height="144" fill="white"/>
</clipPath>
</defs>
</svg>
