<?xml version="1.0" encoding="UTF-8"?><svg id="Layer_1" xmlns="http://www.w3.org/2000/svg" viewBox="0 0 155.91 152.52"><defs><style>.cls-1{fill:#352506;stroke-width:0px;}</style></defs><path class="cls-1" d="m33.37,152.52c-7.02,0-12.38-3.94-14.33-10.54-.77-2.61-1.15-5.37-1.52-8.04l-.17-1.26c-1.89-13.58-3.76-27.17-5.64-40.76-.32-2.28-.65-4.64-.94-7.01-.06-.51-.21-.67-.72-.79C3.98,82.81.04,78.05,0,72.02v-1.77c-.11-5.63.97-9.53,3.31-11.92,2.43-2.48,5.71-2.81,8.61-2.81.61,0,1.2.02,1.77.03.5.01.98.03,1.43.03,4.94,0,9.85,0,14.76,0h35.52c.69,0,1.36.01,2.02.02.62,0,1.23.01,1.82.01l6.3-.03h2.38c.69,0,1.37,0,2.04-.02.24-.03.49-.14.68-.33.52-.48,1.03-.96,1.54-1.45.63-.59,1.25-1.19,1.89-1.76l4.46-4.22,3.76-3.54c4.51-4.24,9.02-8.48,13.51-12.74l4.74-4.44s6.4-6.04,7.85-7.41l5.87-5.53.95-.88c.84-.78,1.59-1.48,2.35-2.19,1.21-1.14,2.43-2.28,3.64-3.43,1.91-1.8,3.83-3.61,5.75-5.4,1.55-1.44,3.56-2.24,5.65-2.24,2.25,0,4.39.9,6.04,2.52,1.41,1.39,2.17,3.29,2.15,5.35-.02,2.15-.93,4.23-2.48,5.7-5.28,4.98-10.56,9.95-15.85,14.92l-6.23,5.92c-1.94,1.76-3.98,3.67-6.4,6.02l-16.08,15.13h2.73c1.26,0,2.53,0,3.79-.03l6.95.03h14c3.89,0,7.78,0,11.67-.01,2.91,0,4.9.51,7.69,1.95.13.06,3.26,1.63,4.79,5.85.36.96.39,1.99.42,2.81l.04.95c.09,2.21.17,4.5-.06,6.73-.52,5.06-4.57,9.28-9.84,10.26-.82.15-1,.43-1.13,1.2-3.03,17.67-6.16,35.77-9.3,53.8-.49,2.85-1.69,5.59-3.45,7.92-2.71,3.59-6.37,5.41-10.87,5.41h-47.42c-3.96,0-7.92-.02-11.88-.03-3.96-.02-7.91-.03-11.87-.03-6.3,0-11.46.04-16.26.13h-.36ZM15.98,84.44c.01.19.02.33.04.47.71,5.22,1.43,10.45,2.14,15.67,1.52,11.09,3.05,22.18,4.59,33.27.07.47.12.95.18,1.43.27,2.22.55,4.52,1.62,6.59,1.85,3.6,4.55,5.27,8.48,5.27,18.47-.02,36.93-.02,55.4-.02,10.92,0,21.83,0,32.75,0,2.82,0,5.02-1.08,6.71-3.31,1.37-1.79,2.23-3.97,2.73-6.86l8.07-46.85c.22-1.26.43-2.52.65-3.82l.31-1.88h-53.93c-.11,0-.23,0-.36,0H15.98v.03Zm70.58-5.4h56.76c3.96,0,7.01-2.88,7.1-6.69.03-1.47.01-2.94,0-4.41-.05-4.09-3.02-7.01-7.08-7.02-7.45-.01-14.89-.02-22.34-.02s-14.89,0-22.34.02c-.38.02-.75.17-1.04.43-.87.76-1.73,1.58-2.56,2.37l-1.01.96c-1.18,1.11-2.35,2.22-3.52,3.33-2.77,2.63-5.63,5.34-8.51,7.94-1.48,1.34-3.42,2.07-5.46,2.07-2.24,0-4.4-.9-5.92-2.46-1.47-1.51-2.26-3.48-2.23-5.56s.88-4.02,2.38-5.49c.54-.53,1.09-1.04,1.64-1.55.38-.35.75-.7,1.13-1.05.28-.26.55-.54.85-.84l.18-.18H13.26c-.36,0-.72,0-1.07.02-1.8.09-3.48.84-4.72,2.1-1.24,1.26-1.93,2.91-1.94,4.64,0,.94,0,1.87,0,2.81v1.41c0,4.28,2.99,7.16,7.44,7.16h55.75s16.55,0,16.55,0h1.31ZM142.68,5.33c-.68,0-1.37.27-1.94.76-.32.29-.63.58-.94.87l-7.05,6.64-30.9,29.09c-6.62,6.22-13.24,12.45-19.85,18.68l-1.07,1.01c-2.07,1.94-4.13,3.89-6.18,5.85-.87.83-1.09,1.9-.61,2.92.45.96,1.25,1.42,2.75,1.56.11-.06.25-.12.39-.19.43-.2.97-.46,1.39-.82,1-.86,1.96-1.79,2.9-2.69.44-.42.88-.85,1.32-1.26,10.21-9.6,20.41-19.21,30.61-28.81l23.11-21.77c2.6-2.43,5.19-4.88,7.77-7.33.58-.55.9-1.24.91-1.95,0-.65-.26-1.28-.74-1.76-.51-.51-1.17-.79-1.87-.79Z"/><path class="cls-1" d="m36.74,133.95c-.61,0-1.22-.21-1.7-.58-.51-.4-.85-.96-.97-1.58-.06-.42-.08-.84-.06-1.24v-36.07c0-.18,0-.36,0-.54.11-1.47,1.26-2.55,2.72-2.56h0c.73,0,1.39.26,1.9.72.52.48.82,1.12.84,1.82.04.75.03,1.52.03,2.27v.88c0,5.17,0,10.34,0,15.52v17.97c.01.36,0,.74-.04,1.11-.09.63-.4,1.21-.88,1.63-.48.42-1.1.65-1.75.67h-.09Z"/><path class="cls-1" d="m68.79,133.95c-.72,0-1.39-.26-1.89-.74-.51-.48-.8-1.13-.81-1.83-.03-1.39-.02-2.79-.02-4.19v-1.71c0-4.3-.01-8.58,0-12.87v-18.26c0-1.17.39-1.98,1.22-2.53.39-.26.85-.41,1.32-.45.07,0,.14,0,.21,0,.4,0,.8.09,1.16.25.43.2.8.5,1.07.87.27.38.44.82.48,1.28.02.21.02.42.02.63v37c-.03.7-.33,1.34-.85,1.82-.5.46-1.16.72-1.86.72h-.04Z"/><path class="cls-1" d="m84.79,133.95c-.63,0-1.25-.22-1.74-.61-.5-.4-.83-.97-.94-1.59-.06-.45-.07-.89-.06-1.33v-35.53c-.01-.36,0-.74.03-1.1.07-.67.4-1.28.91-1.73.51-.44,1.16-.68,1.83-.68.71.02,1.36.28,1.86.74.5.46.8,1.08.85,1.75.02.25.02.51.02.77v18s0,17.97,0,17.97c.02.37,0,.74-.04,1.11-.11.63-.44,1.2-.93,1.61-.49.41-1.12.63-1.76.63h-.04Z"/><path class="cls-1" d="m100.9,133.96c-.33,0-.65-.06-.98-.18-.48-.15-.91-.44-1.24-.83-.32-.4-.51-.87-.55-1.38-.03-.34-.03-.67-.02-1.01v-36.61c.1-1.5,1.23-2.57,2.71-2.58h0c.38,0,.72.06,1.04.19.33.13.63.32.89.57.26.25.46.54.6.86.14.33.21.67.21,1.02.02,1.37.01,2.75,0,4.13,0,.69,0,1.37,0,2.06l.02,12.48v18.36c0,.82-.28,1.56-.78,2.1-.5.53-1.17.83-1.9.83h0Z"/><path class="cls-1" d="m52.75,133.95c-1.69-.02-2.73-1.23-2.73-3.16v-18.15s0-17.95,0-17.95c-.02-.51.05-1.03.18-1.52.18-.56.55-1.04,1.04-1.36.44-.29.95-.44,1.49-.44.06,0,.12,0,.18,0,.58.02,1.15.24,1.6.6.45.36.78.87.91,1.42.09.45.12.9.11,1.34v36.08c-.02,1.93-1.08,3.12-2.75,3.12h-.04Z"/><path class="cls-1" d="m116.79,133.96c-.84,0-1.56-.34-1.97-.94-.41-.61-.64-1.32-.66-2.05-.02-4.51-.02-9.02-.02-13.52v-23.01c0-1.86,1.07-3.06,2.71-3.07,1.66,0,2.76,1.22,2.77,3.04v36.52c0,1.43-.63,2.42-1.81,2.84-.32.12-.68.18-1.02.18h0Z"/></svg>