<svg width="110" height="149" viewBox="0 0 110 149" fill="none" xmlns="http://www.w3.org/2000/svg">
<path d="M68.1284 26.0394C71.2032 27.7895 74.4918 29.4731 77.5888 31.4535C91.6525 40.4564 100.761 53.1633 105.418 69.0424C108.39 79.1662 109.285 89.5337 108.925 100.034C108.388 113.759 105.99 127.349 101.795 140.436C101.118 142.645 99.7397 144.576 97.8661 145.939C95.9925 147.303 93.7247 148.026 91.4029 147.999C66.5554 147.999 41.7094 147.999 16.8648 147.999C14.382 148.027 11.9651 147.205 10.0183 145.673C8.07155 144.141 6.71304 141.99 6.17005 139.581C2.4447 123.804 0.426062 107.836 1.1435 91.6072C1.93224 73.7565 5.7378 56.6412 14.4228 40.8463C16.6509 36.8189 19.4093 33.0973 21.9983 29.2914C22.6578 28.3256 23.6649 27.6034 24.4581 26.7217C24.6977 26.4327 24.8256 26.0682 24.8191 25.6938C24.7299 23.6602 24.3734 21.6133 24.5027 19.5974C24.6497 17.2226 26.098 15.5478 28.3171 14.6351C28.5732 14.5691 28.7958 14.4114 28.9422 14.1923C29.0886 13.9732 29.1484 13.7081 29.1103 13.4477C29.0702 11.6091 29.0747 9.77482 29.1103 7.93614C29.0968 7.0151 29.2706 6.10084 29.6214 5.24826C29.9721 4.39568 30.4925 3.62237 31.1514 2.97476C31.8102 2.32715 32.5939 1.8186 33.4553 1.47965C34.3168 1.1407 35.2383 0.978339 36.1644 1.00232C42.9318 1.00232 49.7037 1.00232 56.48 1.00232C60.7089 1.00232 63.6589 3.94864 63.6767 8.13994C63.6767 9.91216 63.699 11.6844 63.6767 13.4566C63.6333 13.716 63.6868 13.9821 63.8272 14.205C63.9675 14.4278 64.1851 14.5918 64.4387 14.6661C67.0055 15.7339 68.3289 17.7277 68.3601 20.4702C68.3735 22.269 68.2131 24.1343 68.1284 26.0394ZM54.0514 142.917H90.4538C94.2682 142.917 96.0863 141.588 97.2093 137.946C99.7564 129.684 101.6 121.222 102.722 112.652C104.192 101.377 104.388 90.1097 102.374 78.8693C100.765 69.8797 97.7708 61.4041 92.7977 53.6772C86.2471 43.4869 77.2011 36.2075 66.3103 31.0105C64.3289 30.0479 62.1475 29.5622 59.9425 29.5927C50.5578 29.6547 41.1776 29.6326 31.7974 29.5927C30.7094 29.5475 29.6267 29.7658 28.6424 30.2288C27.6581 30.6919 26.8017 31.3859 26.147 32.251C22.2312 37.2145 18.9237 42.6239 16.2944 48.365C9.579 62.813 6.63794 78.094 6.18787 93.9199C5.76899 108.736 7.65394 123.308 11.0273 137.712C11.8739 141.327 13.8302 142.909 17.5422 142.913C29.7134 142.922 41.8832 142.923 54.0514 142.917ZM58.5299 14.0592C58.5299 12.0477 58.5299 10.147 58.5299 8.24184C58.5299 6.73546 57.8748 6.0753 56.3285 6.07087C49.7007 6.05315 43.0759 6.05315 36.4541 6.07087C34.881 6.07087 34.226 6.76204 34.226 8.33932C34.226 9.9166 34.275 11.4407 34.226 12.9825C34.1859 13.8687 34.4666 14.1433 35.3757 14.1389C42.6882 14.1035 50.0008 14.1389 57.3089 14.1168C57.6386 14.1168 57.9951 14.0857 58.5299 14.0592ZM46.4225 19.2208C41.3544 19.2208 36.2877 19.2208 31.2225 19.2208C29.8857 19.2208 29.5693 19.5531 29.5515 20.8867C29.5515 21.4227 29.5515 21.9633 29.5515 22.5038C29.5515 24.3292 29.7565 24.5286 31.6281 24.533H59.8533C63.2534 24.533 63.2534 24.533 63.24 21.1791C63.24 19.5176 62.9415 19.2208 61.2927 19.2163C56.3374 19.2134 51.3807 19.2149 46.4225 19.2208Z" fill="#131A22" stroke="#131A22" stroke-width="2"/>
<path d="M14.9392 92.8445C14.9401 84.4009 15.4676 75.9658 16.5185 67.5893C16.7354 65.6468 17.6208 63.8431 19.02 62.4935C20.4193 61.144 22.2433 60.3344 24.1732 60.2063C25.443 60.1111 26.7263 60.161 28.0006 60.161C36.3552 60.161 44.7084 60.161 53.0601 60.161C57.6592 60.1701 61.2487 62.9727 61.6974 67.2763C61.9038 69.1765 61.5583 71.1583 61.316 73.0902C59.4665 87.8104 59.6522 102.719 61.8679 117.388C62.6307 122.521 58.9379 127.038 53.7914 127.074C44.1266 127.141 34.4618 127.141 24.7969 127.074C22.783 127.09 20.8346 126.352 19.3269 125.002C17.8192 123.652 16.8589 121.786 16.6307 119.764C15.4498 110.841 14.8846 101.846 14.9392 92.8445ZM39.2 121.823C43.8708 121.823 48.5372 121.823 53.2081 121.823C55.8195 121.823 57.0175 120.304 56.7259 117.714C56.1291 112.481 55.474 107.248 55.142 101.991C54.5128 91.1276 54.991 80.2272 56.5688 69.4622C56.9457 66.8092 55.6714 65.3807 53.0152 65.3807H25.4386C22.9259 65.3807 21.849 66.3603 21.5708 68.8863C21.2926 71.4122 21.0503 73.8747 20.835 76.369C19.6346 90.41 19.9355 104.541 21.7324 118.517C22.0285 120.861 23.0784 121.809 25.4251 121.814C30.0167 121.826 34.6083 121.829 39.2 121.823Z" fill="#131A22" stroke="#131A22" stroke-width="2"/>
<path d="M67.3262 92.5863C67.3262 84.124 67.549 77.0351 68.8279 70.0259C69.3894 66.9556 70.2138 63.9871 72.1388 61.4351C75.8241 56.5615 82.2454 56.0121 86.6481 60.261C89.2816 62.8041 90.917 65.9631 92.0846 69.3702C93.6707 74.208 94.654 79.2209 95.0123 84.2968C95.9436 95.0187 95.5292 105.67 92.9713 116.197C92.0489 119.989 90.8591 123.729 88.7469 127.025C87.6395 128.783 86.2996 130.385 84.7631 131.788C81.568 134.659 77.7669 134.18 75.1244 130.804C73.1726 128.314 72.0809 125.417 71.1941 122.435C69.1576 115.599 68.2709 108.563 67.7629 101.478C67.5267 98.0669 67.4287 94.6465 67.3262 92.5863ZM72.4686 88.4393C72.5176 97.1631 73.0211 105.355 74.5273 113.445C75.2481 117.078 76.1704 120.667 77.2901 124.198C77.7046 125.563 78.6849 126.768 79.5182 127.991C79.5972 128.138 79.712 128.263 79.8522 128.355C79.9924 128.446 80.1534 128.501 80.3205 128.515C80.4877 128.529 80.6556 128.5 80.8089 128.433C80.9623 128.365 81.0961 128.261 81.1982 128.128C82.2186 127.074 83.453 126.099 84.117 124.845C85.4658 122.39 86.5774 119.813 87.4368 117.149C89.9902 108.731 90.5873 100.043 90.3912 91.2926C90.2486 84.9392 89.6114 78.6434 87.7175 72.5336C86.7461 69.3791 85.4895 66.3619 83.0876 63.9605C81.0021 61.8604 78.5468 61.9579 76.5549 64.1422C75.267 65.5599 74.6922 67.3011 74.2644 69.0911C72.7315 75.6173 72.4953 82.272 72.4686 88.4393Z" fill="#131A22" stroke="#131A22" stroke-width="2"/>
</svg>
