<?xml version="1.0" encoding="UTF-8"?><svg id="Layer_1" xmlns="http://www.w3.org/2000/svg" viewBox="0 0 112.06 152.52"><defs><style>.cls-1{fill:#352506;stroke-width:0px;}</style></defs><path class="cls-1" d="m69.65,25.98c3.19,1.82,6.6,3.56,9.82,5.62,14.59,9.34,24.04,22.53,28.87,39,3.08,10.5,4.01,21.26,3.64,32.16-.56,14.24-3.05,28.34-7.4,41.92-.7,2.29-2.13,4.3-4.08,5.71-1.94,1.42-4.3,2.17-6.71,2.14H16.46c-2.58.03-5.08-.82-7.1-2.41-2.02-1.59-3.43-3.82-3.99-6.32C1.5,127.42-.6,110.85.15,94.01c.82-18.52,4.77-36.28,13.78-52.67,2.31-4.18,5.17-8.04,7.86-11.99.68-1,1.73-1.75,2.55-2.67.25-.3.38-.68.37-1.07-.09-2.11-.46-4.23-.33-6.33.15-2.46,1.66-4.2,3.96-5.15.27-.07.5-.23.65-.46s.21-.5.17-.77c-.04-1.91-.04-3.81,0-5.72-.01-.96.17-1.9.53-2.79.36-.88.9-1.69,1.59-2.36.68-.67,1.5-1.2,2.39-1.55.89-.35,1.85-.52,2.81-.5h21.08c4.39,0,7.45,3.06,7.47,7.41,0,1.84.02,3.68,0,5.52-.05.27.01.55.16.78.15.23.37.4.63.48,2.66,1.11,4.04,3.18,4.07,6.02.01,1.87-.15,3.8-.24,5.78Zm-14.61,121.27h37.77c3.96,0,5.84-1.38,7.01-5.16,2.64-8.57,4.56-17.35,5.72-26.24,1.53-11.7,1.73-23.39-.36-35.05-1.67-9.33-4.78-18.12-9.94-26.14-6.8-10.57-16.18-18.13-27.48-23.52-2.06-1-4.32-1.5-6.61-1.47-9.74.06-19.47.04-29.2,0-1.13-.05-2.25.18-3.27.66-1.02.48-1.91,1.2-2.59,2.1-4.06,5.15-7.49,10.76-10.22,16.72-6.97,14.99-10.02,30.85-10.49,47.27-.43,15.37,1.52,30.49,5.02,45.44.88,3.75,2.91,5.39,6.76,5.4,12.63,0,25.26.01,37.88,0ZM59.69,13.55v-6.04c0-1.56-.68-2.25-2.28-2.25-6.88-.02-13.75-.02-20.62,0-1.63,0-2.31.72-2.31,2.35s.05,3.22,0,4.82c-.04.92.25,1.2,1.19,1.2,7.59-.04,15.17,0,22.76-.02.34,0,.71-.03,1.27-.06Zm-12.56,5.36h-15.77c-1.39,0-1.72.34-1.73,1.73v1.68c0,1.89.21,2.1,2.15,2.11h29.29q3.53,0,3.51-3.48c0-1.72-.31-2.03-2.02-2.04-5.14,0-10.28,0-15.43,0Z"/><path class="cls-1" d="m14.46,95.3c0-8.76.55-17.51,1.64-26.2.23-2.02,1.14-3.89,2.6-5.29,1.45-1.4,3.34-2.24,5.35-2.37,1.32-.1,2.65-.05,3.97-.05h26c4.77,0,8.5,2.92,8.96,7.38.21,1.97-.14,4.03-.4,6.03-1.92,15.27-1.73,30.74.57,45.96.79,5.33-3.04,10.01-8.38,10.05-10.03.07-20.06.07-30.08,0-2.09.02-4.11-.75-5.68-2.15s-2.56-3.34-2.8-5.43c-1.23-9.26-1.81-18.59-1.76-27.93Zm25.17,30.07h14.53c2.71,0,3.95-1.58,3.65-4.26-.62-5.43-1.3-10.86-1.64-16.31-.65-11.27-.16-22.58,1.48-33.75.39-2.75-.93-4.23-3.69-4.23h-28.61c-2.61,0-3.72,1.02-4.01,3.64-.29,2.62-.54,5.18-.76,7.76-1.25,14.57-.93,29.23.93,43.73.31,2.43,1.4,3.42,3.83,3.42,4.76.01,9.53.02,14.29,0Z"/><path class="cls-1" d="m68.82,95.03c0-8.78.23-16.14,1.56-23.41.58-3.19,1.44-6.27,3.44-8.91,3.82-5.06,10.49-5.63,15.05-1.22,2.73,2.64,4.43,5.92,5.64,9.45,1.65,5.02,2.67,10.22,3.04,15.49.97,11.12.54,22.18-2.12,33.1-.96,3.93-2.19,7.82-4.38,11.23-1.15,1.82-2.54,3.49-4.13,4.94-3.32,2.98-7.26,2.48-10-1.02-2.03-2.58-3.16-5.59-4.08-8.68-2.11-7.09-3.03-14.39-3.56-21.74-.25-3.54-.35-7.09-.45-9.23Zm5.34-4.3c.05,9.05.57,17.55,2.14,25.95.75,3.77,1.7,7.49,2.87,11.16.43,1.42,1.45,2.67,2.31,3.94.08.15.2.28.35.38.15.09.31.15.49.17.17.01.35-.02.51-.09.16-.07.3-.18.4-.32,1.06-1.09,2.34-2.11,3.03-3.41,1.4-2.55,2.55-5.22,3.44-7.99,2.65-8.73,3.27-17.75,3.07-26.83-.15-6.59-.81-13.12-2.77-19.46-1.01-3.27-2.31-6.4-4.8-8.9-2.16-2.18-4.71-2.08-6.78.19-1.34,1.47-1.93,3.28-2.38,5.13-1.59,6.77-1.84,13.68-1.86,20.08Z"/></svg>