<svg width="161" height="102" viewBox="0 0 161 102" fill="none" xmlns="http://www.w3.org/2000/svg">
<path d="M80.4459 1.2334H125.884C128.59 1.2334 129.094 1.64409 129.881 4.56291C132.873 15.6189 135.835 26.6749 138.767 37.7309C139.088 38.9434 139.507 39.5056 140.631 39.3101C141.161 39.2514 141.695 39.2514 142.225 39.3101C144.003 39.3981 144.973 40.4737 144.986 42.5418C145.018 48.148 145.018 53.7575 144.986 59.3702C144.986 61.629 144.012 62.6655 141.994 62.7242C139.156 62.8073 139.156 62.8073 138.318 65.9217L129.932 97.3442C129.111 100.4 128.65 100.767 125.85 100.767H34.3082C31.6026 100.767 31.1068 100.356 30.316 97.4274C27.324 86.3779 24.3619 75.3219 21.4298 64.2594C21.1092 63.042 20.6775 62.4993 19.5619 62.69C19.0317 62.7486 18.4978 62.7486 17.9676 62.69C16.1895 62.5971 15.2235 61.5215 15.2149 59.4534C15.1836 53.8471 15.1836 48.2377 15.2149 42.6249C15.2149 40.3612 16.1852 39.3296 18.2069 39.2758C21.0451 39.1927 21.0451 39.1976 21.8828 36.0783L30.3075 4.6558C31.1281 1.59031 31.5898 1.2334 34.3852 1.2334H80.4459ZM26.3879 39.1781H133.86C130.958 28.4219 128.098 17.7685 125.239 7.1346H34.9964C32.1412 17.7587 29.2987 28.3926 26.3879 39.1781ZM133.86 62.8562C133.698 62.801 133.532 62.7601 133.364 62.734C115.934 62.734 113.331 62.7454 95.8975 62.7682C95.5893 62.8282 95.2964 62.9648 95.0394 63.1684C94.7824 63.372 94.5676 63.6376 94.4101 63.9465C93.1278 66.6795 91.931 69.4761 90.7555 72.258C90.5162 72.9398 90.0938 73.517 89.5491 73.9063C89.0044 74.2955 88.3657 74.4768 87.725 74.4239C82.9293 74.3913 78.1321 74.3913 73.3335 74.4239C72.6933 74.4739 72.0557 74.2907 71.5121 73.9008C70.9685 73.5108 70.5467 72.9341 70.3073 72.2531C69.2002 69.6228 67.9649 67.056 66.922 64.3914C66.4091 63.0909 65.7851 62.6557 64.5199 62.6557C47.7261 62.7144 44.9854 62.6949 28.1917 62.6949H26.3708C29.3073 73.5977 32.1668 84.2071 35.0263 94.8557H125.23L133.86 62.8562ZM20.4039 56.7301H139.763V45.2357H20.4039V56.7301ZM89.1057 62.8366H71.9144C72.6966 64.6358 73.3548 66.2884 74.1456 67.8529C74.303 68.0678 74.499 68.2414 74.7203 68.362C74.9415 68.4827 75.1828 68.5475 75.4279 68.5521C78.8473 68.6107 82.2668 68.6058 85.652 68.5521C85.8746 68.5557 86.0955 68.5057 86.3002 68.4055C86.5049 68.3053 86.6889 68.157 86.8403 67.9702C87.6225 66.3568 88.3064 64.6505 89.0928 62.8366H89.1057Z" fill="#131A22"/>
</svg>
