<?xml version="1.0" encoding="UTF-8"?><svg id="Layer_1" xmlns="http://www.w3.org/2000/svg" viewBox="0 0 200.77 152.52"><defs><style>.cls-1{fill:#352506;stroke-width:0px;}</style></defs><path class="cls-1" d="m49.37,150.31l-30.89-53.71c-.79-1.37-2.24-2.21-3.82-2.21H4.41c-2.43,0-4.41-1.97-4.41-4.41v-27.23c0-2.43,1.97-4.41,4.41-4.41h9.96c1.67,0,3.2-.95,3.95-2.45L44.87,2.45c.74-1.5,2.27-2.45,3.95-2.45h103.14c1.67,0,3.2.95,3.95,2.45l26.56,53.45c.74,1.5,2.27,2.45,3.95,2.45h9.96c2.43,0,4.41,1.97,4.41,4.41v27.23c0,2.43-1.97,4.41-4.41,4.41h-10.25c-1.58,0-3.03.84-3.82,2.21l-30.89,53.71c-.79,1.37-2.24,2.21-3.82,2.21H53.18c-1.58,0-3.03-.84-3.82-2.21Zm4.41-3.19h93.22l30.33-52.73h-47.01v22.23h-54.5v-22.23H23.45l30.33,52.73Zm27.44-35.9h43.7v-16.83h-43.7v16.83ZM5.4,88.99h189.97v-25.25H5.4v25.25Zm17.7-30.86h154.57l-26.34-52.73H49.44l-26.34,52.73Z"/></svg>