<?xml version="1.0" encoding="UTF-8"?>
<svg id="Layer_1" data-name="Layer 1" xmlns="http://www.w3.org/2000/svg" version="1.1" viewBox="0 0 66 158.4">
  <defs>
    <style>
      .cls-1 {
        fill: #b5b5b5;
      }

      .cls-1, .cls-2, .cls-3, .cls-4, .cls-5 {
        stroke-width: 0px;
      }

      .cls-2 {
        fill: #c9c9c9;
      }

      .cls-3 {
        fill: #d8d8d8;
      }

      .cls-4 {
        fill: #fff;
      }

      .cls-5 {
        fill: #e5e5e5;
      }
    </style>
  </defs>
  <g id="Layer_2" data-name="Layer 2">
    <g id="ALCOOL">
      <path class="cls-5" d="M17.7,19.4h30.2c0,8.9,6.4,12.9,11.6,14.6,3.9,1.3,6.5,5.3,6.5,9.8v104.4c0,5.6-4.2,10.2-9.3,10.2H9.3c-5.1,0-9.3-4.6-9.3-10.2V43.7c0-4.4,2.5-8.5,6.4-9.8,5.1-1.8,11.3-5.8,11.3-14.4Z"/>
      <path class="cls-4" d="M4.4,43.2v7c0,1,.8,1.8,1.8,1.8s1.8-.8,1.8-1.8v-7c0-1-.8-1.8-1.8-1.8s-1.8.8-1.8,1.8Z"/>
      <path class="cls-4" d="M4.4,57.3v22.7c0,1,.7,1.9,1.8,2,0,0,0,0,0,0,1,0,1.8-1,1.8-2v-22.7c0-1-.7-1.9-1.8-2,0,0,0,0,0,0-1,0-1.8,1-1.8,2Z"/>
      <path class="cls-1" d="M17.7,20.1h30.2c0,0,.2,1.8.2,1.8-10.1-.9-20.4-.9-30.5,0"/>
      <path class="cls-3" d="M66,45.4v2.7c-.1,0-.1,100.1-.1,100.1,0,5.6-4.2,10.2-9.3,10.2H9.3c-5.1,0-9.3-4.6-9.3-10.2,0,0,74.1,3,59.5-102.4-.5-5.8-2.9-11.2-6.9-15.4,1.8,1.6,3.9,2.7,6.1,3.4,5.2,1.7,7.2,5.9,7.2,11.6Z"/>
      <path class="cls-3" d="M17.9,0h29.6c1.6,0,2.8,1.3,2.8,2.8h0v17.3H15V2.8C15,1.3,16.3,0,17.8,0c0,0,0,0,0,0Z"/>
      <path class="cls-2" d="M15.1,17.5l13.4-6.4c1.6-.8,3.3-1.2,5.1-1h16.8v10.1c0,0-35.2,0-35.2,0v-2.6Z"/>
    </g>
  </g>
</svg>