<?xml version="1.0" encoding="UTF-8"?>
<svg id="Layer_1" data-name="Layer 1" xmlns="http://www.w3.org/2000/svg" xmlns:xlink="http://www.w3.org/1999/xlink" version="1.1" viewBox="0 0 57 179.7">
  <defs>
    <style>
      .cls-1 {
        fill: #b5b5b5;
      }

      .cls-1, .cls-2, .cls-3, .cls-4, .cls-5, .cls-6, .cls-7 {
        stroke-width: 0px;
      }

      .cls-2 {
        fill: #c9c9c9;
      }

      .cls-8 {
        clip-path: url(#clippath);
      }

      .cls-3 {
        fill: none;
      }

      .cls-4 {
        fill: #d8d8d8;
      }

      .cls-5 {
        fill: #95d0ef;
      }

      .cls-6 {
        fill: #fff;
      }

      .cls-7 {
        fill: #e5e5e5;
      }
    </style>
    <clipPath id="clippath">
      <path class="cls-3" d="M16.2,26.3c1,1.8.5,3.9,0,5.4-1.8,5.3-5.5,9.5-8.2,13.2C4.9,49.4,0,56.2.5,64c.3,2.8.7,5.7,1.3,8.5.8,4.3,1.5,6.6,1.8,8,.9,4.3-.9,8.8-3.3,17.7,0,.4-.2.7-.2.9v69.5s2.6,16.6,20.5,8.1c0,0,8.3,6.7,16.3,0,0,0,8.5,5.7,16,0,0,0,3.1-2,4.2-7.3v-70.3c-.2-.7-.5-2-.8-3.6-2.2-9.5-2.7-11.1-2.6-13.5,0-2,.3-1.4,1.6-7.7s1.9-9.6,1.8-12.6c-.2-4.1-1.9-7.2-5.2-13.4-1.9-3.4-7.7-11.3-9.9-15,0,0-.2-.3-.3-.7-1.1-2.2-1.5-5.6,0-6.8.5-.4.7-.1,1.2-.6,1.1-.9,1.5-3,.6-3.9-.5-.6-1.1-.2-1.8-1s-.9-1.7-.4-2.2c.3-.2.7-.3,1.1-.2h-26c.3.7.3,1.5,0,2.1,0,0-.1.2-.2.2-.6.7-1.4.5-1.9.8s-.8.9-.6,3c.2.4.5.7.8.9.5.4,1.5.7,1.9,1.3Z"/>
    </clipPath>
  </defs>
  <g id="Layer_2" data-name="Layer 2">
    <g id="Layer_1-2" data-name="Layer 1-2">
      <g id="Layer_2-2" data-name="Layer 2-2">
        <g id="Layer_7" data-name="Layer 7">
          <path class="cls-7" d="M16.2,26.3c1,1.8.5,3.9,0,5.4-1.8,5.3-5.5,9.5-8.2,13.2C4.9,49.4,0,56.2.5,64c.3,2.8.7,5.7,1.3,8.5.8,4.3,1.5,6.6,1.8,8,.9,4.3-.9,8.8-3.3,17.7,0,.4-.2.7-.2.9v69.5s2.6,16.6,20.5,8.1c0,0,8.3,6.7,16.3,0,0,0,8.5,5.7,16,0,0,0,3.1-2,4.2-7.3v-70.3c-.2-.7-.5-2-.8-3.6-2.2-9.5-2.7-11.1-2.6-13.5,0-2,.3-1.4,1.6-7.7s1.9-9.6,1.8-12.6c-.2-4.1-1.9-7.2-5.2-13.4-1.9-3.4-7.7-11.3-9.9-15,0,0-.2-.3-.3-.7-1.1-2.2-1.5-5.6,0-6.8.5-.4.7-.1,1.2-.6,1.1-.9,1.5-3,.6-3.9-.5-.6-1.1-.2-1.8-1s-.9-1.7-.4-2.2c.3-.2.7-.3,1.1-.2h-26c.3.7.3,1.5,0,2.1,0,0-.1.2-.2.2-.6.7-1.4.5-1.9.8s-.8.9-.6,3c.2.4.5.7.8.9.5.4,1.5.7,1.9,1.3Z"/>
          <path class="cls-3" d="M16.2,18.1h25.4c.2,0,.4,0,.5,0h-.5c-.2,0-.4.1-.5.2-.3.5-.3,1.1,0,1.5,1.6.1,2.5.2,2.5.2l-.8-7.4-27.1-.9-2.2,8.3s1,0,2.8-.2c.1-.6,0-1.2-.2-1.7Z"/>
          <path class="cls-5" d="M41.6,18.1h.5c-.2,0-.4,0-.5,0Z"/>
          <path class="cls-1" d="M41,18.3c.1-.1.3-.2.5-.2h-25.4c.2.6.3,1.2.2,1.8,2.6-.1,6.9-.3,12.6-.3s9.7.2,12,.3c-.3-.5-.3-1.1,0-1.5Z"/>
          <g class="cls-8">
            <path class="cls-4" d="M20.6,176.7s8.3,6.7,16.3,0c0,0,8.5,5.7,16,0,0,0,3.1-2,4.2-7.3v-70.3c-.2-.7-.5-2-.8-3.6-2.2-9.5-2.7-11.1-2.6-13.5,0-2,.3-1.4,1.6-7.7s1.9-9.6,1.8-12.6c-.2-4.1-1.9-7.2-5.2-13.4-1.9-3.4-7.7-11.3-9.9-15h0c2.2,4.2,14.7,29.3,9.4,39.4-3.5,6.9-4.9,14.7-4.2,22.5,0,0,6.1,69-18.6,69S4,159.1,0,155.4v13.2s2.7,16.6,20.6,8.1Z"/>
          </g>
          <path class="cls-4" d="M17.4,0h22.5s3.6.3,2.9,7.1v11.2H14.1V3.4c.3-1.7,1.6-3.1,3.3-3.4Z"/>
          <path class="cls-2" d="M40,0c.4,11.7-2,16.4-3.9,18.3h6.7V7.1c.7-6.8-2.9-7.1-2.9-7.1Z"/>
          <path class="cls-6" d="M7,70.2c-.6,0-1.2-.4-1.4-.9-1.7-4.2-.8-6.5-.7-6.8.3-.8,1.2-1.1,2-.8.8.3,1.1,1.2.8,2,0,0-.5,1.6.7,4.5.3.8,0,1.7-.8,2h0c-.2,0-.4,0-.6,0Z"/>
          <path class="cls-6" d="M8.2,57.6c-.2,0-.3,0-.5,0-.8-.3-1.2-1.1-.9-1.9,2.7-7.6,10.7-17.3,11-17.7.5-.6,1.5-.7,2.1-.2.6.5.7,1.5.2,2.1,0,0-8,9.7-10.5,16.8-.2.6-.8,1-1.4,1Z"/>
        </g>
      </g>
    </g>
  </g>
</svg>