<svg xmlns="http://www.w3.org/2000/svg" viewBox="0 0 52.99 153"><defs><style>.cls-1{fill:#131a22;}</style></defs><g id="Layer_2" data-name="Layer 2"><g id="Layer_1-2" data-name="Layer 1"><path class="cls-1" d="M53,91.66H0V84.8A9.82,9.82,0,0,1,.57,82c.28-.85.61-1.78.94-2.72.55-1.56,1.07-3,1.51-4.55a10.66,10.66,0,0,0-.2-5.06L2.49,68C2,65.57,1.44,63,1,60.49a29.22,29.22,0,0,1-.45-7.7A20.62,20.62,0,0,1,3.7,43.6c1.28-2.06,2.62-4.13,4-6.21L9.9,33.92c1-1.59,2-3.21,3-4.82l0-.06c0-1.42-.05-4.94-.08-7.27-1.49-1.14-1.5-3.12-1.5-3.94V7.39A7,7,0,0,1,15.71.52,7.38,7.38,0,0,1,18.37,0Q26.53,0,34.7,0a6.64,6.64,0,0,1,4.7,1.81,6.83,6.83,0,0,1,2.17,4.64c.08,1.29.08,2.57.07,3.8v7.56c0,2.16-.69,3.34-1.68,4,0,1.4,0,3.64.11,7.18q3.57,5.62,7.2,11.31l.35.54a29.21,29.21,0,0,1,4.34,9,21.9,21.9,0,0,1,.3,8.72c-.44,2.64-1,5.29-1.48,7.85L50.28,69c-.41,2.07-.8,4-.31,5.7.45,1.51,1,3,1.5,4.55.32.92.64,1.85.94,2.78A9.75,9.75,0,0,1,53,84.77v.14c0,.87,0,1.74,0,2.61Zm-47-6H47c0-.22,0-.43,0-.65a3.43,3.43,0,0,0-.21-1l0-.1c-.29-.91-.61-1.82-.92-2.73-.54-1.56-1.1-3.18-1.58-4.83-.91-3.07-.33-6,.17-8.54l.51-2.54c.5-2.51,1-5.11,1.44-7.66a16.17,16.17,0,0,0-.21-6.35,24.77,24.77,0,0,0-3.57-7.17l-.35-.54q-3.75-5.86-7.49-11.77a4.26,4.26,0,0,1-.64-2.13v-.31Q34,25.12,34,22.72H18.84c0,2.67.07,6.1.07,6.82a4.35,4.35,0,0,1-.53,2.05l-.38.62c-1,1.65-2,3.3-3,4.94l-2.25,3.49c-1.33,2.06-2.65,4.11-3.94,6.18A14.37,14.37,0,0,0,6.5,53.3a23,23,0,0,0,.36,6.07c.47,2.49,1,5,1.5,7.44l.34,1.6a16.29,16.29,0,0,1,.08,8c-.49,1.67-1.06,3.3-1.61,4.88-.32.89-.63,1.79-.93,2.69A3.59,3.59,0,0,0,6,85ZM18.74,16.72h16.9V10.25c0-1.19,0-2.32-.06-3.42a.89.89,0,0,0-.27-.61A.75.75,0,0,0,34.77,6c-5.52,0-11,0-16.38,0a1.43,1.43,0,0,0-.5.09c-.13,0-.56.22-.56,1.28V16.6h1.41Z"/><path class="cls-1" d="M39.51,153a13.25,13.25,0,0,1-6.5-1.78,13.3,13.3,0,0,1-13,0c-.38.21-.78.42-1.2.61A13.18,13.18,0,0,1,4,148.93a13.54,13.54,0,0,1-3-4.58A14,14,0,0,1,0,139V128H53v6c0,1.81,0,3.61,0,5.42a13.13,13.13,0,0,1-6.88,11.73A13.2,13.2,0,0,1,39.51,153ZM33,144.1l2.13,1.4c2.76,1.84,5.28,2,8,.45A7.06,7.06,0,0,0,47,139.4c0-1.79,0-3.57,0-5.36H6v5a7.81,7.81,0,0,0,.57,3.09,7.66,7.66,0,0,0,1.7,2.6,7.22,7.22,0,0,0,8.08,1.62c.43-.2.92-.48,1.45-.78l.82-.46,1.6-.88,1.52,1c3.29,2.23,6.26,2.22,9.64,0Z"/><path class="cls-1" d="M53,134H0V85.66H53V99.58q0,6.08,0,12.14,0,9.66,0,19.32ZM6,128H47q0-8.16,0-16.32,0-6.06,0-12.14V91.66H6Z"/></g></g></svg>