<?xml version="1.0" encoding="UTF-8"?><svg id="Layer_1" xmlns="http://www.w3.org/2000/svg" viewBox="0 0 55.09 152.52"><defs><style>.cls-1{fill:#352506;stroke-width:0px;}</style></defs><path class="cls-1" d="m9.08,152.52c-5.01,0-9.08-4.08-9.08-9.08v-44c0-3.33,1.21-5.37,2.1-6.86.72-1.21,1.19-2.01,1.19-3.37s-.48-2.17-1.21-3.37c-.93-1.54-2.08-3.45-2.08-6.63v-34.19c0-6.39,4.01-11.17,7.89-15.78,3.35-4,6.51-7.75,6.51-11.99v-2.64c-1.36-.93-2.18-2.5-2.18-4.15v-5.41C12.21,2.27,14.48,0,17.26,0h20.57c2.78,0,5.05,2.26,5.05,5.04v5.41c0,1.65-.83,3.22-2.18,4.15v2.64c0,4.25,3.16,8.01,6.51,11.99,3.89,4.63,7.89,9.4,7.89,15.78v34.19c0,3.16-1.13,5.06-2.05,6.59-.75,1.24-1.23,2.03-1.23,3.41s.47,2.16,1.18,3.36c.94,1.6,2.1,3.56,2.1,6.86v44c0,5.01-4.08,9.08-9.08,9.08H9.08Zm-3.58-70.82c.23.52.52,1,.85,1.54.86,1.41,1.93,3.17,1.93,5.97s-1,4.42-1.89,5.92c-.78,1.32-1.4,2.36-1.4,4.31v44c0,2.25,1.83,4.07,4.07,4.07h36.93c1.09,0,2.11-.43,2.88-1.2.76-.77,1.18-1.79,1.18-2.87v-44c0-1.94-.61-2.98-1.39-4.3-.89-1.5-1.9-3.2-1.9-5.93s1.07-4.54,1.93-5.96c.31-.52.61-1.01.85-1.54H5.51Zm44.57-5v-29.18H5v29.18h45.08Zm-.33-34.19c-.91-3.52-3.58-6.69-6.4-10.05-3.78-4.5-7.68-9.14-7.68-15.21v-1.74h-16.27v1.74c0,6.07-3.9,10.71-7.68,15.2h0c-2.82,3.36-5.49,6.53-6.39,10.05h44.42ZM17.26,5.02s-.04.02-.04.04v5.41l20.6.04.04-5.44-20.6-.04Z"/></svg>