<?xml version="1.0" encoding="UTF-8"?>
<svg id="Layer_1" data-name="Layer 1" xmlns="http://www.w3.org/2000/svg" version="1.1" viewBox="0 0 171.6 175.8">
  <defs>
    <style>
      .cls-1 {
        fill: #d8d8d8;
      }

      .cls-1, .cls-2, .cls-3, .cls-4, .cls-5, .cls-6 {
        stroke-width: 0px;
      }

      .cls-2 {
        fill: #9ecaef;
      }

      .cls-7 {
        opacity: .4;
      }

      .cls-3 {
        fill: #676868;
      }

      .cls-4 {
        fill: #fff;
      }

      .cls-5 {
        fill: #8fbfef;
      }

      .cls-6 {
        fill: #e5e5e5;
      }
    </style>
  </defs>
  <g id="Layer_2" data-name="Layer 2">
    <g id="Layer_7" data-name="Layer 7">
      <path class="cls-6" d="M143.3,175.8c12.4,0,22.5-10.1,22.5-22.5h0V15.7c0-1.5.9-2.9,2.2-3.5,4.7-1.4,5.6-12.3-3.4-12.3H24.2C17.8,0,6.2,13.2.5,20.4c-.8.9-.7,2.2.2,3,.2.2.5.4.8.5l18.9.5c4,.2,7,4.8,7,9.2v119.7c0,12.4,10.1,22.5,22.5,22.5h93.4Z"/>
      <path class="cls-2" d="M154.5,50.1H38.8c-3.5,0-6.3,2.8-6.3,6.3v97.2c0,9.7,7.8,17.5,17.5,17.6,0,0,0,0,0,0h93.4c9.7,0,17.5-7.9,17.5-17.6V56.4c0-3.5-2.8-6.3-6.3-6.3Z"/>
      <g class="cls-7">
        <path class="cls-5" d="M164.7,0c9,0,8.1,10.9,3.4,12.3-1.4.6-2.3,2-2.2,3.5v137.6c0,12.4-10.1,22.5-22.5,22.5h0"/>
        <path class="cls-1" d="M165.8,153.3V15.7c0-1.5.9-2.9,2.2-3.5,4.7-1.4,5.6-12.3-3.4-12.3h-33.2s18.5,33.8,4.5,136.5c-2.6,18.7-17.5,33.3-36.2,35.4-11.7,1.3-27.8,2.7-49.8,3.9h93.4c12.4,0,22.5-10.1,22.5-22.5h0Z"/>
      </g>
      <g>
        <polygon class="cls-3" points="145.4 150.2 106.6 150.2 106.6 49 145.4 49 145.4 51 108.6 51 108.6 148.2 145.4 148.2 145.4 150.2"/>
        <rect class="cls-3" x="107.6" y="74.1" width="37.8" height="2"/>
        <rect class="cls-3" x="107.6" y="97.3" width="37.8" height="2"/>
        <rect class="cls-3" x="107.6" y="122.1" width="37.8" height="2"/>
      </g>
      <path class="cls-4" d="M41.4,118.4c-.8,0-1.5-.7-1.5-1.5h0V29c0-.8.7-1.5,1.5-1.5s1.5.7,1.5,1.5v87.8c0,.8-.6,1.5-1.5,1.5,0,0,0,0,0,0Z"/>
      <path class="cls-4" d="M41.4,159.2c-.8,0-1.5-.7-1.5-1.5v-30.4c0-.8.7-1.5,1.5-1.5s1.5.7,1.5,1.5h0v30.4c0,.8-.7,1.5-1.5,1.5Z"/>
    </g>
  </g>
</svg>