<?xml version="1.0" encoding="UTF-8"?>
<svg id="Layer_1" data-name="Layer 1" xmlns="http://www.w3.org/2000/svg" xmlns:xlink="http://www.w3.org/1999/xlink" version="1.1" viewBox="0 0 367.7 266.4">
  <defs>
    <style>
      .cls-1 {
        fill: #84560d;
      }

      .cls-1, .cls-2, .cls-3, .cls-4, .cls-5, .cls-6, .cls-7, .cls-8, .cls-9, .cls-10, .cls-11, .cls-12, .cls-13, .cls-14, .cls-15 {
        stroke-width: 0px;
      }

      .cls-16 {
        clip-path: url(#clippath);
      }

      .cls-2 {
        fill: none;
      }

      .cls-3 {
        fill: #af790e;
      }

      .cls-4 {
        fill: #604308;
      }

      .cls-5 {
        fill: #c68512;
      }

      .cls-6 {
        fill: #efd8b6;
      }

      .cls-7 {
        fill: #6d490a;
      }

      .cls-8 {
        fill: #f9e4c0;
      }

      .cls-17 {
        clip-path: url(#clippath-1);
      }

      .cls-18 {
        clip-path: url(#clippath-4);
      }

      .cls-19 {
        clip-path: url(#clippath-3);
      }

      .cls-20 {
        clip-path: url(#clippath-2);
      }

      .cls-21 {
        clip-path: url(#clippath-5);
      }

      .cls-9 {
        fill: #ba7a13;
      }

      .cls-10 {
        fill: #ffd180;
      }

      .cls-11 {
        fill: #352504;
      }

      .cls-12 {
        fill: #a56f0f;
      }

      .cls-13 {
        fill: #fff;
      }

      .cls-14 {
        fill: #f2e1c4;
      }

      .cls-15 {
        fill: #493306;
      }
    </style>
    <clipPath id="clippath">
      <path class="cls-2" d="M91.4,8.2h31.7v51.2s5.8,10.5,24.6,0c22.8-12.6,37,5.8,37,5.8,0,0,14.2,6.8,20.8-6.2V8.2h29.4v213.4H91.4V8.2Z"/>
    </clipPath>
    <clipPath id="clippath-1">
      <path class="cls-2" d="M65.9,91.8c1,1.8.5,3.9,0,5.4-1.8,5.3-5.5,9.5-8.2,13.2-3.2,4.4-8,11.2-7.5,19,.3,2.9.7,5.7,1.3,8.5.8,4.3,1.5,6.6,1.8,8,.9,4.4-.9,8.8-3.3,17.6,0,.4-.2.7-.2.9v69.5s2.6,16.6,20.5,8.1c0,0,8.3,6.7,16.3,0,0,0,8.5,5.7,16,0,0,0,3.1-2,4.2-7.3v-70.3l-.8-3.6c-2.2-9.6-2.6-11.1-2.6-13.5s.3-1.4,1.6-7.7,1.9-9.6,1.7-12.6c-.2-4.1-1.9-7.2-5.2-13.4-1.9-3.4-7.7-11.3-9.9-15,0-.2-.3-.4-.4-.7-1.1-2.2-1.5-5.6,0-6.8s.7,0,1.2-.6c1.1-.9,1.4-3,.6-3.9-.5-.6-1.1-.2-1.8-.9s-.9-1.7-.4-2.2c.3-.2.7-.3,1.1-.2h-26c.3.7.3,1.5,0,2.1,0,0,0,.2-.2.2-.6.7-1.4.5-1.9.8s-.8.9-.6,3c.2.4.5.7.8.9.5.3,1.5.7,1.9,1.2v.3Z"/>
    </clipPath>
    <clipPath id="clippath-2">
      <path class="cls-2" d="M65.9,91.8c1,1.8.5,3.9,0,5.4-1.8,5.3-5.5,9.5-8.2,13.2-3.2,4.4-8,11.2-7.5,19,.3,2.9.7,5.7,1.3,8.5.8,4.3,1.5,6.6,1.8,8,.9,4.4-.9,8.8-3.3,17.6,0,.4-.2.7-.2.9v69.5s2.6,16.6,20.5,8.1c0,0,8.3,6.7,16.3,0,0,0,8.5,5.7,16,0,0,0,3.1-2,4.2-7.3v-70.3l-.8-3.6c-2.2-9.6-2.6-11.1-2.6-13.5s.3-1.4,1.6-7.7,1.9-9.6,1.7-12.6c-.2-4.1-1.9-7.2-5.2-13.4-1.9-3.4-7.7-11.3-9.9-15,0-.2-.3-.4-.4-.7-1.1-2.2-1.5-5.6,0-6.8s.7,0,1.2-.6c1.1-.9,1.4-3,.6-3.9-.5-.6-1.1-.2-1.8-.9s-.9-1.7-.4-2.2c.3-.2.7-.3,1.1-.2h-26c.3.7.3,1.5,0,2.1,0,0,0,.2-.2.2-.6.7-1.4.5-1.9.8s-.8.9-.6,3c.2.4.5.7.8.9.5.3,1.5.7,1.9,1.2v.3Z"/>
    </clipPath>
    <clipPath id="clippath-3">
      <path class="cls-2" d="M67.1,65.5h22.5s3.6.3,2.9,7.1v11.2h-28.7v-14.9c.3-1.7,1.6-3.1,3.3-3.4Z"/>
    </clipPath>
    <clipPath id="clippath-4">
      <path class="cls-2" d="M294.8,180h-154.2v52h154.2c10.6,0,19.1-11.6,19.1-26s-8.6-26-19.1-26Z"/>
    </clipPath>
    <clipPath id="clippath-5">
      <path class="cls-2" d="M14.7,243.9s23.4-91.2,29.8-113.1c.4-1.5-1.3-4.4-3.2-5.7-8.5-5.2-35.9-17.8-35.9-17.8l2.1-4.6s27.7,12.8,36.4,18.1c3.5,2.1,6.7,7.4,5.5,11.4-6.5,21.8-29.8,112.9-29.8,112.9l-4.9-1.3h0Z"/>
    </clipPath>
  </defs>
  <g id="Layer_2" data-name="Layer 2">
    <g id="Layer_7" data-name="Layer 7">
      <g>
        <line class="cls-2" x1="16.6" y1="244.4" x2="96.7" y2="244.6"/>
        <path class="cls-8" d="M96.7,246.6h0l-80.1-.2c-1.1,0-2-.9-2-2s.9-2,2-2l80.1.2c1.1,0,2,.9,2,2s-.9,2-2,2Z"/>
      </g>
      <path class="cls-8" d="M60.4,246.4l163,1.6c29.3,0,73-2.8,90.2-9.7,12.7-5.1,19.4-6.5,18-13.9-2.7-14.9-123.1-10.3-123.1-10.3l-133.4,2.4-14.7,30h0Z"/>
      <path class="cls-1" d="M118.2,8.2l3.3,1.7,2.6,49.8s3.1,10.2,21.9-.3c22.7-12.6,36.9,5.8,36.9,5.8,0,0,14.2,6.8,20.8-6.2l26.1-50.8,3.4,3.2s.3,91.3.5,122.9c.2,21.8,4.9,87.2,4.9,87.2H89.7L118.2,8.2Z"/>
      <path class="cls-5" d="M86.4,8.2h31.7v51.2s5.8,10.5,24.6,0c22.8-12.6,37,5.8,37,5.8,0,0,14.2,6.8,20.8-6.2V8.2h29.4v213.4H86.4V8.2Z"/>
      <g class="cls-16">
        <path class="cls-9" d="M113.9,237.4c-25.4-13.8-46.9-35.8-43.2-43.1,3.2-6.4,2.2-4.2,59.8-1.5,37.7,1.8,33.4-21.9,33.3-29.9,0-8.5,20.7-33.6,23.2-44.9,2.7-12.1-13.7-20.4-9.7-30.2.9-2.3,6.3-5.8,16.9-12.6,10.3-6.6,10.2-6,11.5-7.2,14.2-13-12.7-53.2-2.2-64.4,7.7-8.2,34.7-.7,52.9,13.3,53.7,41.4,73.4,173,1.4,223.2-46.8,32.6-110.5,15.6-144-2.6h.1Z"/>
      </g>
      <path class="cls-14" d="M65.9,91.8c1,1.8.5,3.9,0,5.4-1.8,5.3-5.5,9.5-8.2,13.2-3.2,4.4-8,11.2-7.5,19,.3,2.9.7,5.7,1.3,8.5.8,4.3,1.5,6.6,1.8,8,.9,4.4-.9,8.8-3.3,17.6,0,.4-.2.7-.2.9v69.5s2.6,16.6,20.5,8.1c0,0,8.3,6.7,16.3,0,0,0,8.5,5.7,16,0,0,0,3.1-2,4.2-7.3v-70.3l-.8-3.6c-2.2-9.6-2.6-11.1-2.6-13.5s.3-1.4,1.6-7.7,1.9-9.6,1.7-12.6c-.2-4.1-1.9-7.2-5.2-13.4-1.9-3.4-7.7-11.3-9.9-15,0-.2-.3-.4-.4-.7-1.1-2.2-1.5-5.6,0-6.8s.7,0,1.2-.6c1.1-.9,1.4-3,.6-3.9-.5-.6-1.1-.2-1.8-.9s-.9-1.7-.4-2.2c.3-.2.7-.3,1.1-.2h-26c.3.7.3,1.5,0,2.1,0,0,0,.2-.2.2-.6.7-1.4.5-1.9.8s-.8.9-.6,3c.2.4.5.7.8.9.5.3,1.5.7,1.9,1.2v.3Z"/>
      <g class="cls-17">
        <path class="cls-6" d="M65.3,77.2l-2.1,8.3s5.8-.5,15.5-.5,14.5.5,14.5.5l-.7-7.4-27.1-.9h-.1Z"/>
      </g>
      <g class="cls-20">
        <path class="cls-6" d="M46.7,217.4s6.8,12.3,31.5,12.3,18.6-69,18.6-69c-.8-7.7.6-15.5,4.1-22.5,5.7-11-9.8-40-9.8-40l46,39.5-4.6,117-72.5,11.7-26.5-29.6,13.2-19.4h0Z"/>
      </g>
      <path class="cls-12" d="M67.1,65.5h22.5s3.6.3,2.9,7.1v11.2h-28.7v-14.9c.3-1.7,1.6-3.1,3.3-3.4Z"/>
      <g class="cls-19">
        <path class="cls-1" d="M83.7,85s6.6-.9,5.9-19.6,7.9,3.7,7.9,3.7l-.6,18.8s-13.2-2.9-13.2-2.9Z"/>
      </g>
      <path class="cls-13" d="M56.7,135.7c-.6,0-1.1-.3-1.4-.9-1.7-4.2-.8-6.5-.7-6.8.3-.8,1.2-1.1,2-.8.7.3,1.1,1.2.8,1.9,0,0-.5,1.6.7,4.5.3.8,0,1.6-.8,2-.2,0-.4.1-.6.1Z"/>
      <path class="cls-13" d="M57.8,123.1h-.5c-.8-.3-1.2-1.1-.9-1.9,2.7-7.6,10.7-17.3,11-17.7.5-.6,1.5-.7,2.1-.2s.7,1.5.2,2.1c0,0-8,9.7-10.5,16.8-.2.6-.8,1-1.4,1h0Z"/>
      <path class="cls-4" d="M294.8,180h-154.2v52h154.2c10.6,0,19.1-11.6,19.1-26s-8.6-26-19.1-26Z"/>
      <path class="cls-13" d="M181.9,187.8h-20.8c-.8,0-1.5-.7-1.5-1.5s.7-1.5,1.5-1.5h20.8c.8,0,1.5.7,1.5,1.5s-.7,1.5-1.5,1.5Z"/>
      <g class="cls-18">
        <g>
          <path class="cls-15" d="M357.8,186.3s1.7,10.1-47,10.1h-160.9l-37.4,10.1,9.3,15,212.6,7.2,33.3-32.2-9.9-10.1h0Z"/>
          <path class="cls-11" d="M356.8,207.3s1.8,10.1-49.4,10.1h-168.9l-39.3,10.1,9.8,15,223.2,7.2,34.9-32.2-10.4-10.1h0Z"/>
        </g>
      </g>
      <path class="cls-11" d="M140.5,230.2c-9.6,0-17.3-10.9-17.3-24.2s7.8-24.2,17.3-24.2,17.3,10.9,17.3,24.2-7.8,24.2-17.3,24.2Z"/>
      <path class="cls-7" d="M140.5,183.7c8.6,0,15.5,10,15.5,22.4s-7,22.4-15.5,22.4-15.5-10-15.5-22.4,7-22.4,15.5-22.4M140.5,180c-10.6,0-19.1,11.6-19.1,26s8.6,26,19.1,26,19.1-11.6,19.1-26-8.6-26-19.1-26Z"/>
      <path class="cls-13" d="M195.5,188.8h-7.1c-.8,0-1.5-.7-1.5-1.5s.7-1.5,1.5-1.5h7.1c.8,0,1.5.7,1.5,1.5s-.7,1.5-1.5,1.5Z"/>
      <path class="cls-10" d="M14.7,243.9s23.4-91.2,29.8-113.1c.4-1.5-1.3-4.4-3.2-5.7-8.5-5.2-35.9-17.8-35.9-17.8l2.1-4.6s27.7,12.8,36.4,18.1c3.5,2.1,6.7,7.4,5.5,11.4-6.5,21.8-29.8,112.9-29.8,112.9l-4.9-1.3h0Z"/>
      <g class="cls-21">
        <g>
          <rect class="cls-3" x="17.5" y="218.9" width="2.5" height="29.6" transform="translate(-107.9 36.4) rotate(-28.1)"/>
          <rect class="cls-3" x="22.1" y="196.8" width="2.5" height="29.6" transform="translate(-96.9 35.9) rotate(-28.1)"/>
          <rect class="cls-3" x="19.2" y="207.1" width="2.5" height="29.6" transform="translate(-102.1 35.8) rotate(-28.1)"/>
          <rect class="cls-3" x="24.6" y="186.1" width="2.5" height="29.6" transform="translate(-91.6 35.9) rotate(-28.1)"/>
          <rect class="cls-3" x="27.3" y="175.6" width="2.5" height="29.6" transform="translate(-86.3 35.9) rotate(-28.1)"/>
          <rect class="cls-3" x="29.1" y="166.1" width="2.5" height="29.6" transform="translate(-81.6 35.6) rotate(-28.1)"/>
          <rect class="cls-3" x="33.5" y="147.2" width="2.5" height="29.6" transform="translate(-72.2 35.5) rotate(-28.1)"/>
          <rect class="cls-3" x="36.2" y="137.2" width="2.5" height="29.6" transform="translate(-67.2 35.6) rotate(-28.1)"/>
          <rect class="cls-3" x="32.2" y="159.9" width="2.5" height="29.6" transform="translate(-78.3 36.3) rotate(-28.1)"/>
          <rect class="cls-3" x="40" y="129.7" width="2.5" height="29.6" transform="translate(-63.2 36.5) rotate(-28.1)"/>
          <rect class="cls-3" x="45.5" y="125.1" width="2.5" height="29.6" transform="translate(-60.4 38.5) rotate(-28.1)"/>
          <rect class="cls-3" x="44.9" y="110.9" width="2.5" height="29.6" transform="translate(-53.8 36.5) rotate(-28.1)"/>
          <rect class="cls-3" x="30.9" y="98.2" width="2.5" height="29.6" transform="translate(-49.4 28.5) rotate(-28.1)"/>
          <rect class="cls-3" x="22.9" y="96.2" width="2.5" height="29.6" transform="translate(-49.4 24.4) rotate(-28.1)"/>
          <rect class="cls-3" x="14.7" y="93.7" width="2.5" height="29.6" transform="translate(-49.2 20.3) rotate(-28.1)"/>
          <rect class="cls-3" x="6.8" y="93.6" width="2.5" height="29.6" transform="translate(-50.1 16.6) rotate(-28.1)"/>
        </g>
      </g>
    </g>
  </g>
</svg>