<?xml version="1.0" encoding="UTF-8"?>
<svg id="Layer_1" data-name="Layer 1" xmlns="http://www.w3.org/2000/svg" version="1.1" viewBox="0 0 18.1 13.8">
  <defs>
    <style>
      .cls-1 {
        fill: #ffb500;
      }

      .cls-1, .cls-2 {
        stroke-width: 0px;
      }

      .cls-2 {
        fill: #fff;
      }
    </style>
  </defs>
  <path class="cls-1" d="M11.2,4.1c-.3,0-.5-.4-.4-.7,0-.3.4-.5.7-.4,0,0,.3,0,.7.1v-.2c0-1.4-1.2-2.6-2.6-2.6H2.9C1.5.4.4,1.5.4,2.9v10.4H.4s11.8,0,11.8,0h0V4.5h0l-1.1-.4ZM7.7,4.2c0,.2-.2.4-.4.4h-2.1c-.2,0-.4-.1-.4-.4v-2.1c0-.2.2-.4.4-.4h2.1c.2,0,.4.2.4.4v2.1Z"/>
  <path class="cls-2" d="M12.2,13.8H.4c-.2,0-.4-.2-.4-.4V2.9C0,1.3,1.3,0,2.9,0h6.7c1.6,0,2.9,1.3,2.9,2.9v.2c0,.2-.2.4-.4.4s-.4-.2-.4-.4v-.2c0-1.2-1-2.2-2.2-2.2H2.9C1.8.7.7,1.8.7,2.9v10.1h11.1V4.5c0-.2.2-.4.4-.4s.4.2.4.4v8.9c0,.2-.2.4-.4.4Z"/>
  <path class="cls-2" d="M15.9,3.4c-1,0-1.7-.7-1.7-1.7s.8-1.7,1.7-1.7,1.7.8,1.7,1.7-.8,1.7-1.7,1.7ZM15.9.7c-.6,0-1,.4-1,.9s.4.9,1,.9.9-.4.9-.9-.4-.9-.9-.9Z"/>
  <path class="cls-2" d="M14.9,13.8c-.2,0-.4-.2-.4-.3l-.5-7.5c0-.3-.2-.5-.5-.6l-2.5-.8c-.2,0-.4-.2-.6-.4-.1-.2-.1-.5,0-.7.2-.5.7-.8,1.2-.6,3.7.8,4.7,1.1,5,1.2h0c.9.2,1.5,1,1.5,1.9v7.6c0,.2-.2.4-.4.4s-.4-.2-.4-.4v-7.6c0-.6-.4-1.1-.9-1.2,0,0,0,0,0,0-.3,0-3.2-.7-4.9-1.2-.2,0-.3,0-.3.1,0,0,0,0,0,.1,0,0,0,0,.1,0l2.5.8c.5.2.9.7,1,1.2l.5,7.5c0,.2-.1.4-.3.4,0,0,0,0,0,0Z"/>
  <path class="cls-2" d="M16.3,13.8c-.2,0-.4-.2-.4-.4v-4.7c-.1-.2,0-.4.2-.4.2,0,.4.2.4.4v4.7c.1.2,0,.4-.2.4h0Z"/>
  <path class="cls-2" d="M7.3,4.9h-2.1c-.4,0-.7-.3-.7-.7v-2.1c0-.4.3-.7.7-.7h2.1c.4,0,.7.3.7.7v2.1c0,.4-.3.7-.7.7ZM5.2,2s0,0,0,0v2.1s0,0,0,0h2.1s0,0,0,0v-2.1s0,0,0,0h-2.1ZM7.3,2h0,0Z"/>
</svg>