<?xml version="1.0" encoding="UTF-8"?>
<svg id="Layer_1" data-name="Layer 1" xmlns="http://www.w3.org/2000/svg" version="1.1" viewBox="0 0 16 16">
  <defs>
    <style>
      .cls-1 {
        fill: #ffb612;
        stroke-width: 0px;
      }
    </style>
  </defs>
  <path class="cls-1" d="M8.7,1.5c-.4-.4-1-.4-1.4,0L.6,8.1c-.2.2-.2.5,0,.7.2.2.5.2.7,0h0l.6-.6v5.3c0,.8.7,1.5,1.5,1.5h9c.8,0,1.5-.7,1.5-1.5v-5.3l.6.6c.2.2.5.2.7,0s.2-.5,0-.7l-2.4-2.4v-3.3c0-.3-.2-.5-.5-.5h-1c-.3,0-.5.2-.5.5v1.3l-2.3-2.3ZM13,7.2v6.3c0,.3-.2.5-.5.5H3.5c-.3,0-.5-.2-.5-.5v-6.3l5-5,5,5ZM13,7.2v6.3c0,.3-.2.5-.5.5H3.5c-.3,0-.5-.2-.5-.5v-6.3l5-5,5,5Z"/>
</svg>