<?xml version="1.0" encoding="UTF-8"?><svg id="Layer_1" xmlns="http://www.w3.org/2000/svg" viewBox="0 0 85.29 152.52"><defs><style>.cls-1{fill:#352506;stroke-width:0px;}</style></defs><path class="cls-1" d="m42.46,152.52c-6.6,0-13.19-.01-19.79-.03-4.84-.01-8.23-3.09-8.86-8.04-.8-6.35-1.64-12.69-2.48-19.03l-.92-6.97-.72-5.56c-.82-6.3-1.64-12.59-2.44-18.9-.1-.77-.36-1.28-1.34-1.47-4.03-.81-6.57-4.7-5.77-8.88,1.27-6.69,2.56-13.38,3.85-20.07l1.04-5.39c.74-3.86,3.64-6.26,7.58-6.26h31.09l.09-.32c.75-2.75,1.48-5.45,2.21-8.17l3.3-12.25c2.14-7.97,4.29-15.95,6.44-23.92C56.91,2.93,60.52,0,64.71,0c4.48,0,8.1,2.69,9.27,6.86.54,1.9.48,3.82-.17,5.69-4.34,12.47-8.69,24.96-13.05,37.43-.09.26-.61,1.84-.61,1.84l.72.04c.33.02.61.04.89.04h5.71c1.91,0,3.81,0,5.72,0,4.12,0,6.99,2.46,7.68,6.56,1.44,8.49,2.88,16.99,4.31,25.48.6,3.6-1.34,6.99-4.72,8.25-.74.28-1.09.71-1.2,1.48-1.04,6.61-2.1,13.21-3.16,19.81l-4.12,25.7c-.11.65-.21,1.3-.31,1.95-.2,1.28-.4,2.56-.63,3.83-.83,4.69-4.11,7.5-8.78,7.51-6.6.02-13.2.03-19.8.03Zm-30.01-59.16c0,.09,0,.16,0,.23.99,7.63,1.98,15.24,2.97,22.85l.77,5.87c.94,7.19,1.88,14.39,2.81,21.58.28,2.19,1.56,3.35,3.68,3.36,6.59,0,13.17,0,19.76,0s13.17,0,19.75,0c2.09,0,3.36-1.08,3.69-3.14.59-3.59,1.16-7.18,1.73-10.78l5.02-31.3c.35-2.14.69-4.27,1.03-6.43l.45-2.81H12.45v.57Zm64.04-5.89c.34,0,.69,0,1.03-.01.91-.02,1.59-.3,2.02-.82.44-.53.57-1.27.41-2.21-.27-1.52-.52-3.04-.78-4.57l-1.01-6.02c-.81-4.84-1.63-9.69-2.45-14.53-.26-1.54-1.02-2.17-2.61-2.17h-6.9c-2.3,0-4.6,0-6.9-.02-.34,0-.77.04-1.06.36-.3.32-.3.76-.27,1.07l.03.39h2.93c3.14.01,5.32,1.89,5.83,5.01.8,4.88,1.61,9.77,2.45,14.64.35,2.01-.05,3.81-1.11,5.07-1.05,1.25-2.74,1.95-4.75,1.95H23.25c-.72.01-1.43,0-2.15-.02-1.56-.06-3.02-.8-4.01-2.03-.98-1.21-1.38-2.76-1.12-4.25.92-5.18,1.92-10.32,2.89-15.3.68-3.46,2.66-5.08,6.24-5.08h6.37c3.06,0,6.12,0,9.17.01h.02c.43,0,.86-.04,1.15-.36.22-.24.31-.59.27-1.05l-.03-.39H13.05c-1.95,0-2.62.56-2.99,2.51-1.07,5.64-2.15,11.28-3.23,16.91l-.47,2.44c-.35,1.83-.7,3.66-1.04,5.49-.16.89-.03,1.6.39,2.12.42.52,1.1.81,2.02.84h68.77Zm-38.16-15.49c-6.04.03-11.41,2.11-15.87,4.13-.26.11-.6.36-.67.7-.17.75-.31,1.5-.45,2.27l-.24,1.29h43.1l-.08-.5c-.02-.12-.04-.22-.06-.32-.03-.14-.05-.25-.05-.35.01-.54-.11-.95-.39-1.23-.39-.4-.96-.44-1.36-.44-.96,0-1.92-.14-2.74-.29-5.79-.96-11.26-2.74-15.84-4.35-1.75-.62-3.47-.92-5.26-.92h-.07Zm18.23-7.75c-.33,0-.82.26-.95.6-.45,1.24-.89,2.49-1.34,3.79l-.71,2.05,9.31,1.9-.1-.61c-.39-2.4-.76-4.56-1.13-6.82l-.15-.92h-2.67c-.76,0-1.5,0-2.25.02h0Zm-26.11,0c-1.82,0-3.63,0-5.45,0-.39,0-.89.4-.97.78-.21.98-.4,1.98-.59,3.03l-.37,1.99,1.7-.6c5.14-1.86,9.43-2.72,13.48-2.72,1.54,0,1.8-.27,1.87-1.95v-.26s-.21-.13-.21-.13c-.09-.05-.21-.13-.37-.13-3.03,0-6.05-.02-9.08-.02ZM65,5.21c-.51,0-1.04.1-1.58.31-1.76.68-2.37,2.16-2.7,3.39-4.63,17.22-9.27,34.43-13.91,51.64-.61,2.26-1.95,7.21-1.95,7.21l.38.13c.6.21,1.17.4,1.73.6l1.55.53.29-.73c.1-.25.19-.48.28-.73l16.41-47.07c1.11-3.18,2.22-6.36,3.33-9.55.61-1.76.24-3.34-1.07-4.57-.82-.77-1.75-1.16-2.76-1.16Z"/></svg>