<svg width="76" height="136" viewBox="0 0 76 136" fill="none" xmlns="http://www.w3.org/2000/svg">
<path d="M38.651 45.805C39.3099 43.3757 39.9554 40.9937 40.6008 38.5982C43.4651 27.9635 46.3226 17.322 49.1936 6.68725C50.2761 2.66549 53.5841 0.00680237 57.4704 5.44413e-05C61.5584 -0.0134414 64.9336 2.48329 66.0161 6.32961C66.5137 8.09082 66.4599 9.84528 65.8548 11.5795C62.0223 22.5854 58.1831 33.598 54.3439 44.6039C54.2229 44.9547 54.1086 45.3124 53.9607 45.7577C54.3103 45.778 54.5927 45.7982 54.8684 45.7982C58.2302 45.7982 61.592 45.7915 64.9538 45.805C68.7728 45.8117 71.4622 48.1128 72.101 51.9051C73.3718 59.3953 74.6425 66.8923 75.8998 74.3892C76.4579 77.7227 74.6425 80.9144 71.4959 82.0818C70.958 82.2843 70.7563 82.5609 70.6756 83.0873C69.7544 88.9175 68.8199 94.7477 67.8853 100.571C66.675 108.129 65.4581 115.687 64.2478 123.244C63.9721 124.945 63.7234 126.652 63.4208 128.352C62.661 132.631 59.6421 135.276 55.3054 135.289C43.6601 135.33 32.0148 135.33 20.3762 135.289C15.8647 135.276 12.7516 132.327 12.1868 127.867C11.2186 120.214 10.1967 112.576 9.19483 104.93C8.26025 97.737 7.31895 90.5505 6.40453 83.3504C6.33057 82.7634 6.16921 82.5002 5.52374 82.372C1.73834 81.6162 -0.608198 77.9926 0.138123 74.099C1.56353 66.6088 3.00911 59.1186 4.44796 51.6352C5.13377 48.052 7.84339 45.805 11.5078 45.805C20.2216 45.7982 28.9354 45.805 37.6492 45.805C37.9652 45.805 38.2879 45.805 38.651 45.805ZM65.3303 82.6217C47.3917 82.6217 29.5741 82.6217 11.7431 82.6217C11.7431 82.7566 11.7364 82.8376 11.7431 82.9186C12.6104 89.6328 13.4845 96.3402 14.3586 103.054C15.4142 111.125 16.4765 119.202 17.5187 127.273C17.7405 128.987 18.6886 129.904 20.3964 129.911C32.0148 129.918 43.6332 129.918 55.2516 129.911C56.9123 129.911 57.8738 129.101 58.136 127.462C58.9227 122.65 59.6825 117.826 60.4557 113.008C61.6659 105.45 62.8829 97.8922 64.0932 90.3345C64.51 87.7771 64.9134 85.2264 65.3303 82.6217ZM37.1247 51.1763C36.8692 51.1763 36.6003 51.1763 36.3381 51.1763C28.189 51.1763 20.04 51.1763 11.891 51.1763C10.3446 51.1763 9.91426 51.5542 9.62515 53.086C8.68384 58.066 7.72909 63.0392 6.77433 68.0124C6.33057 70.3404 5.87337 72.6685 5.44306 75.0033C5.19428 76.3596 5.8263 77.1221 7.20464 77.1693C7.47359 77.1761 7.74253 77.1693 8.01148 77.1693C27.5638 77.1693 47.116 77.1693 66.6616 77.1693C67.3608 77.1693 68.0601 77.1828 68.7594 77.1626C70.1713 77.1289 70.7899 76.3393 70.5411 74.9358C70.2318 73.1813 69.9427 71.4269 69.6469 69.6724C68.6988 64.0379 67.7575 58.4034 66.7961 52.7688C66.5943 51.5745 66.0699 51.1696 64.8664 51.1696C60.8053 51.1628 56.7442 51.1763 52.6832 51.1561C52.0982 51.1561 51.8293 51.3383 51.8831 52.0063C52.6294 52.0063 53.3757 52.0063 54.122 52.0063C57.0872 52.0198 59.158 53.8215 59.6354 56.7434C60.3414 61.0485 61.0541 65.3605 61.7937 69.6589C62.466 73.5255 60.1733 76.2921 56.2534 76.2921C45.2536 76.2921 34.2538 76.2921 23.2539 76.2921C21.8285 76.2921 20.4031 76.3259 18.9777 76.2719C15.9117 76.1572 13.5585 73.3163 14.0963 70.2865C14.8965 65.7788 15.7705 61.278 16.6446 56.7839C17.2833 53.5179 19.1794 51.9996 22.521 51.9996C27.0931 51.9996 31.6652 51.9928 36.2372 52.0131C36.8491 52.0266 37.1852 51.8916 37.1247 51.1763ZM42.9676 60.7989C43.102 60.4547 43.2231 60.1646 43.3306 59.8609C47.6203 47.5594 51.91 35.2512 56.1996 22.9498C57.7125 18.6041 59.2387 14.2584 60.7448 9.90601C61.2222 8.52943 60.9734 7.28107 59.8976 6.27563C58.9093 5.35116 57.7393 5.11498 56.4619 5.60083C55.2113 6.07994 54.6465 7.09213 54.3103 8.33374C50.2291 23.5233 46.1344 38.7129 42.0397 53.8957C41.5018 55.8931 40.9639 57.8838 40.4126 59.9216C41.3001 60.2321 42.1069 60.502 42.9676 60.7989ZM56.5627 70.9073C56.5156 70.6306 56.4551 70.4484 56.4551 70.2595C56.4753 69.4362 56.0853 69.1596 55.2852 69.1596C54.4582 69.1596 53.6245 69.0448 52.8042 68.9031C47.9968 68.1069 43.3508 66.6628 38.7653 65.0501C37.2727 64.5237 35.7666 64.2538 34.1932 64.2606C29.2715 64.2876 24.76 65.8666 20.3493 67.8707C20.1947 67.9382 19.9997 68.0866 19.9661 68.2283C19.7711 69.1056 19.6164 69.9895 19.4416 70.9073C31.8669 70.9073 44.1778 70.9073 56.5627 70.9073ZM54.2969 57.4114C52.9051 57.4114 51.594 57.3979 50.2829 57.4249C50.1148 57.4249 49.8458 57.5734 49.792 57.7151C49.234 59.2401 48.7095 60.7786 48.1246 62.4454C50.5652 62.9447 52.8849 63.4171 55.3794 63.9232C55.0028 61.6356 54.6599 59.5842 54.2969 57.4114ZM21.2167 61.5951C21.5932 61.4602 21.8487 61.3724 22.0975 61.2847C25.9837 59.8812 29.9506 58.8622 34.1193 58.8622C35.269 58.8622 35.343 58.7812 35.3968 57.5059C35.3497 57.4789 35.3026 57.4384 35.2556 57.4384C30.9793 57.4249 26.7099 57.4182 22.4336 57.4317C22.2655 57.4317 21.9764 57.6543 21.9428 57.8163C21.6806 59.0174 21.4722 60.2388 21.2167 61.5951Z" fill="#131A22"/>
</svg>
