<?xml version="1.0" encoding="UTF-8"?>
<svg id="Layer_1" data-name="Layer 1" xmlns="http://www.w3.org/2000/svg" version="1.1" viewBox="0 0 800 800">
  <defs>
    <style>
      .cls-1 {
        fill: #ffb612;
        stroke-width: 0px;
      }
    </style>
  </defs>
  <path class="cls-1" d="M157.6,800h484.8c20.1,0,36.4-16.3,36.4-36.4v-412.1c0-20.1-16.3-36.4-36.4-36.4h-36.4v-109.1C606.1,92.4,513.6,0,400,0s-206.1,92.4-206.1,206.1v109.1h-36.4c-20.1,0-36.4,16.3-36.4,36.4v412.1c0,20.1,16.3,36.4,36.4,36.4ZM436.4,569.7v48.5c0,20.1-16.3,36.4-36.4,36.4s-36.4-16.3-36.4-36.4v-48.5c-14.7-11.1-24.2-28.7-24.2-48.5,0-33.4,27.2-60.6,60.6-60.6s60.6,27.2,60.6,60.6-9.5,37.4-24.2,48.5ZM266.7,206.1c0-73.5,59.8-133.3,133.3-133.3s133.3,59.8,133.3,133.3v109.1h-266.7v-109.1Z"/>
</svg>