<?xml version="1.0" encoding="UTF-8"?><svg id="Layer_1" xmlns="http://www.w3.org/2000/svg" viewBox="0 0 114.36 152.52"><defs><style>.cls-1{fill:#352506;stroke-width:0px;}</style></defs><path class="cls-1" d="m11.52,152.52c-.41,0-.81-.06-1.2-.19-.51-.17-.96-.43-1.36-.79-1.21-.99-2.27-2.16-3.12-3.48-1.08-1.69-1.95-3.52-2.59-5.41-.86-2.53-1.51-5.15-1.93-7.8-.63-3.93-1.03-7.94-1.18-11.92-.17-3.78-.19-7.74-.06-12.12.1-3.39.26-6.83.48-10.21.19-3.01.44-6.19.79-10.03.32-3.47.71-7.04,1.05-10.07.44-3.9.82-7.07,1.19-9.98.37-2.9.77-5.79,1.16-8.69l1.01-7.43c.29-2.1.58-4.21.86-6.31.3-2.24.59-4.49.88-6.73l.17-1.35c.08-.65.15-1.3.19-1.95.04-.69.33-1.33.84-1.8.5-.47,1.15-.72,1.84-.72h16.1c.07-.26.1-.52.07-.79.11-3.23.51-6.44,1.17-9.57.85-4.29,2.42-8.38,4.65-12.16,1.93-3.26,4.6-6.12,7.73-8.29,2.9-1.96,6.11-3.31,9.55-4,2.37-.49,4.81-.74,7.23-.74.56,0,1.11.01,1.67.04,2.6.09,5.2.47,7.72,1.13,6.16,1.6,11.4,5.42,14.77,10.76,1.77,2.77,3.13,5.77,4.05,8.92.87,2.95,1.49,5.99,1.83,9.03.17,1.45.27,2.92.37,4.34l.07.95c0,.12.02.22.03.32,0,0,0,.02,0,.03.12.03.23.04.36.04.07,0,.14,0,.21-.02h15.74c.65,0,1.27.24,1.76.68.48.43.78,1.03.85,1.67.09.76.18,1.52.26,2.28.11,1.02.23,2.04.36,3.06.22,1.77.47,3.61.72,5.41l.87,6.42s.57,4.13.73,5.25c.24,1.75.48,3.55.71,5.33v.1c.25,1.82.5,3.64.73,5.46.25,1.94.49,3.87.71,5.82.2,1.65.39,3.3.57,4.95.2,1.78.38,3.57.56,5.35.2,2.02.39,4.04.57,6.07.13,1.45.25,2.9.35,4.35l.06.96c.15,2.25.3,4.52.41,6.78.23,4.73.31,9.04.24,13.15-.04,1.88-.09,4.1-.21,6.34-.2,4.45-.79,8.92-1.74,13.28-.52,2.36-1.28,4.69-2.26,6.9-.6,1.35-1.35,2.63-2.23,3.82-.84,1.13-1.86,2.12-3.02,2.94-.5.38-1.14.58-1.78.58H11.86c-.1,0-.22.01-.34.01Zm90.49-5.32c.12,0,.24-.02.36-.07.14-.06.27-.15.37-.27.14-.15.29-.28.43-.41,1.03-1.1,1.84-2.32,2.43-3.64.75-1.64,1.34-3.36,1.76-5.11.83-3.52,1.36-7.14,1.57-10.74.19-2.63.3-5.47.32-8.68,0-4.22-.17-8.48-.33-12.09-.04-1-.1-2-.17-2.99l-.08-1.09c-.16-2.11-.32-4.21-.49-6.32-.17-2.02-.34-4.04-.54-6.06-.28-2.73-.58-5.45-.89-8.18-.33-2.88-.66-5.76-1.03-8.64-.35-2.76-.72-5.53-1.1-8.29l-.93-6.82c-.28-2.07-.57-4.14-.84-6.21l-1.3-9.72c-.03-.24-.07-.49-.11-.73l-.04-.25s-.04,0-.06-.01h-13.78s-.01.09-.02.14c-.12,2.38-.26,4.39-.51,6.39-.01.16.04.33.13.47.33.58.49,1.21.47,1.85-.02.64-.22,1.26-.58,1.8-.35.54-.85.97-1.43,1.24-.47.22-1,.34-1.53.34-.12,0-.23,0-.35-.02-.64-.06-1.26-.3-1.77-.68-.52-.39-.92-.9-1.16-1.5-.24-.59-.31-1.24-.2-1.87.11-.63.39-1.22.81-1.71.17-.16.27-.34.3-.54.21-1.76.36-3.69.46-5.72,0-.05,0-.11-.02-.16-.05,0-.09,0-.14-.01h-49.77v.22c0,.4.03.8.06,1.2v.13c.13,1.39.25,2.78.37,4.17,0,.16.03.29.08.42.05.13.13.24.23.33.09.09.18.2.24.31.37.53.59,1.17.6,1.84.02.67-.17,1.33-.53,1.89-.34.56-.83,1.01-1.42,1.31-.5.25-1.05.38-1.61.38-.1,0-.2,0-.3-.01-.66-.06-1.29-.29-1.82-.68-.53-.39-.94-.92-1.18-1.53-.2-.47-.29-1-.25-1.52.04-.52.2-1.03.47-1.48.13-.21.18-.46.14-.7-.31-2.3-.48-4.21-.56-6.02-.01-.09-.03-.2-.05-.3h-13.69s-.05.01-.09.02c0,.03-.02.05-.02.08l-.13,1.08c-.07.57-.14,1.14-.21,1.71-.23,1.83-.47,3.66-.72,5.49-.17,1.27-.35,2.55-.53,3.82l-.53,3.84c-.24,1.73-.48,3.45-.7,5.18-.24,1.78-.48,3.55-.71,5.33-.24,1.83-.48,3.66-.71,5.49l-.16,1.28c-.19,1.5-.38,3-.56,4.53-.24,2.1-.48,4.19-.7,6.29l-.09.89c-.22,2.06-.44,4.11-.63,6.19-.22,2.18-.41,4.36-.58,6.55l-.09,1.28c-.18,2.4-.36,4.87-.46,7.31-.12,2.57-.2,5.31-.25,8.38-.12,5.14.1,10.34.67,15.45.26,2.42.7,4.84,1.29,7.19.48,1.93,1.2,3.79,2.14,5.55.55,1.03,1.24,1.97,2.07,2.8q.62.61,1.48.61h88.51c.08,0,.18,0,.28,0s.41.01.41.01Zm-19.93-111.67s.06,0,.08,0c.03-.3.02-.6-.02-.9-.11-1.71-.27-3.71-.57-5.66-.35-2.35-.89-4.7-1.61-6.96-.89-2.86-2.23-5.54-3.97-7.98-2.77-3.88-6.87-6.66-11.53-7.82-2.37-.61-4.81-.91-7.26-.91-1.94,0-3.89.19-5.79.58-2.88.51-5.55,1.59-7.96,3.21-2.4,1.62-4.39,3.7-5.91,6.15-1.26,1.99-2.27,4.13-3,6.36-1.37,4.03-2.13,8.56-2.34,13.84,0,.03.01.07.02.11h49.86Z"/></svg>