<svg width="109" height="144" viewBox="0 0 109 144" fill="none" xmlns="http://www.w3.org/2000/svg">
<path d="M26.6078 34.9454C26.7288 34.6205 26.7769 34.2736 26.7485 33.9285C26.8525 30.9678 27.2156 28.0214 27.8339 25.1225C28.6206 21.1771 30.0704 17.3897 32.1232 13.9174C33.9066 10.9045 36.3283 8.30835 39.2224 6.30696C41.8663 4.51689 44.8459 3.26765 47.9859 2.63282C50.6811 2.07755 53.4365 1.86135 56.1866 1.98935C58.589 2.06957 60.9745 2.41734 63.2979 3.02605C68.9253 4.4872 73.7738 8.02016 76.8492 12.9005C78.4768 15.4501 79.7314 18.2142 80.5757 21.1108C81.3827 23.8374 81.9477 26.6284 82.2641 29.452C82.4531 31.0846 82.5495 32.721 82.6661 34.3575C82.6661 34.5243 82.7023 34.6912 82.7184 34.858C82.9741 34.9557 83.2512 34.9859 83.5224 34.9454H97.351C97.5962 34.9454 97.8455 34.9454 98.0947 34.9454C98.6334 34.9506 99.1513 35.1521 99.5489 35.5113C99.9465 35.8704 100.196 36.362 100.249 36.8917C100.446 38.544 100.619 40.2004 100.824 41.8488C101.029 43.4972 101.258 45.2012 101.488 46.8734C101.756 48.8594 102.024 50.8455 102.292 52.8315C102.517 54.4561 102.746 56.0806 102.967 57.7052C103.188 59.3297 103.413 61.002 103.63 62.6543C103.859 64.3742 104.088 66.0981 104.306 67.818C104.536 69.6134 104.756 71.4114 104.965 73.212C105.15 74.7426 105.327 76.2745 105.495 77.8077C105.678 79.4601 105.849 81.1151 106.01 82.7727C106.195 84.6475 106.372 86.5237 106.541 88.4011C106.661 89.7437 106.774 91.0862 106.866 92.4288C107.023 94.812 107.188 97.2151 107.304 99.6102C107.505 103.67 107.598 107.733 107.526 111.8C107.489 113.759 107.437 115.717 107.329 117.671C107.143 121.804 106.605 125.913 105.721 129.957C105.24 132.137 104.544 134.266 103.642 136.312C103.092 137.545 102.409 138.715 101.604 139.803C100.838 140.831 99.9125 141.733 98.8625 142.477C98.4007 142.82 97.8322 142.994 97.2546 142.969C97.0576 142.969 96.8526 142.969 96.6596 142.969H12.6826C12.2283 143.013 11.7696 142.962 11.3366 142.819C10.9036 142.676 10.5061 142.444 10.1701 142.139C9.0588 141.231 8.09606 140.159 7.31598 138.961C6.32503 137.407 5.52861 135.74 4.9442 133.996C4.14529 131.652 3.54821 129.246 3.15934 126.803C2.57121 123.152 2.20741 119.47 2.06993 115.776C1.90511 112.031 1.90511 108.285 2.00963 104.544C2.10075 101.387 2.24949 98.2333 2.45584 95.0821C2.6488 91.9799 2.90608 88.8778 3.1915 85.7835C3.47691 82.6893 3.81861 79.5514 4.16835 76.4373C4.51808 73.3233 4.87586 70.2608 5.26982 67.1785C5.72005 63.6553 6.21049 60.144 6.68886 56.6248C7.15116 53.2049 7.62551 49.7889 8.08379 46.369C8.42146 43.8706 8.73904 41.3682 9.06064 38.8698C9.13702 38.262 9.20536 37.6543 9.24154 37.0426C9.27055 36.4736 9.52098 35.9377 9.9405 35.5469C10.36 35.1561 10.9162 34.9406 11.4927 34.9454C11.7379 34.9454 11.9872 34.9454 12.2364 34.9454H26.6158H26.6078ZM13.5148 39.4179C13.4775 39.4897 13.4492 39.5658 13.4303 39.6443C13.3218 40.5182 13.2213 41.392 13.1087 42.2659C12.8917 43.9659 12.6692 45.6646 12.4414 47.362C12.1721 49.348 11.8907 51.334 11.6173 53.32C11.344 55.3061 11.0626 57.2921 10.8133 59.2781C10.5882 60.9252 10.3671 62.5749 10.15 64.2273C9.92761 65.9247 9.70785 67.6234 9.49077 69.3234C9.26566 71.1188 9.03652 72.8982 8.82346 74.7135C8.59834 76.6598 8.38127 78.6061 8.17223 80.5524C7.93907 82.741 7.70189 84.9216 7.49687 87.1261C7.29588 89.1465 7.11498 91.1749 6.95418 93.2113C6.76122 95.8725 6.55218 98.5338 6.4356 101.195C6.31099 103.789 6.24265 106.383 6.20647 108.976C6.09032 113.775 6.29848 118.576 6.82956 123.347C7.07441 125.608 7.47737 127.85 8.03555 130.056C8.48797 131.866 9.16298 133.615 10.0455 135.263C10.5646 136.24 11.2256 137.137 12.0073 137.925C12.6625 138.568 12.6625 138.568 13.563 138.568H95.7109C95.8836 138.558 96.0567 138.558 96.2295 138.568C96.4153 138.587 96.603 138.561 96.7762 138.492C96.9494 138.423 97.1026 138.312 97.2224 138.171C97.3591 138.028 97.5078 137.897 97.6445 137.774C98.5838 136.761 99.3509 135.605 99.9158 134.35C100.62 132.811 101.172 131.208 101.564 129.563C102.34 126.273 102.831 122.923 103.031 119.55C103.228 116.865 103.309 114.172 103.325 111.479C103.325 107.729 103.188 103.987 103.019 100.246C102.979 99.3163 102.925 98.3895 102.858 97.4653C102.686 95.1695 102.517 92.8776 102.328 90.5818C102.175 88.703 102.014 86.8282 101.825 84.9534C101.568 82.4192 101.287 79.889 100.997 77.3588C100.692 74.6857 100.386 72.0125 100.044 69.3393C99.6424 66.1617 99.2042 62.984 98.7741 59.8064C98.3118 56.3865 97.8374 52.9705 97.3792 49.5506C96.9772 46.5437 96.5752 43.5329 96.1732 40.5261C96.1249 40.1646 96.0647 39.8072 96.0124 39.4536C95.9339 39.42 95.8516 39.396 95.7672 39.3821H82.9314C82.8547 39.3956 82.7803 39.4197 82.7103 39.4536C82.6874 39.5479 82.67 39.6434 82.6581 39.7396C82.5536 41.7257 82.4289 43.7117 82.1837 45.6659C82.1668 45.8854 82.2264 46.1041 82.3526 46.2856C82.6238 46.7614 82.7576 47.3016 82.7395 47.8474C82.7213 48.3932 82.5519 48.9236 82.2496 49.3808C81.9474 49.838 81.5239 50.2044 81.0254 50.4402C80.5268 50.6759 79.9724 50.7719 79.4224 50.7177C78.8725 50.6635 78.3481 50.4612 77.9066 50.1328C77.465 49.8044 77.1231 49.3625 76.9182 48.8553C76.7133 48.3481 76.6533 47.7951 76.7446 47.2565C76.8359 46.7179 77.0751 46.2145 77.4361 45.801C77.6157 45.6327 77.7343 45.4108 77.7738 45.1694C77.9829 43.3939 78.1195 41.5946 78.204 39.827C78.1982 39.6929 78.178 39.5597 78.1437 39.4298C78.0345 39.4111 77.9245 39.3978 77.814 39.3901H31.5081C31.4843 39.3842 31.4595 39.3842 31.4357 39.3901C31.4009 39.4176 31.3686 39.4482 31.3393 39.4814C31.3393 39.5768 31.3393 39.7198 31.3393 39.8588C31.3393 40.2759 31.3754 40.6929 31.4076 41.106C31.5175 42.4009 31.63 43.6931 31.7453 44.9827C31.7449 45.1427 31.777 45.3011 31.8399 45.4485C31.9027 45.5959 31.995 45.7293 32.1111 45.8407C32.1822 45.9085 32.2432 45.9861 32.292 46.0711C32.6216 46.5375 32.8047 47.0897 32.8183 47.6584C32.8319 48.2272 32.6754 48.7873 32.3684 49.2686C32.0779 49.7472 31.6574 50.1357 31.1546 50.3899C30.6518 50.6442 30.0869 50.754 29.5241 50.7068C28.9613 50.6596 28.4231 50.4574 27.9709 50.1231C27.5186 49.7888 27.1703 49.3359 26.9655 48.8158C26.7931 48.4059 26.72 47.9618 26.7521 47.5191C26.7842 47.0763 26.9206 46.6471 27.1505 46.2657C27.3026 46.0168 27.3609 45.7228 27.3153 45.4355C27.0701 43.5925 26.8771 41.7415 26.7967 39.8747C26.7762 39.697 26.7454 39.5206 26.7042 39.3464H13.7881C13.6951 39.3626 13.6037 39.3865 13.5148 39.4179ZM78.1718 34.8937C78.222 34.5287 78.222 34.1586 78.1718 33.7935C78.0552 32.0339 77.9105 30.2782 77.6452 28.5345C77.3217 26.3307 76.8189 24.1562 76.1417 22.0323C75.3088 19.3604 74.0524 16.8359 72.4192 14.5529C69.807 10.8983 65.9566 8.28868 61.5653 7.19669C57.5672 6.17784 53.3869 6.07053 49.3406 6.8829C46.6589 7.35481 44.1093 8.3847 41.861 9.90426C39.6127 11.4238 37.7171 13.3984 36.2999 15.6969C35.1187 17.5616 34.1736 19.5626 33.4859 21.6549C32.0669 25.8454 31.4759 30.175 31.3031 34.568C31.3153 34.6942 31.3437 34.8183 31.3875 34.9374H77.8542C77.9612 34.932 78.0674 34.9174 78.1718 34.8937Z" fill="#131A22" stroke="#131A22" stroke-width="2"/>
</svg>
