<?xml version="1.0" encoding="UTF-8"?>
<svg id="Layer_1" data-name="Layer 1" xmlns="http://www.w3.org/2000/svg" version="1.1" viewBox="0 0 67.9 117.2">
  <defs>
    <style>
      .cls-1 {
        fill: #b5b5b5;
      }

      .cls-1, .cls-2, .cls-3, .cls-4, .cls-5, .cls-6 {
        stroke-width: 0px;
      }

      .cls-2 {
        fill: #c9c9c9;
      }

      .cls-3 {
        fill: #d8d8d8;
      }

      .cls-4 {
        fill: #fff;
      }

      .cls-5 {
        fill: #989c9f;
      }

      .cls-6 {
        fill: #e5e5e5;
      }
    </style>
  </defs>
  <g id="Layer_2" data-name="Layer 2">
    <g id="ALCOOL">
      <path class="cls-3" d="M8.1,18.6h0C8.1,8.3,15.5,0,24.6,0h19.4c9.1,0,16.4,8.3,16.4,18.6h0c0,2.6,0,4.8-4.2,4.8H12.4c-4.2,0-4.2-2.1-4.2-4.8Z"/>
      <path class="cls-2" d="M56.2,23.2c4.2,0,4.2-2.1,4.2-4.7h0c0-10.2-7.3-18.4-16.4-18.4l3.4,3.3c2.2,2,3.8,4.6,4.6,7.5,1.4,5.3-.4,10-6.4,12.4h10.6Z"/>
      <path class="cls-5" d="M23.4,5c.7,0,1.2-.6,1.2-1.2s-.6-1.2-1.2-1.2-1.2.6-1.2,1.2.6,1.2,1.2,1.2Z"/>
      <path class="cls-6" d="M7.6,33.1L0,109.7c-.4,3.7,2.3,7,6.1,7.4.2,0,.4,0,.7,0h54.4c3.7,0,6.7-3,6.7-6.7,0-.2,0-.4,0-.7l-7.2-74.7c-.2-2.3-.9-4.5-2.1-6.5-1.6-2.8-2.2-2.8-4.9-2.8H14.4c-3.2,0-3.4,0-6.1,5-.4.7-.6,1.5-.7,2.3Z"/>
      <path class="cls-3" d="M57,117.2h5.5c2.6-.9,5.7-4.7,5.4-7.4l-5.4-54.9c-1.1-14.4-1.4-27.1-6.9-29h-11.8c0-.1,20.1,19.7,1,91.3h12.2Z"/>
      <rect class="cls-1" x="4.4" y="22.8" width="59.2" height="2.9" rx="1.5" ry="1.5"/>
      <path class="cls-5" d="M37.3,5c.7,0,1.2-.6,1.2-1.2s-.6-1.2-1.2-1.2-1.2.6-1.2,1.2.6,1.2,1.2,1.2Z"/>
      <path class="cls-5" d="M44,5c.7,0,1.2-.6,1.2-1.2s-.6-1.2-1.2-1.2-1.2.6-1.2,1.2.6,1.2,1.2,1.2Z"/>
      <path class="cls-5" d="M30.5,5c.7,0,1.2-.6,1.2-1.2s-.6-1.2-1.2-1.2-1.2.6-1.2,1.2.6,1.2,1.2,1.2Z"/>
      <path class="cls-4" d="M13,13.2c-.2,0-.3,0-.5,0-.8-.3-1.2-1.1-.9-1.9.9-2.5,2.6-4.5,4.9-5.9.7-.4,1.7-.1,2.1.6.4.7.1,1.7-.6,2.1-1.6,1-2.8,2.5-3.5,4.2-.2.6-.8,1-1.4,1Z"/>
      <path class="cls-4" d="M11.5,74.6l.6-7c0-1-.8-1.8-1.8-1.9-.9,0-1.7.6-1.8,1.6l-.6,7c0,1,.6,1.9,1.6,2,1,0,1.9-.6,2-1.6h0Z"/>
      <path class="cls-4" d="M12.7,60.5l2-22.7c.1-1-.6-2-1.6-2.1-1.1,0-1.9.8-2,1.8,0,0,0,0,0,0l-2,22.6c-.1,1,.6,2,1.6,2.1,0,0,0,0,0,0,1,0,1.9-.7,2-1.8,0,0,0,0,0,0Z"/>
    </g>
  </g>
</svg>