<?xml version="1.0" encoding="UTF-8"?><svg id="Layer_1" xmlns="http://www.w3.org/2000/svg" viewBox="0 0 124.37 152.52"><defs><style>.cls-1{fill:#352506;stroke-width:0px;}</style></defs><path class="cls-1" d="m90.85,59.34c-8.7,0-17.45,1.27-23.83,3.74v-9.49c3.92.57,8.09.86,12.24.86,16.65,0,33.51-4.64,33.51-13.51V13.51C112.79,4.64,95.92,0,79.27,0s-33.51,4.64-33.51,13.51v23.72c-3.92-.57-8.09-.86-12.24-.86C16.86,36.36,0,41.01,0,49.87v27.44c0,4.81,4.97,8.38,12.17,10.63v24.91c0,8.87,16.86,13.51,33.51,13.51,1.04,0,2.08-.02,3.12-.05v12.7c0,8.87,16.86,13.51,33.51,13.51s33.51-4.64,33.51-13.51v-27.44c0-.65-.1-1.27-.27-1.87,5.34-2.24,8.81-5.39,8.81-9.41v-27.44c0-8.87-16.86-13.51-33.51-13.51Zm-67.83,15.88c-.8-.11-1.58-.22-2.33-.35v-12.44c.81.13,1.64.24,2.47.34v12.4s-.09.03-.14.05Zm5.39-1.52v-10.46c.82.05,1.65.08,2.47.11v9.85c-.84.15-1.67.32-2.47.51Zm7.72-1.27v-9.09c.83-.02,1.65-.06,2.47-.11v8.96c-.83.07-1.66.14-2.47.23Zm9.55-.52c-.61,0-1.22,0-1.83.02v-9.16c.83-.1,1.66-.21,2.47-.34v9.48c-.22,0-.43,0-.65,0Zm5.9.2v-10.7c.85-.2,1.67-.42,2.47-.66v11.55c-.82-.08-1.64-.15-2.47-.2Zm7.72-4.14v-9.16c.89-.41,1.72-.85,2.47-1.32v8.29c-.97.68-1.8,1.41-2.47,2.19Zm48.23-44.78v8.09c0,.91-.87,1.95-2.47,2.97v-11.81c.89-.41,1.72-.85,2.47-1.32v2.07Zm-28.26-17.93c16.99,0,28.26,4.97,28.26,8.26s-11.27,8.26-28.26,8.26-28.26-4.97-28.26-8.26,11.27-8.26,28.26-8.26Zm20.54,19.14v12.23c-.77.26-1.6.51-2.47.74v-12.32c.85-.2,1.67-.42,2.47-.66Zm-7.72,1.68v12.44c-.8.14-1.62.26-2.47.37v-12.47c.83-.1,1.66-.21,2.47-.34Zm-7.72.8v12.51c-.81.05-1.63.09-2.47.11v-12.51c.83-.02,1.65-.06,2.47-.11Zm-7.72.11v12.51c-.84-.03-1.66-.06-2.47-.11v-12.51c.82.05,1.65.08,2.47.11Zm-7.72-.57v12.47c-.85-.11-1.67-.24-2.47-.37v-12.44c.81.13,1.64.24,2.47.34Zm-7.72-1.36v12.32c-.87-.24-1.7-.48-2.47-.74v-12.23c.8.23,1.63.45,2.47.66Zm-10.19-1.86v-2.07c.76.47,1.59.91,2.47,1.32v11.81c-1.61-1.03-2.47-2.06-2.47-2.97v-8.09Zm28.26,21.6c10.95,0,21.99-2.01,28.26-5.9v2.07c0,3.29-11.27,8.26-28.26,8.26-4.61,0-8.79-.37-12.44-.97-.47-1.88-1.74-3.55-3.62-4.99,4.96,1.01,10.52,1.53,16.06,1.53Zm-45.76-3.17c4.61,0,8.79.37,12.44.97,4.03.66,7.41,1.6,10,2.64.3.12.6.25.88.37,3.18,1.41,4.95,2.98,4.95,4.28,0,.73-.55,1.54-1.6,2.36-3.67,2.89-13.43,5.9-26.67,5.9-16.99,0-28.26-4.97-28.26-8.26s11.27-8.26,28.26-8.26Zm-18.07,19.8v12.32c-.87-.24-1.7-.48-2.47-.74v-12.23c.8.23,1.63.45,2.47.66Zm-10.19-1.86v-2.07c.76.47,1.59.91,2.47,1.32v11.81c-1.61-1.03-2.47-2.06-2.47-2.97v-8.09Zm0,17.76v-2.07c2.68,1.66,6.23,2.98,10.26,3.94-1.23,1.03-2.16,2.17-2.72,3.41-4.81-1.64-7.55-3.67-7.55-5.29Zm12.17,8.11c0-.44.21-.91.59-1.39.91-1.13,2.86-2.35,5.67-3.43,4.96-1.92,12.6-3.44,22-3.44,3.81,0,7.32.25,10.49.67.39.05.78.11,1.16.16,1.35.2,2.63.44,3.85.7,1.94.42,3.69.9,5.22,1.43,4.81,1.64,7.55,3.67,7.55,5.29,0,.62-.4,1.3-1.17,2-.6.55-1.44,1.1-2.47,1.65-1.39.73-3.16,1.44-5.25,2.07-.66.2-1.36.39-2.09.58-1.71.43-3.59.81-5.63,1.12-3.46.52-7.38.84-11.65.84-9.33,0-16.92-1.5-21.88-3.39-4.08-1.56-6.38-3.38-6.38-4.87Zm83.78,12.8v-12.47c.83-.1,1.66-.21,2.47-.34v12.44c-.8.14-1.62.26-2.47.37Zm-5.25.5c-.71.04-1.44.07-2.18.1-.1-.01-.19-.03-.29-.04v-12.46c.83-.02,1.65-.06,2.47-.11v12.51Zm-7.72-.46c-.82-.05-1.65-.1-2.47-.13v-11.92c.82.05,1.65.08,2.47.11v11.94Zm-7.72-.18c-.25,0-.51.01-.76.02-.18-.03-.36-.05-.54-.08v-12.45c.43.06.86.13,1.3.18v12.34Zm-22.89,4.08c-.54.23-1.07.46-1.58.71v-4.56c.44-.05.87-.12,1.3-.18.39-.05.78-.1,1.17-.16v3.82c-.3.12-.6.24-.9.36Zm-6.83,4.51c-1.22,1.4-1.92,2.97-1.97,4.71-.17,0-.33.02-.5.02v-12.51c.83-.02,1.65-.06,2.47-.11v7.89Zm12.97-9.71c.85-.2,1.67-.42,2.47-.66v3.3c-.24.05-.48.1-.72.15-.6.13-1.18.27-1.76.41v-3.21Zm7.72,1.78v-4.39c.45-.21.88-.43,1.3-.65.41-.22.8-.44,1.17-.67v5.44c-.83.08-1.66.17-2.47.27Zm-28.42.15v12.51c-.84-.03-1.66-.06-2.47-.11v-12.51c.82.05,1.65.08,2.47.11Zm-7.72-.57v12.47c-.85-.11-1.67-.24-2.47-.37v-12.44c.81.13,1.64.24,2.47.34Zm-7.72-1.36v12.32c-.87-.24-1.7-.48-2.47-.74v-12.23c.8.23,1.63.45,2.47.66Zm-7.72-2.61v11.81c-1.61-1.03-2.47-2.06-2.47-2.97v-10.16c.76.47,1.59.91,2.47,1.32Zm25.79,26.77c-16.99,0-28.26-4.97-28.26-8.26v-2.07c6.28,3.89,17.32,5.9,28.26,5.9,1.04,0,2.08-.02,3.12-.06v4.43c-1.02.04-2.06.06-3.12.06Zm8.37.13v-2.07c.7.44,1.48.85,2.3,1.23.06.03.12.06.18.09v11.81c-1.61-1.03-2.47-2.06-2.47-2.97v-8.09Zm17.92,3.22v12.47c-.85-.11-1.67-.24-2.47-.37v-12.44c.81.13,1.64.24,2.47.34Zm-7.72-.2v11.16c-.87-.24-1.7-.48-2.47-.74v-12.23c.8.23,1.63.45,2.47.66v1.16Zm46.33,14.74c0,3.29-11.27,8.26-28.26,8.26s-28.26-4.97-28.26-8.26v-2.07c6.28,3.89,17.32,5.9,28.26,5.9s21.99-2.01,28.26-5.9v2.07Zm-33.36-1.57v-12.51c.82.05,1.65.08,2.47.11v12.51c-.84-.03-1.66-.06-2.47-.11Zm7.72.11v-12.51c.83-.02,1.65-.06,2.47-.11v12.51c-.81.05-1.63.09-2.47.11Zm7.72-.61v-12.47c.83-.1,1.66-.21,2.47-.34v12.44c-.8.14-1.62.26-2.47.37Zm7.72-1.51v-12.32c.85-.2,1.67-.42,2.47-.66v12.23c-.77.26-1.6.51-2.47.74Zm10.19-14.18v8.09c0,.91-.87,1.95-2.47,2.97v-11.81c.89-.41,1.72-.85,2.47-1.32v2.07Zm0-9.67c0,3.29-11.27,8.26-28.26,8.26-2.47,0-4.81-.11-7.02-.3-3.33-.29-6.34-.76-8.99-1.36-3.07-.7-5.64-1.55-7.62-2.47-2.98-1.38-4.63-2.88-4.63-4.13,0-.81.69-1.73,1.98-2.64.67-.47,1.49-.95,2.47-1.41.68-.32,1.43-.63,2.25-.93.92-.34,1.92-.67,3-.97.78-.22,1.61-.43,2.47-.62.5-.11,1-.22,1.53-.32,1.18-.23,2.42-.45,3.72-.63.77-.11,1.55-.2,2.36-.29,1.7-.18,3.49-.31,5.37-.38.06,0,.12,0,.18,0,.96-.03,1.94-.05,2.94-.05,4.07,0,7.81.29,11.15.77,4.96.71,9.03,1.85,11.95,3.12,3.18,1.38,5,2.91,5.15,4.2,0,.06.02.12.02.17Zm8.53-11.28c0,1.52-2.42,3.4-6.7,4.99-1.29-1.06-2.89-2.01-4.76-2.84,4.53-.98,8.52-2.39,11.46-4.21v2.07Zm-10.19-3.58v-12.32c.85-.2,1.67-.42,2.47-.66v12.23c-.77.26-1.6.51-2.47.74Zm10.19-14.18v8.09c0,.91-.87,1.95-2.47,2.97v-11.81c.89-.41,1.72-.85,2.47-1.32v2.07Zm-28.26-1.42c-5.4,0-10.22-.5-14.29-1.29-2.15-2.08-5.49-3.76-9.53-5.03-1.34-.42-2.75-.79-4.22-1.12-.14-.28-.22-.55-.22-.81,0-1.23,1.58-2.69,4.44-4.05,4.79-2.26,13.19-4.21,23.83-4.21,16.99,0,28.26,4.97,28.26,8.26s-11.27,8.26-28.26,8.26Z"/></svg>