<svg xmlns="http://www.w3.org/2000/svg" viewBox="0 0 180.79 98.5"><defs><style>.cls-1{fill:#131a22;}</style></defs><g id="Layer_2" data-name="Layer 2"><g id="Layer_1-2" data-name="Layer 1"><path class="cls-1" d="M1.72,78.46c4.74,4.47,10.53,7.14,16.51,9.41,10.83,4.1,22.09,6.4,33.5,8a274.41,274.41,0,0,0,46.1,2.5c19.08-.51,38-2.46,56.4-7.74,6.8-1.94,13.43-4.32,19.46-8.09a46.19,46.19,0,0,0,5.45-4.13,8.51,8.51,0,0,0,1.65-1.69v-36c0-1.6-.09-3.19-.16-4.79a23.32,23.32,0,0,0-10.19-18.72,59.65,59.65,0,0,0-14.29-7.45C139.09,3.42,121.3.91,103.26.21c-10-.39-20-.19-30,.25A172.81,172.81,0,0,0,34,6.68c-7.86,2.21-15.48,5-22.33,9.62-5.91,4-9.92,9.23-11,16.4A58.62,58.62,0,0,0,0,38.77V76.54A9.15,9.15,0,0,0,1.72,78.46Zm30.47,7.76c-3.22-1-6.19-1.85-9.11-2.86-.39-.13-.7-1-.7-1.61,0-9.18,0-18.36,0-27.54V48.09c2.21.85,4.2,1.65,6.22,2.38,3.61,1.32,3.61,1.3,3.61,5.18V86.22Zm19.4-20.33V90c-3.19-.55-6.23-1-9.24-1.66-.26,0-.51-.92-.51-1.41,0-4.36,0-8.71,0-13.07V54.37c3.14.61,6,1.14,8.92,1.79.36.09.79.86.81,1.33C51.62,60.28,51.59,63.09,51.59,65.89Zm19.47-4.64q0,14.48,0,28.94v1.86c-3.18-.28-6.12-.49-9-.86-.32,0-.76-1-.76-1.49-.06-6,0-11.93,0-17.89V57.71c3.17.3,6.15.57,9.12.9a1.12,1.12,0,0,1,.68.78A10.49,10.49,0,0,1,71.06,61.25ZM90.41,92.51h-9.6V59.36h9.6Zm19.37-.5-9.57.51V59.23l9.57-.59Zm17.94-1.81c-2.66.22-5.32.64-8.1,1V57.7l9.74-1.4V58c0,10.11,0,20.22,0,30.32C129.4,89.6,129.08,90.09,127.72,90.2Zm19.64-3.71c-2.74.52-5.45,1.21-8.3,1.86v-34l9.6-2.6c0,.57.1,1,.1,1.54q0,15.64,0,31.28C148.78,85.69,148.57,86.27,147.36,86.49Zm20.91-9.09a2.13,2.13,0,0,1-1.48,2.35c-2.71,1.11-5.39,2.3-8.42,3.59V81.16c0-10.57,0-21.15,0-31.73a2.28,2.28,0,0,1,.69-1.67c3-1.77,6-3.42,9.16-5.21v2.5C168.23,55.83,168.21,66.62,168.27,77.4ZM18.17,21A38.72,38.72,0,0,1,29,14.67c7.72-3.23,15.86-4.82,24-6.16a242.14,242.14,0,0,1,40-2.87c15.41.12,33.23,1.51,50.6,6.31a121.08,121.08,0,0,1,17,6.25c6.6,2.93,8,12.05,3,17.18A32.16,32.16,0,0,1,153,42.14c-9,3.88-18.52,6-28.18,7.46a228.43,228.43,0,0,1-48.25,2.11c-15.26-.88-30.35-2.85-44.85-8-4.85-1.74-9.52-3.86-13.47-7.27C12.52,31.46,12.5,25.92,18.17,21ZM5.81,39.16A36.9,36.9,0,0,1,7,31.38c-.1,4.43,2.16,7.55,5.18,10.33a2,2,0,0,1,.53,1.35q0,17.56,0,35.14a8.53,8.53,0,0,1-.18,1c-2.27-1.63-4.33-3.06-6.32-4.59a2,2,0,0,1-.45-1.38C5.75,61.86,5.7,50.51,5.81,39.16Z"/></g></g></svg>