<?xml version="1.0" encoding="UTF-8"?><svg id="Layer_1" xmlns="http://www.w3.org/2000/svg" viewBox="0 0 181.87 152.52"><defs><style>.cls-1{fill:#352506;stroke-width:0px;}</style></defs><path class="cls-1" d="m29.38,137.25c-7.79,0-14.13-6.34-14.13-14.13s6.34-14.13,14.13-14.13,14.13,6.34,14.13,14.13c-.01,7.78-6.35,14.12-14.13,14.13h0Zm0-22.83c-4.8,0-8.71,3.91-8.71,8.71s3.91,8.71,8.71,8.71,8.71-3.91,8.71-8.71c-.01-4.65-3.69-8.46-8.28-8.69h0s-.43-.02-.43-.02Z"/><path class="cls-1" d="m29.38,152.52C13.17,152.52-.02,139.34-.02,123.13c0-.51.01-1.02.04-1.52C.02,121.61-.02,29.93-.02,29.74c-.09-7.86,2.88-15.27,8.37-20.89S21.19.09,29.04,0h.34c15.26,0,27.84,11.45,29.25,26.64l.04.39h120.46c1.49,0,2.71,1.22,2.71,2.71s-1.22,2.71-2.71,2.71h-12.29v11.73h12.29c1.49,0,2.71,1.22,2.71,2.71s-1.22,2.71-2.71,2.71h-12.29v11.74h12.29c1.49,0,2.71,1.22,2.71,2.71s-1.22,2.71-2.71,2.71h-12.29v11.74h12.29c1.49,0,2.71,1.22,2.71,2.71s-1.22,2.71-2.71,2.71h-12.29v11.73h12.29c1.49,0,2.71,1.22,2.71,2.71s-1.22,2.71-2.71,2.71h-12.29v11.74h12.29c1.49,0,2.71,1.22,2.71,2.71s-1.22,2.71-2.71,2.71h-12.29v11.74h12.29c1.49,0,2.71,1.22,2.71,2.71s-1.22,2.71-2.71,2.71h-12.29v11.73h12.29c1.49,0,2.71,1.22,2.71,2.71s-1.22,2.71-2.71,2.71H29.38Zm29.4-29.4c-.03,9.17-4.18,17.61-11.4,23.21l-.98.77h115.03V32.45H58.78v90.68Zm-29.83-23.97c-13.02.23-23.55,10.9-23.55,23.97s10.76,23.98,23.98,23.98,23.98-10.76,23.98-23.98c0-13.21-10.76-23.97-23.98-23.99h-.43s0,.01,0,.01Zm.43-5.42c9.13,0,17.6,4.15,23.22,11.37l.77.98V29.74c.17-13.22-10.45-24.11-23.67-24.28h-.32c-13.05,0-23.8,10.62-23.97,23.67,0,.21.03,76.91.03,76.91l.76-.98c5.62-7.2,14.07-11.33,23.18-11.33Z"/></svg>