<svg width="120" height="121" viewBox="0 0 120 121" fill="none" xmlns="http://www.w3.org/2000/svg">
<path d="M69.0605 120.967C53.6294 120.967 38.1917 121.033 22.7606 120.933C16.9421 120.894 11.9464 118.475 7.74086 114.423C3.99246 110.809 1.69379 106.385 0.844851 101.19C0.668532 100.093 0.590168 98.9773 0.583638 97.8612C0.577108 96.9046 0.583638 95.9479 0.583638 94.9913C0.557517 79.0539 0.531396 63.1166 0.511805 47.1858C0.505274 40.0642 0.485683 32.9492 0.518335 25.8275C0.537926 21.8415 0.746896 17.8688 2.50355 14.1818C6.18012 6.48215 12.0639 1.72552 20.4423 0.303846C30.9235 -1.47657 41.7965 4.70838 45.7277 15.1583C46.113 16.1881 46.3873 16.3674 47.4778 16.3674C59.2259 16.3674 70.9804 16.4272 82.7285 16.3475C90.8457 16.2944 98.9694 16.2478 107.087 16.3475C109.993 16.3807 112.905 16.3674 115.818 16.4604C117.065 16.5003 118.012 17.0915 118.613 18.1943C119.847 20.4464 119.768 22.7052 118.534 24.9174C118.018 25.8408 117.202 26.3656 116.098 26.3723C113.467 26.3856 110.835 26.4454 108.197 26.4387C107.609 26.4387 107.446 26.5982 107.452 27.1961C107.478 31.3083 107.472 35.4205 107.459 39.5261C107.459 39.9778 107.505 40.1506 108.047 40.1439C110.73 40.1107 113.421 40.1373 116.105 40.1705C117.228 40.1838 118.058 40.8149 118.573 41.7516C119.775 43.9439 119.821 46.2026 118.6 48.4082C118.031 49.4247 117.156 50.0558 115.929 50.0558C113.343 50.0558 110.757 50.1023 108.177 50.0757C107.596 50.0691 107.459 50.2285 107.459 50.7799C107.478 54.7061 107.465 58.6323 107.472 62.5519C107.472 63.6015 107.642 63.7543 108.647 63.761C110.763 63.761 112.879 63.761 114.995 63.761C117.587 63.761 118.73 64.6844 119.285 67.2952C119.573 68.6438 119.507 69.9858 119.004 71.2812C118.325 73.0351 117.293 73.7459 115.413 73.7592C113.036 73.7725 110.659 73.7858 108.282 73.7459C107.629 73.7393 107.446 73.9386 107.446 74.6029C107.472 78.5889 107.472 82.5749 107.446 86.5542C107.439 87.1854 107.622 87.3847 108.249 87.3714C110.443 87.3382 112.637 87.3581 114.832 87.3581C117.522 87.3581 118.789 88.3546 119.298 91.0119C119.605 92.6063 119.488 94.1808 118.652 95.629C117.992 96.7717 117.039 97.3696 115.7 97.3563C113.219 97.3297 110.737 97.363 108.255 97.3364C107.661 97.3297 107.433 97.4892 107.439 98.1469C107.465 102.179 107.465 106.205 107.439 110.238C107.433 110.909 107.648 111.121 108.288 111.115C110.535 111.088 112.781 111.194 115.021 111.095C117.738 110.975 118.776 112.264 119.279 114.636C119.579 116.057 119.475 117.492 118.874 118.834C118.247 120.223 117.267 121 115.654 121C100.119 120.973 84.5766 120.98 69.0409 120.98C69.0605 120.973 69.0605 120.967 69.0605 120.967ZM40.5818 80.2165C40.5818 79.7847 40.5818 79.499 40.5818 79.2067C40.5818 60.8246 40.5818 42.4425 40.5818 24.0604C40.5818 22.9443 40.4839 21.8415 40.288 20.7387C38.6815 11.6639 30.0615 5.57201 21.0888 7.1797C13.1545 8.60137 7.33599 15.5902 7.32945 23.7947C7.30986 42.3362 7.32292 60.8778 7.32945 79.4193C7.32945 79.6651 7.21844 79.9441 7.447 80.1634C16.5894 71.0487 31.6614 71.2613 40.5818 80.2165ZM88.6841 68.7368C88.6841 58.0809 88.6841 47.4317 88.6841 36.7757C88.6841 35.4537 88.6515 35.4072 87.3062 35.4271C85.0076 35.4537 82.7154 35.4604 80.4168 35.4737C71.0131 35.5268 61.616 35.5069 52.2123 35.4737C50.8867 35.467 49.5545 35.4471 48.2223 35.4205C47.5823 35.4072 47.2885 35.6663 47.3081 36.3705C47.3929 40.2436 47.3929 44.1233 47.3081 48.003C47.295 48.7205 47.5562 48.9596 48.2745 48.9596C52.2972 48.933 56.3199 48.9463 60.336 48.9463C61.5115 48.9463 62.6869 49.0659 63.8298 49.3051C73.5534 51.3379 80.2862 60.612 79.2805 70.6966C78.6405 77.1141 75.5582 82.07 70.1903 85.5179C66.8272 87.677 63.0853 88.4277 59.1606 88.421C55.5558 88.4144 51.9576 88.421 48.3529 88.421C47.3472 88.421 47.3015 88.4675 47.3081 89.5172C47.3211 92.0151 47.3472 94.5063 47.3472 97.0042C47.3472 98.3595 47.3276 99.7147 47.0534 101.043C46.9032 101.754 47.0664 101.914 47.7848 101.914C61.0282 101.887 74.2652 101.894 87.5087 101.894C88.6841 101.894 88.6841 101.894 88.6841 100.698C88.6841 90.042 88.6841 79.3861 88.6841 68.7368ZM40.5296 114.124C40.9083 114.124 41.1369 114.124 41.3655 114.124C60.7148 114.137 80.0641 114.151 99.4069 114.171C100.7 114.171 100.7 114.171 100.7 112.868C100.7 83.4385 100.7 54.0086 100.7 24.5719C100.7 23.23 100.693 23.2233 99.4004 23.2233C84.8574 23.2233 70.3144 23.2233 55.7713 23.2233C53.2898 23.2233 50.8148 23.2233 48.3333 23.2233C47.3081 23.2233 47.3081 23.23 47.3146 24.2996C47.3211 25.2562 47.3734 26.2128 47.3472 27.1628C47.3146 28.5646 47.2885 28.5646 48.699 28.5646C60.6821 28.5646 72.6718 28.5646 84.6549 28.5646C86.9797 28.5646 89.3045 28.5513 91.6293 28.5712C93.8757 28.5845 94.9859 29.5212 95.3712 31.6936C95.4365 32.0789 95.4299 32.4842 95.4299 32.8828C95.4299 56.6327 95.4299 80.3759 95.4299 104.126C95.4299 104.498 95.4365 104.87 95.4104 105.242C95.2863 107.248 94.372 108.404 92.6742 108.677C92.1126 108.77 91.5314 108.816 90.9632 108.816C75.9761 108.803 60.9891 108.776 46.0085 108.75C44.9049 108.75 43.8992 108.863 43.6054 110.218C43.5727 110.357 43.4356 110.477 43.3441 110.61C42.5148 111.799 41.581 112.902 40.5296 114.124ZM23.936 80.2829C14.6957 80.2763 7.28374 87.8896 7.31639 97.3165C7.34905 106.464 14.6434 113.931 23.5312 114.117C32.9544 114.31 40.4773 106.889 40.5622 97.3696C40.6471 87.8763 33.196 80.2962 23.936 80.2829ZM47.3211 68.6372C47.3211 72.59 47.3211 76.5494 47.3211 80.5022C47.3211 81.4721 47.406 81.5585 48.3398 81.5585C51.1871 81.5585 54.0343 81.6315 56.875 81.5319C58.6186 81.4721 60.3621 81.6182 62.1057 81.3193C71.0849 79.7913 75.728 69.3281 70.3274 61.2896C67.7414 57.4498 63.9212 55.7956 59.3695 55.8155C55.7452 55.8288 52.1144 55.789 48.49 55.7757C47.3799 55.769 47.3276 55.8222 47.3276 56.925C47.3211 60.8313 47.3211 64.7309 47.3211 68.6372Z" fill="#131A22"/>
<path d="M29.6516 98.7332C29.6386 101.657 27.2347 103.924 24.1485 103.924C21.0104 103.924 18.6324 101.645 18.6584 98.6651C18.6779 95.7537 21.1338 93.3998 24.142 93.4122C27.1632 93.4245 29.6581 95.8342 29.6516 98.7332Z" fill="#131A22"/>
</svg>
