<svg width="99" height="129" viewBox="0 0 99 129" fill="none" xmlns="http://www.w3.org/2000/svg">
<g clip-path="url(#clip0_416_1594)">
<path d="M65.6808 103.535C65.6808 98.8546 65.6808 94.1739 65.6808 89.4933C65.657 86.0608 66.8488 83.1781 69.6535 80.8526C70.0707 80.5072 70.2733 79.7382 70.2574 79.1624C70.0468 71.1979 69.5026 63.2259 69.6337 55.2651C69.7131 50.5251 68.3942 46.7211 65.1922 43.0249C60.8657 38.1035 57.6847 32.3923 55.8523 26.2563C53.6356 18.615 54.8234 11.594 61.0447 5.85464C65.6133 1.64206 71.4055 0.144999 77.6744 0.397605C85.7232 0.724507 92.2821 3.70377 96.1873 10.6021C99.282 16.074 99.2105 21.806 97.1606 27.5825C94.7094 34.492 90.558 40.51 85.8185 46.1899C84.5911 47.562 83.9176 49.2934 83.9156 51.0823C83.7368 60.4398 83.3991 69.7937 83.0813 79.1476C83.0441 79.53 83.1101 79.915 83.2732 80.2674C83.4363 80.6198 83.6913 80.9283 84.0149 81.1647C86.6766 83.3564 87.7095 86.2057 87.6857 89.4821C87.646 95.5521 87.6857 101.622 87.6857 107.685C87.6857 111.437 87.7969 115.196 87.5983 118.94C87.3718 123.235 84.9127 126.292 80.6738 127.837C76.435 129.383 72.4702 128.617 69.1013 125.709C66.6263 123.569 65.657 120.816 65.6689 117.707C65.6967 112.986 65.6808 108.26 65.6808 103.535ZM83.5223 103.565C83.5223 98.7022 83.57 93.8359 83.5223 88.9732C83.4746 85.1321 80.5149 82.346 76.6694 82.3646C72.8238 82.3831 69.9157 85.1321 69.8879 88.9026C69.8244 98.6762 69.8561 108.45 69.8879 118.227C69.8583 119.182 70.0681 120.131 70.5006 120.996C70.9332 121.862 71.5764 122.621 72.3788 123.212C74.5439 124.828 76.9673 125.155 79.49 124.111C82.2073 122.997 83.5263 120.913 83.5461 118.168C83.5421 113.294 83.5183 108.428 83.5183 103.565H83.5223ZM69.5502 19.8074C70.1263 23.4925 70.4918 27.5639 71.4572 31.5127C72.6172 36.2788 74.2698 40.9409 75.7636 45.629C75.8867 46.0004 76.4191 46.2828 76.7568 46.6097C77.0348 46.3311 77.4123 46.1007 77.5513 45.7738C77.9208 44.9714 78.2028 44.1282 78.4928 43.2924C81.6194 34.3248 84.1817 25.2645 83.3673 15.6877C83.0972 12.5487 82.7873 9.39113 81.0075 6.60503C78.9457 3.37687 74.4486 3.36201 72.3907 6.60503C71.6899 7.66645 71.1975 8.83641 70.9367 10.0598C70.3805 13.1468 70.0389 16.2746 69.5502 19.8074ZM83.121 42.7203L83.5183 42.8354C85.314 40.2351 87.201 37.6941 88.8934 35.0344C91.4836 30.9481 93.5732 26.6835 94.3003 21.9174C95.206 15.8809 92.2583 9.77746 86.8554 6.80563C86.4839 6.63246 86.1019 6.47989 85.7112 6.34871C89.7594 18.8824 87.0063 30.8366 83.121 42.7203ZM67.405 6.25584C66.3443 6.95794 65.1842 7.55973 64.2268 8.3807C58.9431 12.9945 57.9936 18.7153 59.7734 24.9524C61.6684 31.5945 65.6411 37.2669 70.0111 42.6831C70.0349 42.7166 70.1462 42.6831 70.2892 42.7017C66.3602 30.8032 63.6547 18.849 67.405 6.25584ZM78.9735 78.5495C79.2556 69.2068 79.5416 59.8009 79.8277 50.4656H73.5508C73.8368 59.8343 74.1228 69.2291 74.4089 78.5495H78.9735Z" fill="#131A22" stroke="#131A22" stroke-width="2" stroke-miterlimit="10"/>
<path d="M40.8959 25.0268C40.8959 29.8932 40.8959 34.7596 40.8959 39.6222C40.8959 44.4069 38.2104 47.3342 33.1571 48.1143C30.1776 48.5786 28.1674 50.6403 28.0681 53.4301C27.7502 62.041 27.4404 70.6556 27.1941 79.2703C27.2267 79.9676 27.5337 80.6291 28.0561 81.1277C30.3126 83.2191 31.6316 85.6783 31.6316 88.6575C31.6554 98.6206 31.6872 108.584 31.6316 118.543C31.5991 121.219 30.4374 123.774 28.3993 125.653C26.3613 127.531 23.6121 128.581 20.7503 128.573C14.7912 128.61 9.76973 124.301 9.69822 118.71C9.56712 108.61 9.61877 98.5092 9.69822 88.4087C9.71808 85.5 11.1085 83.0705 13.3849 81.0645C13.8492 80.6343 14.1218 80.0555 14.1477 79.4449C13.8828 70.8736 13.5888 62.306 13.2657 53.7422C13.1465 50.5103 11.339 48.6529 7.89858 48.0957C3.19092 47.3342 0.421941 44.2843 0.417969 39.8006C0.417969 29.9316 0.417969 20.0614 0.417969 10.1899C0.417969 5.32725 3.75505 2.22911 8.98711 2.22168C16.7683 2.22168 24.5495 2.22168 32.3308 2.22168C37.5946 2.22168 40.884 5.27895 40.9039 10.1713C40.9079 15.112 40.8959 20.0713 40.8959 25.0268ZM22.9234 78.5607C22.9512 78.3304 23.0028 78.0592 23.0108 77.788C23.3048 69.7789 23.5934 61.7674 23.8768 53.7533C24.0477 48.6046 27.3212 45.0756 32.7956 44.2249C35.3461 43.8274 36.7166 42.3675 36.7206 39.938C36.7392 29.9749 36.7392 20.0118 36.7206 10.0488C36.7206 7.48554 35.2308 6.10736 32.4778 6.09993C24.5985 6.08259 16.718 6.08259 8.83615 6.09993C6.09895 6.09993 4.5774 7.50783 4.57342 10.0413C4.55753 20.0044 4.55753 29.9675 4.57342 39.9306C4.57342 42.3378 5.98771 43.8274 8.51832 44.2249C13.9609 45.0756 17.2027 48.4635 17.4212 53.6084C17.6397 58.7534 17.7906 63.9839 17.9813 69.1697C18.0965 72.3087 18.2276 75.4477 18.3508 78.5607H22.9234ZM27.5039 103.48C27.5039 98.7061 27.5039 93.9363 27.5039 89.1628C27.5039 85.2362 24.6158 82.3795 20.6987 82.3684C16.7816 82.3573 13.8378 85.2288 13.8298 89.1256C13.8139 98.7147 13.8139 108.304 13.8298 117.893C13.8298 121.823 16.722 124.654 20.655 124.661C24.588 124.669 27.492 121.864 27.5039 117.934C27.5039 113.116 27.5039 108.298 27.5039 103.48Z" fill="#131A22" stroke="#131A22" stroke-width="2" stroke-miterlimit="10"/>
<path d="M28.3336 25.194C28.3336 21.6278 28.3336 18.0616 28.3336 14.4917C28.3336 13.0057 29.1282 12.0956 30.3676 12.0807C31.6071 12.0659 32.4851 12.9649 32.4851 14.4396C32.501 21.6216 32.501 28.8035 32.4851 35.9855C32.4851 37.4491 31.6071 38.3592 30.3518 38.3332C29.0964 38.3072 28.3376 37.4045 28.3336 35.9037C28.3257 32.3301 28.3336 28.7639 28.3336 25.194Z" fill="#131A22" stroke="#131A22" stroke-width="2" stroke-miterlimit="10"/>
<path d="M22.7355 25.3347C22.7355 28.8564 22.7355 32.3929 22.7355 35.8996C22.7355 37.3855 21.941 38.3031 20.7134 38.3291C19.4859 38.3551 18.5841 37.419 18.5801 35.8439C18.5801 28.7536 18.5801 21.6633 18.5801 14.573C18.5801 12.9868 19.3746 12.0618 20.6975 12.0804C22.0204 12.0989 22.7355 13.0091 22.7395 14.6287C22.7355 18.1986 22.7355 21.7648 22.7355 25.3347Z" fill="#131A22" stroke="#131A22" stroke-width="2" stroke-miterlimit="10"/>
<path d="M8.83178 25.0526C8.83178 21.6721 8.83178 18.2917 8.83178 14.9112C8.83178 14.406 8.74042 13.741 9.0344 13.4253C9.57071 12.8643 10.3851 12.1474 11.0406 12.1808C11.6961 12.2142 12.3675 13.0389 12.884 13.6333C13.1104 13.8933 12.9872 14.4394 12.9872 14.8555C12.9872 21.7526 12.9872 28.6535 12.9872 35.558C12.9872 35.8366 12.9872 36.1115 12.9872 36.3901C12.9957 36.6362 12.9518 36.8814 12.858 37.1115C12.7642 37.3415 12.6224 37.5519 12.4409 37.7302C12.2594 37.9086 12.0418 38.0514 11.8007 38.1505C11.5596 38.2495 11.2999 38.3027 11.0366 38.307C9.94414 38.4221 9.05028 37.6049 8.87548 36.4496C8.83705 36.0345 8.82644 35.6177 8.8437 35.2014C8.83576 31.8185 8.83178 28.4355 8.83178 25.0526Z" fill="#131A22" stroke="#131A22" stroke-width="2" stroke-miterlimit="10"/>
</g>
<defs>
<clipPath id="clip0_416_1594">
<rect width="99" height="129" fill="white"/>
</clipPath>
</defs>
</svg>
