<?xml version="1.0" encoding="UTF-8"?><svg id="Layer_1" xmlns="http://www.w3.org/2000/svg" viewBox="0 0 117.68 152.52"><defs><style>.cls-1{fill:#352506;stroke-width:0px;}</style></defs><path class="cls-1" d="m13.15,45.43c1.63-.03,2.68-1.28,2.68-3.17v-12.56c0-4.25,0-8.49,0-12.73,0-2.08-.99-3.29-2.76-3.31-1.7,0-2.76,1.25-2.76,3.25v25.3c0,1.94,1.11,3.24,2.76,3.24h.07Zm77.89,107.38c-3.23,0-6.24-1.19-8.96-3.53-2.83-2.45-4.2-5.63-4.18-9.73.02-4.1.02-8.2.02-12.3v-21.26c-.03-4.34,1.55-7.78,4.82-10.49.42-.35.63-1.18.62-1.79-.08-3.13-.21-6.26-.33-9.38-.25-6.24-.51-12.7-.41-19.05.09-5.67-1.51-10.1-5.21-14.37-5.2-5.92-8.96-12.66-11.17-20.05-2.85-9.83-.75-18.09,6.25-24.55C77.25,1.94,83.44-.28,90.9-.28c.53,0,1.05.01,1.59.03,10.39.42,17.88,4.55,22.25,12.28,3.48,6.16,3.87,12.84,1.18,20.43-2.56,7.21-6.73,14.06-13.54,22.22-1.42,1.58-2.2,3.58-2.2,5.64-.19,9.91-.53,19.97-.87,29.7l-.13,3.69c-.04.42.03.83.2,1.2.17.37.45.71.79.96,3.05,2.51,4.51,5.82,4.48,10.12-.03,4.81-.02,9.62,0,14.43,0,2.4,0,4.81,0,7.21,0,1.18,0,2.36.02,3.54.03,3.23.05,6.58-.12,9.86-.27,5.18-3.19,8.92-8.42,10.83-1.72.63-3.44.95-5.09.95Zm.23-55.01c-4.48.02-7.75,3.17-7.78,7.49-.08,11.62-.04,23.44,0,34.87-.03,1.1.21,2.19.7,3.17.49.99,1.23,1.86,2.15,2.53,1.54,1.15,3.18,1.73,4.89,1.73,1.08,0,2.18-.23,3.29-.69,3.06-1.26,4.63-3.55,4.65-6.81,0-2.62,0-5.25-.02-7.87,0-3.17-.02-6.33-.02-9.5v-.28h0c0-1.83,0-3.67.01-5.5.01-3.79.02-7.71-.01-11.57-.05-4.32-3.42-7.58-7.82-7.58v-.28l-.04.28Zm-8.47-74.68c0,5.17,1.12,9.22,2.27,13.92,1.38,5.67,3.34,11.21,5.12,16.79.15.44.78.78,1.18,1.17.33-.33.78-.61.94-.99.44-.95.77-1.96,1.12-2.95,3.72-10.66,6.77-21.44,5.8-32.83-.32-3.73-.69-7.49-2.81-10.8-2.45-3.84-7.8-3.86-10.25,0-.83,1.26-1.42,2.65-1.73,4.11-.66,3.67-1.65,7.45-1.65,11.59Zm16.14,27.25l.47.14c2.14-3.09,4.38-6.11,6.39-9.28,3.08-4.86,5.57-9.93,6.43-15.6,1.08-7.18-2.43-14.44-8.85-17.97-.44-.21-.9-.39-1.36-.54,4.81,14.91,1.54,29.12-3.08,43.26ZM80.26,7c-1.26.83-2.64,1.55-3.78,2.53-6.28,5.49-7.41,12.29-5.3,19.71,2.25,7.9,6.98,14.65,12.18,21.09.03.04.16,0,.33.02-4.67-14.15-7.89-28.37-3.43-43.34Zm13.76,85.98c.34-11.11.68-22.3,1.02-33.4h-7.46c.34,11.14.68,22.32,1.02,33.4h5.43Zm-69.33,59.78c-7.27,0-13.25-5.39-13.34-12.01-.16-12.52-.08-25.17,0-36.04.02-3.33,1.53-6.34,4.48-8.95.49-.46.78-1.07.81-1.73-.31-10.13-.67-20.41-1.05-30.54-.14-3.69-2.15-5.8-6.14-6.45-5.72-.92-9.13-4.72-9.13-10.14V11.68C.31,5.76,4.42,1.93,10.78,1.92h27.76c6.44,0,10.45,3.73,10.48,9.74,0,3.38,0,6.77,0,10.16v7.5s0,17.36,0,17.36c0,5.84-3.27,9.43-9.44,10.38-3.42.53-5.7,2.91-5.81,6.05-.34,9.28-.74,20.08-1.04,30.73.04.74.37,1.45.94,2,2.92,2.71,4.34,5.7,4.34,9.16v3.04c.03,10.66.06,21.67,0,32.51-.04,3.28-1.44,6.36-3.93,8.66-2.48,2.29-5.77,3.55-9.25,3.55l-.13-.28v.28Zm0-54.95c-4.47,0-7.85,3.33-7.86,7.75-.02,11.4-.02,22.81,0,34.21,0,4.49,3.29,7.76,7.83,7.77h0c4.55,0,7.85-3.25,7.86-7.72v-34.22c0-4.5-3.29-7.78-7.81-7.8l-.03-.28v.28Zm2.43-5.1h0c.03-.21.06-.43.07-.64.35-9.53.69-19.05,1.03-28.58.21-6.24,4.26-10.58,10.85-11.6,2.93-.46,4.42-2.08,4.43-4.82.02-11.85.02-23.7,0-35.55,0-2.88-1.65-4.41-4.76-4.41-4.68,0-9.37-.01-14.06-.01s-9.37,0-14.06.01c-3.08,0-4.78,1.56-4.79,4.4-.02,11.85-.02,23.7,0,35.55,0,2.7,1.54,4.37,4.45,4.83,6.62,1.03,10.56,5.2,10.83,11.43.16,3.84.29,7.73.43,11.61.08,2.3.16,4.6.24,6.89.09,2.6.2,5.19.3,7.78l.12,3.12h4.92Zm9.14-47.27c1.65,0,2.76-1.24,2.76-3.08.02-8.54.02-17.08,0-25.62,0-1.85-1.11-3.09-2.8-3.09-1.64.02-2.7,1.26-2.7,3.15v16.97c0,2.83,0,5.66,0,8.49,0,1.92,1.03,3.14,2.68,3.17h.07Zm-11.52,0c1.63-.03,2.68-1.28,2.68-3.17v-12.56c0-4.25,0-8.49,0-12.73,0-2.08-.99-3.29-2.76-3.31-1.7,0-2.76,1.25-2.76,3.25v25.3c0,1.94,1.11,3.24,2.76,3.24h.07Z"/></svg>